<svg width="180" height="180" viewBox="0 0 180 180" fill="none" xmlns="http://www.w3.org/2000/svg">
<circle cx="90" cy="90" r="90" fill="#96D2E6"/>
<circle cx="89.9982" cy="90.0002" r="79.6154" fill="white"/>
<mask id="mask0_709_11407" style="mask-type:alpha" maskUnits="userSpaceOnUse" x="10" y="10" width="160" height="160">
<circle cx="89.9982" cy="90.0002" r="79.6154" fill="white"/>
</mask>
<g mask="url(#mask0_709_11407)">
<path d="M24.0371 72.4277C23.7663 73.1176 23.3149 73.569 22.625 73.8398C23.3149 74.1106 23.7663 74.562 24.0371 75.2519C24.3079 74.562 24.7592 74.1106 25.4491 73.8398C24.7592 73.569 24.3079 73.1176 24.0371 72.4277Z" fill="white"/>
<path d="M155.74 69.127C155.469 69.8169 155.018 70.2682 154.328 70.539C155.018 70.8098 155.469 71.2612 155.74 71.9511C156.011 71.2612 156.462 70.8098 157.152 70.539C156.462 70.2682 156.011 69.8169 155.74 69.127Z" fill="white"/>
<path d="M90.9171 144.554C90.8784 144.373 90.8397 144.225 90.7817 144.051C90.7817 144.07 90.7817 144.064 90.7559 143.98C90.6656 143.793 90.5624 143.619 90.4464 143.451C90.3819 143.38 90.3819 143.38 90.4012 143.4C90.2787 143.251 90.1369 143.129 89.995 143C89.8081 142.871 89.6275 142.755 89.4147 142.671C89.2535 142.613 89.0923 142.568 88.9312 142.536C88.9312 142.536 88.9247 142.536 88.9183 142.536C88.9376 142.536 88.9183 142.536 88.8344 142.523C88.6088 142.504 88.3895 142.497 88.1639 142.523C87.9704 142.562 87.7834 142.607 87.5965 142.678C87.3772 142.768 87.1967 142.89 87.0033 143.019C86.6035 143.374 86.2424 143.774 85.862 144.154C85.733 144.335 85.6105 144.535 85.5203 144.741C85.4558 144.928 85.3913 145.128 85.3655 145.321C85.3462 145.489 85.3397 145.657 85.3462 145.824C85.3462 145.895 85.4106 146.211 85.3526 145.985C85.3913 146.198 85.4429 146.411 85.5203 146.611C85.6234 146.817 85.7266 147.017 85.8684 147.198C85.991 147.339 86.1199 147.462 86.2553 147.584C86.4101 147.7 86.5713 147.797 86.7453 147.881C86.784 147.9 87.0033 147.978 86.7969 147.907C86.9968 147.984 87.1967 148.042 87.4095 148.074C87.648 148.1 87.8866 148.107 88.1252 148.074C88.3122 148.036 88.4927 147.991 88.6668 147.926C88.6926 147.913 88.7829 147.875 88.7893 147.875C88.9569 147.791 89.1181 147.7 89.2664 147.591C89.6662 147.223 90.0531 146.83 90.427 146.437C90.5624 146.256 90.6721 146.056 90.7623 145.856C90.8397 145.669 90.8848 145.476 90.9235 145.276C90.9558 145.05 90.9429 144.741 90.9235 144.547L90.9171 144.554Z" fill="white"/>
<path d="M90.7578 143.986C90.7643 144.012 90.7772 144.031 90.7836 144.057C90.7836 144.038 90.7707 144.012 90.7578 143.986Z" fill="#0DACCC"/>
<path d="M79.9082 136.996C80.6175 136.319 81.043 135.642 80.9399 134.636C80.7722 132.96 78.696 131.922 77.2969 132.837C76.8649 133.089 76.4651 133.553 76.0718 133.946C75.124 135.075 73.4475 136.035 73.2025 137.531C72.9253 139.53 75.2336 140.987 76.8907 139.917C77.9545 139.117 78.9088 137.918 79.9082 136.99V136.996Z" fill="white"/>
<path d="M88.8502 142.521H88.8438C88.8438 142.521 88.8953 142.534 88.9211 142.534C88.9082 142.534 88.876 142.521 88.8502 142.521Z" fill="#0DACCC"/>
<path d="M85.7915 139.537C85.7915 139.537 85.7915 139.498 85.7915 139.492C85.6239 137.815 83.5477 136.777 82.1485 137.693C81.7165 137.944 81.3167 138.408 80.9234 138.802C79.9756 139.93 78.2991 140.891 78.0541 142.387C77.7769 144.386 80.0787 145.843 81.7423 144.772C82.8062 143.973 83.7604 142.774 84.7598 141.845C85.4562 141.175 85.8882 140.53 85.7915 139.537Z" fill="white"/>
<path d="M117.74 127.852C119.32 127.001 120.873 126.092 122.473 125.267C119.158 118.155 115.844 111.049 112.524 103.937C110.815 104.808 109.035 105.575 107.217 106.155C105.334 106.787 103.239 107.181 101.362 106.336C98.1063 105.208 94.8437 103.97 91.536 103.08C89.6532 102.815 88.254 105.085 87.2675 106.375C86.1134 107.974 84.8367 109.495 83.689 111.088C82.9088 112.307 84.0823 114.286 85.3654 114.634C89.2857 115.679 91.3232 111.365 92.8578 108.58C93.4445 107.509 95.0823 108.47 94.4891 109.534C93.3929 111.52 92.3291 113.693 90.5624 115.15C87.1579 117.936 81.9223 116.878 81.529 112.004C81.4581 111.004 81.9674 110.198 82.5606 109.444C84.0436 107.619 85.3138 105.711 86.8033 103.866C85.0043 103.576 83.3215 102.809 81.4645 103.331C82.0384 103.305 82.6251 103.647 82.6187 104.286C82.6187 104.763 82.1802 105.285 81.6708 105.233C79.5882 105.014 77.5894 105.846 75.9452 107.077C75.6292 107.348 75.2166 107.722 74.7652 107.542C73.0179 106.813 71.2641 106.091 69.5232 105.356C66.3831 112.081 63.2495 118.812 60.1094 125.538C60.2383 125.557 60.3608 125.583 60.4705 125.634C60.7026 124.719 61.6697 124.873 62.2823 125.318C63.3268 125.892 64.3649 126.466 65.4095 127.046C66.2154 127.478 65.8866 128.832 64.9581 128.787C65.4933 129.561 66.2799 130.257 66.9698 130.986C67.8338 129.561 69.2201 128.51 70.3485 127.298C71.09 126.556 71.9411 125.982 73.005 125.828C75.7711 125.325 78.3889 127.904 77.9569 130.67C80.6908 130.232 83.2312 132.791 82.8056 135.519C85.6749 135.054 88.2798 137.898 87.6028 140.709C91.4779 139.865 94.4053 144.417 91.9422 147.57C92.9287 148.221 93.9152 148.356 94.9082 147.976C94.1409 147.537 94.4246 146.299 95.3015 146.241C95.2822 146.241 95.2693 146.241 95.2499 146.248C95.5014 146.216 95.7464 146.145 95.9785 146.061C96.1397 145.984 96.288 145.893 96.4363 145.797C96.5975 145.661 96.7523 145.506 96.8877 145.345C97.0295 145.145 97.1585 144.945 97.2681 144.726C97.4551 144.352 97.8871 144.217 98.2739 144.288C95.8367 142.392 93.6766 140.168 91.4973 137.995C90.6462 137.124 91.9809 135.783 92.8384 136.654C95.1403 138.891 97.3261 141.335 99.9826 143.166C99.9826 143.166 99.989 143.166 99.9955 143.166C100.015 143.166 100.028 143.179 100.047 143.185C101.691 143.282 102.955 142.012 102.762 140.335C100.608 138.156 98.4609 135.989 96.3589 133.765C95.5207 132.882 96.8554 131.54 97.7001 132.424C100.189 134.919 102.51 137.666 105.192 139.929C106.733 140.832 108.919 138.569 108.416 137.002C108.274 136.712 107.901 136.396 107.643 136.157C105.508 134.126 103.393 132.069 101.292 130.006C100.421 129.148 101.762 127.814 102.633 128.665C104.793 130.78 106.966 132.888 109.151 134.977C109.274 134.996 109.409 135.048 109.538 135.145C110.544 135.873 111.898 136.112 112.923 135.261C113.762 134.532 113.446 133.172 113.014 132.288C112.059 130.767 110.712 129.503 109.551 128.13C105.483 123.584 101.292 119.154 96.9908 114.828C96.5266 114.357 96.7071 113.757 97.1004 113.435C97.4357 113.164 97.9322 113.093 98.3255 113.487C101.42 116.601 104.457 119.78 107.443 123.004C109.835 125.673 112.472 128.188 114.503 131.154L117.347 128.987C117.198 128.581 117.385 128.065 117.766 127.852H117.74Z" fill="white"/>
<path d="M114.84 104.447C118.219 111.688 121.591 118.929 124.97 126.17C127.742 124.874 130.521 123.584 133.294 122.288L122.893 97.9414C119.856 99.3535 116.826 100.772 113.789 102.184C114.137 102.938 114.492 103.693 114.84 104.441V104.447Z" fill="#0DACCC"/>
<path d="M58.8631 123.752C62.2159 116.562 65.5688 109.373 68.9216 102.184C65.8331 100.74 62.7382 99.3017 59.6497 97.8574L49.3203 122.237C52.1251 123.545 54.9363 124.854 57.7411 126.163C58.1151 125.357 58.4955 124.551 58.8695 123.745L58.8631 123.752Z" fill="#0DACCC"/>
<path d="M75.0567 132.146C75.7659 131.469 76.1915 130.792 76.0883 129.787C75.9207 128.11 73.8445 127.072 72.4453 127.988C72.0133 128.239 71.6135 128.703 71.2202 129.097C70.2724 130.225 68.596 131.186 68.3509 132.682C68.0737 134.68 70.382 136.138 72.0391 135.067C73.103 134.268 74.0573 133.068 75.0567 132.14V132.146Z" fill="white"/>
<path d="M107.421 123.005C105.422 120.845 103.404 118.717 101.353 116.603C100.341 115.558 99.3287 114.52 98.3035 113.488C97.9101 113.095 97.4137 113.159 97.0784 113.437C96.6786 113.759 96.4981 114.365 96.9688 114.829C101.269 119.156 105.467 123.585 109.529 128.131C110.78 129.711 112.547 131.052 113.269 132.973C114.126 135.63 111.399 136.546 109.516 135.146C109.387 135.05 109.252 134.998 109.129 134.979C106.937 132.896 104.771 130.788 102.611 128.666C101.74 127.815 100.399 129.15 101.269 130.007C103.378 132.071 105.486 134.128 107.621 136.159C107.878 136.397 108.252 136.713 108.394 137.003C108.897 138.57 106.705 140.833 105.17 139.931C102.488 137.667 100.167 134.921 97.678 132.425C96.8398 131.542 95.4987 132.877 96.3369 133.767C98.4389 135.991 100.586 138.158 102.74 140.337C102.933 142.013 101.669 143.284 100.025 143.187C100.057 143.206 100.051 143.219 99.9605 143.167C99.9605 143.167 99.967 143.167 99.9734 143.167C99.9734 143.167 99.967 143.167 99.9605 143.167C97.304 141.336 95.1182 138.893 92.8164 136.655C91.9653 135.785 90.6241 137.119 91.4752 137.996C93.6546 140.169 95.8146 142.4 98.2519 144.289C97.4394 144.128 97.2396 144.799 96.872 145.347C96.7366 145.514 96.5819 145.663 96.4207 145.798C96.2788 145.901 96.1241 145.985 95.9629 146.063C95.7243 146.153 95.4858 146.217 95.2343 146.25C95.2536 146.25 95.2665 146.25 95.2859 146.243C94.409 146.301 94.1188 147.539 94.8926 147.978C95.0409 148.074 95.215 148.139 95.3826 148.119C96.8978 148.023 98.2261 147.03 98.8773 145.676C99.045 145.36 99.0578 144.979 98.8451 144.683C101.057 145.94 104.055 144.031 104.519 141.717C107.201 142.897 110.271 140.298 110.348 137.551C114.481 138.364 116.647 134.611 114.475 131.149C112.443 128.183 109.806 125.668 107.414 122.999L107.421 123.005Z" fill="#323232"/>
<path d="M65.7522 128.35C65.9843 127.905 65.8747 127.312 65.4105 127.054C64.3659 126.48 63.3278 125.906 62.2833 125.326C61.761 124.945 60.9228 124.733 60.5424 125.416C60.3425 125.867 60.4134 126.454 60.8841 126.712C61.9287 127.286 62.9668 127.86 64.0113 128.44C64.5271 128.814 65.3782 129.014 65.7522 128.35Z" fill="#323232"/>
<path d="M88.9211 142.534C88.9211 142.534 88.8695 142.528 88.8438 142.521C88.9276 142.541 88.9469 142.541 88.9276 142.534H88.9211Z" fill="#323232"/>
<path d="M90.7836 144.049C90.7836 144.049 90.7643 144.004 90.7578 143.979C90.7836 144.062 90.79 144.069 90.7836 144.049Z" fill="#323232"/>
<path d="M88.9932 140.645C88.5289 140.587 88.0518 140.62 87.594 140.716C88.2774 137.899 85.6661 135.062 82.7968 135.526C83.2224 132.798 80.6819 130.239 77.9481 130.677C78.3801 127.911 75.7623 125.332 72.9961 125.835C71.0231 126.118 69.8754 127.885 68.502 129.142C67.7992 129.839 67.1351 130.522 66.7353 131.431C65.4845 134.397 68.1732 137.776 71.3326 137.292C70.8942 140.02 73.4668 142.567 76.1814 142.141C75.6333 146.158 80.5723 148.653 83.4609 145.797C83.4609 149.363 87.8519 151.284 90.5535 148.982C91.7528 147.989 92.8296 146.661 92.8231 145.023C92.8747 142.799 91.1596 140.929 88.9867 140.658L88.9932 140.645ZM72.0354 135.068C70.3719 136.138 68.07 134.681 68.3473 132.682C68.5923 131.186 70.2687 130.226 71.2166 129.097C71.6099 128.704 72.0096 128.24 72.4416 127.988C73.8408 127.073 75.9235 128.117 76.0846 129.787C76.1943 130.793 75.7623 131.47 75.053 132.147C74.0536 133.069 73.0929 134.275 72.0354 135.074V135.068ZM76.8842 139.923C75.2206 140.993 72.9188 139.536 73.196 137.537C73.441 136.042 75.1175 135.081 76.0653 133.952C76.4586 133.559 76.8584 133.095 77.2904 132.843C78.6896 131.928 80.7722 132.972 80.9334 134.642C81.043 135.648 80.611 136.325 79.9017 137.002C78.9023 137.924 77.9416 139.13 76.8842 139.93V139.923ZM83.1385 143.469C82.6936 143.914 82.2165 144.482 81.7394 144.772C80.0758 145.842 77.774 144.385 78.0512 142.386C78.2962 140.89 79.9727 139.93 80.9205 138.801C81.3138 138.408 81.7136 137.944 82.1456 137.692C83.5448 136.777 85.6274 137.821 85.7886 139.491C85.9949 141.303 84.1702 142.257 83.1385 143.469ZM90.921 145.281C90.8824 145.481 90.8372 145.675 90.7598 145.862C90.6631 146.068 90.56 146.261 90.4246 146.442C90.0506 146.835 89.6702 147.229 89.264 147.596C89.1157 147.706 88.9545 147.802 88.7868 147.88C88.7868 147.88 88.6966 147.918 88.6643 147.931C88.4838 147.996 88.3032 148.041 88.1227 148.08C87.8841 148.105 87.6456 148.099 87.407 148.08C87.1942 148.047 86.9943 147.983 86.7944 147.912C86.8718 147.938 86.8912 147.944 86.8783 147.938C86.659 147.867 86.4398 147.725 86.2528 147.583C86.111 147.461 85.982 147.338 85.866 147.196C85.7177 147.009 85.621 146.816 85.5178 146.61C85.4404 146.41 85.3888 146.197 85.3501 145.984C85.4017 146.21 85.3501 145.894 85.3437 145.823C85.3372 145.655 85.3437 145.488 85.363 145.32C85.3953 145.127 85.4533 144.927 85.5178 144.74C85.6081 144.533 85.7306 144.327 85.8595 144.153C86.2399 143.779 86.601 143.373 87.0008 143.018C87.1942 142.889 87.3812 142.767 87.594 142.676C87.781 142.605 87.9679 142.567 88.1614 142.522C88.3871 142.496 88.6063 142.502 88.832 142.522C88.8255 142.522 88.8255 142.522 88.8126 142.522C88.8191 142.522 88.8255 142.522 88.832 142.522H88.8384C88.8384 142.522 88.8964 142.535 88.9093 142.535C88.9093 142.535 88.9158 142.535 88.9222 142.535C89.0899 142.567 89.2511 142.612 89.4058 142.67C89.6121 142.754 89.7991 142.87 89.9861 142.999C90.128 143.128 90.2698 143.25 90.3923 143.399C90.373 143.379 90.3665 143.379 90.4375 143.45C90.5535 143.618 90.6567 143.798 90.747 143.979C90.747 143.979 90.747 143.979 90.747 143.966C90.747 143.966 90.747 143.972 90.747 143.979C90.7598 143.998 90.7663 144.03 90.7727 144.05C90.8372 144.224 90.8695 144.372 90.9081 144.553C90.9339 144.746 90.9404 145.056 90.9081 145.281H90.921Z" fill="#323232"/>
<path d="M69.5013 105.403C69.5013 105.403 69.5142 105.371 69.5206 105.358C71.268 106.093 73.0153 106.815 74.7627 107.544C75.2205 107.725 75.6267 107.357 75.9426 107.08C77.5868 105.848 79.5856 105.01 81.6683 105.236C82.1776 105.287 82.6161 104.765 82.6161 104.288C82.6161 103.65 82.0358 103.308 81.4619 103.334C79.1278 103.172 76.697 104.094 74.8594 105.545C73.3441 104.913 71.8289 104.288 70.3137 103.656C70.5974 102.831 71.7193 101.586 70.649 100.916C67.2252 99.3231 63.8014 97.7241 60.3841 96.125L59.649 97.8595C62.7375 99.3038 65.8325 100.742 68.921 102.186C65.1941 110.181 61.4673 118.176 57.734 126.172C54.9292 124.863 52.118 123.554 49.3132 122.245L48.5781 123.98C51.6215 125.398 54.6649 126.817 57.7147 128.242C58.1467 128.441 58.7786 128.396 59.0107 127.9C62.5054 120.401 66.0065 112.902 69.5013 105.403Z" fill="#323232"/>
<path d="M124.978 126.176C121.251 118.181 117.524 110.185 113.798 102.19C116.835 100.778 119.865 99.3594 122.902 97.9474L122.16 96.2129C118.795 97.7797 115.429 99.353 112.07 100.92C111.573 101.152 111.528 101.797 111.734 102.229C110.045 103.099 108.278 103.866 106.466 104.414C105.332 104.756 103.965 105.182 102.785 104.834C100.309 104.105 97.9231 103.073 95.4536 102.313C93.2291 101.629 90.9724 100.462 88.8253 101.971C87.0586 103.215 85.8206 105.195 84.5504 106.884C83.8991 107.748 83.2415 108.606 82.5773 109.457C81.9841 110.211 81.4748 111.017 81.5457 112.016C81.939 116.885 87.1682 117.955 90.5791 115.163C92.3458 113.712 93.4161 111.539 94.5058 109.547C95.0925 108.477 93.4612 107.522 92.8745 108.593C91.3399 111.378 89.3024 115.692 85.3821 114.647C84.099 114.299 82.9191 112.32 83.7057 111.101C84.8534 109.508 86.1301 107.987 87.2842 106.388C88.2707 105.098 89.6699 102.828 91.5527 103.093C94.8604 103.982 98.1294 105.22 101.379 106.349C103.255 107.194 105.351 106.807 107.234 106.168C109.052 105.588 110.832 104.827 112.54 103.95C115.854 111.062 119.169 118.174 122.489 125.28C121.084 125.995 119.717 126.801 118.33 127.549C117.737 127.82 117.086 128.239 117.344 129C117.55 129.542 118.201 129.793 118.717 129.503C120.239 128.665 121.761 127.826 123.282 126.995C123.424 127.304 123.572 127.614 123.714 127.923C123.946 128.413 124.585 128.465 125.01 128.265C128.021 126.859 131.039 125.454 134.05 124.048L133.309 122.314C130.536 123.61 127.757 124.899 124.985 126.195L124.978 126.176Z" fill="#323232"/>
<path d="M87.5469 57.1151V69.8109C87.5469 71.0295 89.4425 71.0295 89.4425 69.8109V57.1151C89.4425 55.8965 87.5469 55.8965 87.5469 57.1151Z" fill="#323232"/>
<path d="M53.7627 69.3964C53.1695 68.7388 52.6601 67.2171 51.5382 67.7781C51.132 68.0166 50.8999 68.655 51.1965 69.0741C53.3758 72.0723 55.5488 75.0705 57.7281 78.0687C58.3213 78.7329 58.8307 80.2481 59.9526 79.6871C60.3588 79.4486 60.5909 78.8102 60.2943 78.3911C58.115 75.3929 55.9421 72.3947 53.7627 69.3964Z" fill="#323232"/>
<path d="M125.719 68.8683C125.242 68.591 124.726 68.7909 124.423 69.21C121.934 72.6338 119.452 76.0576 116.963 79.4814C116.37 80.5646 117.885 81.4866 118.594 80.4356C120.774 77.4374 122.946 74.4392 125.126 71.441C125.435 71.0154 125.745 70.5898 126.054 70.1643C126.357 69.7516 126.125 69.1068 125.713 68.8683H125.719Z" fill="#323232"/>
<path d="M137.867 54.3929H136.371C136.319 53.5354 136.693 51.9944 135.423 51.9492C134.153 52.0266 134.527 53.516 134.475 54.3929C133.617 54.4445 132.076 54.0705 132.031 55.3408C132.109 56.611 133.598 56.237 134.475 56.2886C134.527 57.1462 134.153 58.6872 135.423 58.7323C136.693 58.6549 136.319 57.1655 136.371 56.2886C137.228 56.237 138.769 56.611 138.814 55.3408C138.789 54.8249 138.402 54.3929 137.867 54.3929Z" fill="#323232"/>
<path d="M159.633 69.7213C158.968 69.3602 158.304 68.9992 157.647 68.6316C157.176 67.9224 156.86 66.8649 156.241 66.3233C156.073 66.2137 155.854 66.175 155.654 66.1879C155.558 66.1944 155.454 66.2202 155.364 66.2589C155.345 66.2653 155.325 66.2782 155.306 66.2846C155.293 66.2911 155.28 66.2975 155.267 66.304C155.261 66.304 155.254 66.3169 155.248 66.3169C155.151 66.3749 155.061 66.4523 154.99 66.549C154.577 67.226 154.229 67.9417 153.836 68.6316C153.172 68.9927 152.508 69.3538 151.85 69.7213C151.237 70.0566 151.237 71.0173 151.85 71.3526C152.514 71.7137 153.178 72.0748 153.836 72.4423C154.197 73.1064 154.558 73.7705 154.926 74.4282C155.261 75.0408 156.222 75.0408 156.557 74.4282C156.918 73.7641 157.279 73.1 157.647 72.4423C158.311 72.0812 158.975 71.7201 159.633 71.3526C160.245 71.0173 160.245 70.0566 159.633 69.7213ZM156.273 71.0754C156.048 71.301 155.886 71.6363 155.738 71.9523C155.467 71.2624 155.016 70.811 154.326 70.5402C155.016 70.2694 155.467 69.818 155.738 69.1281C156.009 69.818 156.46 70.2694 157.15 70.5402C156.834 70.6885 156.505 70.8497 156.273 71.0754Z" fill="#323232"/>
<path d="M45.554 47.2621H44.0581C44.0065 46.4045 44.3805 44.8635 43.1103 44.8184C41.8401 44.8957 42.2141 46.3852 42.1625 47.2621C41.3049 47.3137 39.7639 46.9397 39.7188 48.2099C39.7961 49.4801 41.2856 49.1061 42.1625 49.1577C42.2141 50.0153 41.8401 51.5563 43.1103 51.6015C44.3805 51.5241 44.0065 50.0346 44.0581 49.1577C44.9157 49.1061 46.4567 49.4801 46.5018 48.2099C46.476 47.6941 46.0892 47.2621 45.554 47.2621Z" fill="#323232"/>
<path d="M27.9294 73.0211C27.2653 72.66 26.6012 72.2989 25.9435 71.9314C25.4728 71.2222 25.1569 70.1647 24.5379 69.6231C24.4669 69.5715 24.3767 69.5457 24.2928 69.5135C24.0478 69.449 23.7899 69.4877 23.5642 69.6038C23.4611 69.6747 23.3644 69.7456 23.287 69.8488C23.287 69.8488 23.287 69.8552 23.2805 69.8617C22.8743 70.5387 22.5197 71.2479 22.1328 71.9314C21.4687 72.2925 20.8046 72.6536 20.1469 73.0211C19.5344 73.3564 19.5344 74.3171 20.1469 74.6524C20.811 75.0135 21.4752 75.3745 22.1328 75.7421C22.4939 76.4062 22.855 77.0703 23.2225 77.728C23.5578 78.3405 24.5185 78.3405 24.8538 77.728C25.2149 77.0639 25.576 76.3997 25.9435 75.7421C26.6076 75.381 27.2717 75.0199 27.9294 74.6524C28.5419 74.3171 28.5419 73.3564 27.9294 73.0211ZM24.5765 74.3816C24.3509 74.6072 24.1897 74.9425 24.0414 75.2585C23.7706 74.5686 23.3192 74.1172 22.6293 73.8464C23.3192 73.5756 23.7706 73.1243 24.0414 72.4343C24.3122 73.1243 24.7635 73.5756 25.4534 73.8464C25.1375 73.9947 24.8087 74.1559 24.5765 74.3816Z" fill="#323232"/>
</g>
</svg>
