<svg width="180" height="180" viewBox="0 0 180 180" fill="none" xmlns="http://www.w3.org/2000/svg">
<circle cx="90" cy="90" r="90" fill="#96D2E6"/>
<circle cx="89.9982" cy="90.0002" r="79.6154" fill="white"/>
<mask id="mask0_709_11189" style="mask-type:alpha" maskUnits="userSpaceOnUse" x="10" y="10" width="160" height="160">
<circle cx="89.9982" cy="90.0002" r="79.6154" fill="white"/>
</mask>
<g mask="url(#mask0_709_11189)">
<path d="M146.888 42.8262H32.0488C30.8871 42.8262 29.9453 43.7679 29.9453 44.9296V122.459C29.9453 123.62 30.8871 124.562 32.0488 124.562H75.3254V133.712C75.3254 139.029 69.8789 140.401 69.8789 140.401H64.5314V143H114.407V140.401H109.059C109.059 140.401 103.613 139.029 103.613 133.712V124.562H146.889C148.051 124.562 148.993 123.62 148.993 122.459V44.9296C148.993 43.7679 148.051 42.8262 146.889 42.8262H146.888Z" fill="white"/>
<path d="M146.037 45.6016H32.8906V109.637H146.037V45.6016Z" fill="white"/>
<path d="M63.3725 83.3765L63.4074 87.6388C63.2348 87.6228 63.1387 87.6111 63.1387 87.6111C63.1387 87.6111 62.8022 88.5951 62.8233 90.7437C62.8269 90.7437 62.8306 90.7452 62.8349 90.7452C62.4628 90.692 62.0913 90.6308 61.7213 90.5594C61.7213 90.5594 60.6856 101.919 60.9748 109.858H119.033C118.729 98.2194 117.13 85.0641 117.13 85.0641C114.89 80.2017 102.795 76.5439 99.8937 75.5031C99.9389 75.3152 99.2543 73.1535 99.2543 73.1535L98.5456 73.5082L98.5441 69.7696C100.325 68.5613 101.701 65.972 102.082 64.0572C108.404 63.3806 106.6 54.6922 103.232 57.7279L103.224 57.7804C101.366 55.4897 100.801 52.0221 100.801 52.0221C89.863 51.7096 85.9635 46.8574 85.9635 46.8574C85.9635 46.8574 85.9635 51.4737 81.2875 57.7811L81.2824 57.7345C77.8978 54.7825 76.2204 63.0332 82.1127 64.0572H82.4252C82.8068 65.9728 84.1819 68.5606 85.9627 69.7696L85.9613 73.5082L85.2526 73.1535C85.2526 73.1535 84.5192 75.3749 84.5556 75.5199C82.2431 76.3342 74.7164 78.6896 70.3238 81.8805C70.9531 80.5542 72.1111 78.0749 72.366 77.2665C72.7207 76.1441 71.8933 73.0727 71.2145 72.8367C70.7579 72.6779 69.4359 72.27 68.3776 71.9182L68.417 71.6495C68.4315 73.2518 68.4111 61.8132 67.0076 61.8132C65.0389 61.8132 65.835 70.6254 65.835 70.6254L65.7039 70.8002C64.7243 70.0282 63.4744 71.5038 63.422 71.7318C61.8342 71.4783 61.3513 73.222 61.4547 73.3298L61.6667 73.6335C60.9085 73.8505 60.1663 74.3232 59.9777 74.9642C59.682 75.9685 61.4613 82.6533 63.371 83.3772L63.3725 83.3765Z" fill="white"/>
<path d="M95.6942 93.727C95.6942 93.727 94.1989 86.4567 93.185 84.4873C93.9629 83.8573 94.6534 81.429 94.6534 81.429L94.6876 81.3467L92.2338 78.2949L89.7917 81.3321L89.8142 81.4282C89.8142 81.4282 90.5054 83.8565 91.2826 84.4866C90.2687 86.4553 88.7734 93.7263 88.7734 93.7263C88.7734 93.7263 91.7385 106.707 92.1835 107.631H92.284C92.7313 106.703 95.6942 93.7263 95.6942 93.7263V93.727Z" fill="#0DACCB"/>
<path d="M80.031 57.107C80.4097 57.1442 80.8329 57.3386 81.2874 57.7341L81.2925 57.7807C82.3886 56.3022 83.2277 54.9169 83.8701 53.6627C83.9131 53.5789 83.9546 53.4959 83.9961 53.4136C84.5307 52.3415 84.9196 51.3691 85.2037 50.5214C85.5314 49.5432 85.7186 48.7304 85.8257 48.1215C85.8403 48.0399 85.8526 47.9627 85.8643 47.8884C85.876 47.8148 85.8862 47.7442 85.8956 47.6779C85.9182 47.5118 85.9342 47.3698 85.9451 47.2526C85.9692 46.9947 85.9692 46.8585 85.9692 46.8585C85.9692 46.8585 89.8687 51.7115 100.806 52.0232C100.806 52.0232 101.371 55.4916 103.229 57.7815L103.237 57.729C103.714 57.3 104.159 57.1048 104.554 57.0888L104.538 56.8368C105.436 51.0021 104.683 46.2664 102.969 43.251C101.424 40.5336 99.2716 38.5139 92.5607 38.0412C86.5111 37.6151 84.4557 40.7987 84.4557 40.7987C84.4557 40.7987 82.9065 40.6144 81.1344 43.3909C79.3624 46.1673 78.8001 51.3473 79.9844 56.8368L80.0325 57.1078L80.031 57.107Z" fill="#595757"/>
<path d="M62.8571 90.5604C62.7391 87.8984 63.1521 87.6114 63.1521 87.6114C63.1521 87.6114 67.5098 88.1147 70.4763 87.3164C70.4763 87.3164 70.831 88.0841 70.89 90.1518" stroke="#333333" stroke-width="1.35364" stroke-linecap="round" stroke-linejoin="round"/>
<path d="M73.1618 108.102C73.0897 100.254 72.1902 90.1523 72.1902 90.1523C65.8697 91.7474 61.7349 90.5617 61.7349 90.5617C61.7349 90.5617 60.8412 100.652 60.9461 108.423" stroke="#333333" stroke-width="1.35364" stroke-linecap="round" stroke-linejoin="round"/>
<path d="M91.5625 63.0847C91.9893 63.3258 92.4802 63.3258 92.9201 63.084" stroke="#333333" stroke-width="1.1737" stroke-linecap="round" stroke-linejoin="round"/>
<path d="M85.6328 53.8116C85.6328 53.8116 87.2279 53.339 88.9999 53.8116" stroke="#333333" stroke-width="1.1737" stroke-linecap="round" stroke-linejoin="round"/>
<path d="M98.8437 53.8116C98.8437 53.8116 97.2486 53.339 95.4766 53.8116" stroke="#333333" stroke-width="1.1737" stroke-linecap="round" stroke-linejoin="round"/>
<path d="M87.7568 58.6426C88.2395 58.6426 88.6308 58.2512 88.6308 57.7685C88.6308 57.2858 88.2395 56.8945 87.7568 56.8945C87.2741 56.8945 86.8828 57.2858 86.8828 57.7685C86.8828 58.2512 87.2741 58.6426 87.7568 58.6426Z" fill="#333333"/>
<path d="M96.7178 58.6426C97.2005 58.6426 97.5918 58.2512 97.5918 57.7685C97.5918 57.2858 97.2005 56.8945 96.7178 56.8945C96.2351 56.8945 95.8438 57.2858 95.8438 57.7685C95.8438 58.2512 96.2351 58.6426 96.7178 58.6426Z" fill="#333333"/>
<path d="M65.8467 70.6247C65.8467 70.6247 65.0506 61.8125 67.0193 61.8125C68.4228 61.8125 68.4439 73.2511 68.4286 71.6488" stroke="#333333" stroke-width="1.35364" stroke-linecap="round" stroke-linejoin="round"/>
<path d="M63.4405 87.6389L63.3866 83.3751C61.4769 82.6519 59.6976 75.9664 59.9933 74.9621C60.2883 73.9577 61.9423 73.367 62.8877 73.5228C63.8331 73.6787 66.3138 80.2192 64.6598 79.8055C63.0057 79.3918 62.179 76.6729 62.179 76.6729" stroke="#333333" stroke-width="1.35364" stroke-linecap="round" stroke-linejoin="round"/>
<path d="M67.6704 80.4562C67.4934 76.6171 69.5305 76.0854 69.5305 76.0854L68.9894 74.786C64.5195 73.2499 66.4518 71.1822 67.1605 71.4801C67.9493 71.8115 70.548 72.601 71.2268 72.837C71.9064 73.073 72.7331 76.1451 72.3784 77.2668C72.0237 78.3884 69.926 82.7388 69.926 82.7388L70.071 87.4148" stroke="#333333" stroke-width="1.35364" stroke-linecap="round" stroke-linejoin="round"/>
<path d="M61.4688 73.3276C61.4688 73.3276 61.4688 71.8709 63.0835 71.7129C64.6982 71.5556 65.7288 74.627 65.7288 74.627C65.7288 74.627 67.4616 80.1005 65.2132 78.6831" stroke="#333333" stroke-width="1.35364" stroke-linecap="round" stroke-linejoin="round"/>
<path d="M67.354 74.1387C67.4465 74.4242 67.5281 74.7075 67.5958 74.9799C67.7976 75.7957 67.8653 76.5102 67.6854 76.8802C67.0947 78.0936 66.3125 76.9697 66.3125 76.9697" stroke="#333333" stroke-width="1.35364" stroke-linecap="round" stroke-linejoin="round"/>
<path d="M63.5938 71.4384C63.5938 71.4384 64.9077 70.0211 65.7271 70.8084C65.931 71.0044 66.1888 71.0619 66.4525 71.579" stroke="#333333" stroke-width="1.35364" stroke-linecap="round" stroke-linejoin="round"/>
<path d="M89.7664 65.1465H94.5508C94.5508 65.1465 94.3921 67.6279 92.1582 67.6279C89.9244 67.6279 89.7656 65.1465 89.7656 65.1465H89.7664Z" stroke="#333333" stroke-width="1.1737" stroke-linecap="round" stroke-linejoin="round"/>
<path d="M82.1195 64.0998C79.6978 63.5681 79.0481 62.3277 78.5164 61.3823C77.9847 60.4369 78.0437 58.0742 79.2251 57.3655C80.4065 56.6569 81.2921 57.7792 81.2921 57.7792" stroke="#333333" stroke-width="1.35364" stroke-linecap="round" stroke-linejoin="round"/>
<path d="M85.9688 73.5519V70.0938" stroke="#333333" stroke-width="1.35364" stroke-linecap="round" stroke-linejoin="round"/>
<path d="M85.2588 73.1973L84.5501 75.678C84.5501 75.678 78.7001 77.3932 73.7969 79.823" stroke="#333333" stroke-width="1.35364" stroke-linecap="round" stroke-linejoin="round"/>
<path d="M102.4 62.0332C102.4 62.0332 102.459 64.8686 100.273 67.8811C98.0877 70.8935 96.0797 71.9569 92.1809 71.9569H92.3367C88.4379 71.9569 86.4299 70.8935 84.2441 67.8811C82.0583 64.8686 82.1173 62.0332 82.1173 62.0332" stroke="#333333" stroke-width="1.35364" stroke-linecap="round" stroke-linejoin="round"/>
<path d="M102.398 64.0998C104.82 63.5681 105.47 62.3277 106.002 61.3823C106.533 60.4369 106.474 58.0742 105.293 57.3655C104.111 56.6569 103.226 57.7792 103.226 57.7792" stroke="#333333" stroke-width="1.35364" stroke-linecap="round" stroke-linejoin="round"/>
<path d="M103.225 57.7804C101.367 55.4897 100.802 52.0221 100.802 52.0221C89.8646 51.7096 85.965 46.8574 85.965 46.8574C85.965 46.8574 85.965 51.4737 81.2891 57.7811" stroke="#333333" stroke-width="1.1737" stroke-linecap="round" stroke-linejoin="round"/>
<path d="M104.538 56.8349C105.436 51.0001 104.683 46.2644 102.969 43.2491C101.424 40.5316 99.2716 38.5119 92.5607 38.0392C86.5111 37.6132 84.4557 40.7968 84.4557 40.7968C84.4557 40.7968 82.9065 40.6125 81.1344 43.3889C79.3624 46.1654 78.8001 51.3453 79.9844 56.8349" stroke="#333333" stroke-width="1.35364" stroke-linecap="round" stroke-linejoin="round"/>
<path d="M98.5469 73.5519V70.0938" stroke="#333333" stroke-width="1.35364" stroke-linecap="round" stroke-linejoin="round"/>
<path d="M99.2578 73.1973L99.9665 75.678C99.9665 75.678 111.081 78.9366 115.511 82.8347" stroke="#333333" stroke-width="1.35364" stroke-linecap="round" stroke-linejoin="round"/>
<path d="M86.772 85.1384L92.3366 78.2177L85.2578 73.1973" stroke="#333333" stroke-width="1.1737" stroke-linecap="round" stroke-linejoin="round"/>
<path d="M117.125 85.1387C117.125 85.1387 118.567 96.9582 118.973 108.1" stroke="#333333" stroke-width="1.35364" stroke-linecap="round" stroke-linejoin="round"/>
<path d="M115.872 84.5078C115.872 84.5078 115.163 88.8298 112.406 93.0039" stroke="#333333" stroke-width="1.1737" stroke-linecap="round" stroke-linejoin="round"/>
<path d="M111.766 94.5801V108.1" stroke="#333333" stroke-width="1.1737" stroke-linecap="round" stroke-linejoin="round"/>
<path d="M97.745 85.1384L92.1797 78.2177L99.2584 73.1973" stroke="#333333" stroke-width="1.1737" stroke-linecap="round" stroke-linejoin="round"/>
<path d="M85.3047 103.578C85.8524 105.192 86.403 106.746 86.9209 108.1" stroke="#333333" stroke-width="1.1737" stroke-linecap="round" stroke-linejoin="round"/>
<path d="M80.6719 83.9473L83.2218 85.2073L82.6916 86.5525" stroke="#333333" stroke-width="1.1737" stroke-linecap="round" stroke-linejoin="round"/>
<path d="M84.5469 75.6777C84.5469 75.6777 91.1821 105.973 92.2061 108.1" stroke="#333333" stroke-width="1.1737" stroke-linecap="round" stroke-linejoin="round"/>
<path d="M88.7109 93.726C89.153 91.9226 90.6578 85.7724 91.3097 84.5059" stroke="#333333" stroke-width="1.1737" stroke-linecap="round" stroke-linejoin="round"/>
<path d="M100.896 98.0762C99.7937 101.413 98.4878 105.212 97.3516 108.099" stroke="#333333" stroke-width="1.1737" stroke-linecap="round" stroke-linejoin="round"/>
<path d="M103.846 83.9473L101.297 85.2073L102.4 88.0063" stroke="#333333" stroke-width="1.1737" stroke-linecap="round" stroke-linejoin="round"/>
<path d="M99.9707 75.6777C99.9707 75.6777 93.2343 105.973 92.2109 108.1" stroke="#333333" stroke-width="1.1737" stroke-linecap="round" stroke-linejoin="round"/>
<path d="M94.675 81.4492C94.675 81.4492 93.9838 83.8775 93.2067 84.5075H91.9561H92.5548H91.3043C90.5264 83.8775 89.8359 81.4492 89.8359 81.4492" stroke="#333333" stroke-width="1.1737" stroke-linecap="round" stroke-linejoin="round"/>
<path d="M95.8097 93.726C95.3676 91.9226 93.8628 85.7724 93.2109 84.5059" stroke="#333333" stroke-width="1.1737" stroke-linecap="round" stroke-linejoin="round"/>
<path d="M102.297 99.8887H110.153" stroke="#333333" stroke-width="1.1737" stroke-linecap="round" stroke-linejoin="round"/>
<path d="M107.803 104.319V98.628C107.803 97.762 106.562 97.762 106.562 98.628V99.5931H107.183V98.4314" stroke="#333333" stroke-width="1.1737" stroke-linecap="round" stroke-linejoin="round"/>
<path d="M80.3203 87.215C80.5337 74.4618 84.1987 75.3736 84.1987 75.3736" stroke="#333333" stroke-width="2.25641" stroke-linecap="round" stroke-linejoin="round"/>
<path d="M100.266 75.3034C100.266 75.3034 103.931 74.3907 104.144 87.1498V92.1943" stroke="#333333" stroke-width="2.25641" stroke-linecap="round" stroke-linejoin="round"/>
<path d="M81.6536 101.848H83.4257C83.4257 101.848 85.1096 87.2188 80.2363 87.2188C75.3629 87.2188 77.0468 101.848 77.0468 101.848H78.8189" stroke="#333333" stroke-width="2.25641" stroke-linecap="round" stroke-linejoin="round"/>
<path d="M105.671 96.3806C106.599 95.4531 106.599 93.9493 105.671 93.0217C104.744 92.0942 103.24 92.0942 102.312 93.0217C101.385 93.9492 101.385 95.4531 102.312 96.3806C103.24 97.3082 104.744 97.3082 105.671 96.3806Z" stroke="#333333" stroke-width="2.25641" stroke-linecap="round" stroke-linejoin="round"/>
<path d="M79.1719 102.426V101.273" stroke="#333333" stroke-width="2.25641" stroke-linecap="round" stroke-linejoin="round"/>
<path d="M81.2969 102.426V101.273" stroke="#333333" stroke-width="2.25641" stroke-linecap="round" stroke-linejoin="round"/>
<path d="M64.7363 59.4112L60.5469 55.2647L63.0771 53.5742L64.7363 59.4112Z" fill="#333333"/>
<path d="M66.818 58.2599L65.4844 52.5183L68.5267 52.4375L66.818 58.2599Z" fill="#333333"/>
<path d="M68.9766 59.1702L70.4952 53.4746L73.2192 54.8315L68.9766 59.1702Z" fill="#333333"/>
<path d="M84.5164 57.0234C84.5164 57.0234 84.2862 59.6054 84.5164 60.148C84.7465 60.6906 89.8711 60.7511 90.4137 60.3891C90.9564 60.0271 90.7153 57.703 90.7153 57.703" stroke="#333333" stroke-width="1.31744" stroke-linecap="round" stroke-linejoin="round"/>
<path d="M80.9531 57.7012L84.3873 58.2773" stroke="#333333" stroke-width="1.31744" stroke-linecap="round" stroke-linejoin="round"/>
<path d="M99.7523 57.0234C99.7523 57.0234 99.9824 59.6054 99.7523 60.148C99.5221 60.6906 94.3975 60.7511 93.8549 60.3891C93.3123 60.0271 93.5534 57.703 93.5534 57.703" stroke="#333333" stroke-width="1.31744" stroke-linecap="round" stroke-linejoin="round"/>
<path d="M103.308 57.7012L99.875 58.2773" stroke="#333333" stroke-width="1.31744" stroke-linecap="round" stroke-linejoin="round"/>
<path d="M93.5062 58.5938H90.7734" stroke="#333333" stroke-width="1.31744" stroke-linecap="round" stroke-linejoin="round"/>
<path d="M29.9453 112.414H148.992" stroke="#333333" stroke-width="1.35364" stroke-linecap="round" stroke-linejoin="round"/>
<path d="M114.407 140.4H64.5312V142.999H114.407V140.4Z" stroke="#333333" stroke-width="1.35364" stroke-linecap="round" stroke-linejoin="round"/>
<path d="M103.608 133.713V124.562H75.3215V133.713C75.3215 139.03 69.875 140.402 69.875 140.402H109.055C109.055 140.402 103.608 139.03 103.608 133.713Z" stroke="#333333" stroke-width="1.35364" stroke-linecap="round" stroke-linejoin="round"/>
<path d="M78.1906 45.6016H32.8906V109.637H146.037V45.6016H105.842" stroke="#333333" stroke-width="1.35364" stroke-linecap="round" stroke-linejoin="round"/>
<path d="M79.3583 42.8262H32.0488C30.8871 42.8262 29.9453 43.7679 29.9453 44.9296V122.459C29.9453 123.62 30.8871 124.562 32.0488 124.562H146.888C148.05 124.562 148.991 123.62 148.991 122.459V44.9296C148.991 43.7679 148.05 42.8262 146.888 42.8262H104.919" stroke="#333333" stroke-width="1.35364" stroke-linecap="round" stroke-linejoin="round"/>
</g>
</svg>
