<svg width="180" height="180" viewBox="0 0 180 180" fill="none" xmlns="http://www.w3.org/2000/svg">
<circle cx="90" cy="90" r="90" fill="#96D2E6"/>
<circle cx="89.9982" cy="90.0002" r="79.6154" fill="white"/>
<mask id="mask0_709_11137" style="mask-type:alpha" maskUnits="userSpaceOnUse" x="10" y="10" width="160" height="160">
<circle cx="89.9982" cy="90.0002" r="79.6154" fill="white"/>
</mask>
<g mask="url(#mask0_709_11137)">
<path d="M140.316 169.999C141.034 150.956 138.251 124.327 137.181 114.996C136.929 112.789 136.128 110.679 134.853 108.859C134.007 107.655 132.973 106.592 131.78 105.73C126.333 101.8 117.624 98.022 111.287 95.5456L109.681 95.4277C96.1428 109.027 83.1604 107.294 70.7671 95.4277L69.0838 95.5362C62.7394 98.0332 54.0719 101.819 48.6534 105.73C47.4601 106.59 46.4257 107.653 45.5803 108.859C44.3047 110.679 43.5042 112.789 43.2517 114.996C42.1818 124.327 39.3987 150.956 40.1169 169.999H140.316Z" fill="#0DACCB"/>
<path d="M96.5763 132.441L96.3967 132.39C97.1 132.066 97.5508 131.754 97.633 131.466C98.125 129.74 97.0757 128.902 95.7496 128.977C95.6055 128.984 95.3063 129.036 94.8892 129.121V114.337C94.8892 113.258 94.0063 112.373 92.9253 112.373H80.1991C79.118 112.373 78.2351 113.258 78.2351 114.337V125.197C76.0412 126.135 73.215 127.671 71.6121 129.824C68.7279 133.699 62.7071 140.981 62.7071 140.981C62.7071 140.981 62.6884 141.039 62.6603 141.144C62.3966 142.139 61.2182 147.451 65.2527 150.106C69.7155 153.045 73.4731 150.883 73.4731 150.883L75.0648 148.144C75.0648 148.144 79.1778 146.777 81.6093 145.468H92.9253C94.0063 145.468 94.8892 144.583 94.8892 143.504V136.797L95.4858 136.641C95.4858 136.641 97.7584 135.977 97.7584 134.06C97.7584 132.409 96.5781 132.439 96.5781 132.439L96.5763 132.441Z" fill="white"/>
<path d="M67.4753 57.8435C68.143 57.9501 68.8799 58.3148 69.6655 59.0012C69.6692 59.0012 69.6749 59.0012 69.6786 59.0012C69.3139 44.9452 72.9873 41.1483 72.9873 41.1483L74.9045 43.8753L77.1172 35.4697C77.1172 35.4697 80.1921 43.8753 91.4875 44.7525L90.5878 41.5205C90.5878 41.5205 99.85 47.9229 109.679 46.7501C109.679 46.7501 110.515 50.403 110.747 58.9919C111.549 58.2662 112.305 57.8977 112.988 57.8079L113.201 57.3067C117.071 48.57 115.305 37.516 112.096 31.8711C109.202 26.7836 103.34 21.9542 90.7767 21.0695C79.4496 20.2728 74.3265 26.7836 74.3265 26.7836C74.3265 26.7836 71.6537 26.6733 68.3375 31.8711C65.0194 37.0689 63.3604 48.57 67.2321 57.3067L67.479 57.8453L67.4753 57.8435Z" fill="#595757"/>
<path d="M77.1916 92.5297L77.0924 92.5839C77.0924 92.5839 74.4383 93.4723 70.6246 94.9387L70.7668 95.4288C83.16 107.295 96.1425 109.028 109.68 95.4288L109.819 94.9799C106.031 93.5341 103.398 92.6606 103.398 92.6606C101.814 91.7534 100.942 90.418 100.744 88.6785V82.8578H100.673V82.7082H100.669C103.972 80.4675 107.814 74.5327 108.581 70.9359C108.594 70.8742 108.644 70.8293 108.706 70.8218C118.928 69.6434 117.658 57.1885 112.987 57.8057C112.944 57.8113 112.901 57.8188 112.858 57.8263C112.815 57.8337 112.772 57.8431 112.729 57.8524C112.686 57.8618 112.643 57.873 112.598 57.8861C112.598 57.8861 112.598 57.8861 112.596 57.8861C112.553 57.8973 112.51 57.9104 112.465 57.9254C112.465 57.9254 112.464 57.9254 112.462 57.9254C112.419 57.9404 112.376 57.9553 112.331 57.9703C112.331 57.9703 112.327 57.9703 112.325 57.9722C112.282 57.989 112.239 58.0058 112.194 58.0245C112.192 58.0245 112.189 58.0264 112.187 58.0283C112.144 58.047 112.101 58.0657 112.058 58.0862C112.054 58.0862 112.052 58.09 112.048 58.09C112.005 58.1106 111.962 58.1311 111.919 58.1536C111.916 58.1555 111.912 58.1573 111.908 58.1592C111.865 58.1816 111.822 58.2041 111.779 58.2284C111.775 58.2303 111.772 58.2321 111.766 58.2359C111.723 58.2602 111.68 58.2864 111.637 58.3126C111.633 58.3144 111.627 58.3182 111.624 58.32C111.581 58.3462 111.538 58.3743 111.495 58.4023C111.489 58.4061 111.485 58.408 111.48 58.4117C111.437 58.4398 111.394 58.4697 111.351 58.5015C111.345 58.5052 111.341 58.509 111.336 58.5127C111.293 58.5445 111.248 58.5763 111.203 58.61C111.199 58.6137 111.194 58.6174 111.19 58.6193C111.145 58.653 111.098 58.6904 111.053 58.7259C111.05 58.7278 111.046 58.7315 111.044 58.7334C110.997 58.7708 110.949 58.812 110.902 58.8512C110.9 58.8512 110.898 58.855 110.896 58.8569C110.846 58.8999 110.797 58.9429 110.747 58.9878C110.747 58.9878 110.739 58.9953 110.735 58.999C110.735 58.8793 110.735 58.7633 110.737 58.6474C110.52 51.22 109.851 47.5858 109.707 46.8769C109.692 46.8021 109.622 46.7535 109.548 46.7629C100.848 47.7429 92.6261 42.8313 90.9128 41.7333C90.7987 41.6604 90.6566 41.767 90.6921 41.8961L91.4291 44.5464C91.4571 44.6456 91.3767 44.7428 91.2738 44.7335C81.602 43.8937 78.0445 37.5081 77.2814 35.8566C77.2234 35.7312 77.0419 35.7481 77.0064 35.8827L74.9845 43.5682C74.9527 43.6898 74.7937 43.7178 74.7226 43.615L73.0973 41.3013C73.0412 41.2209 72.9215 41.2171 72.8616 41.2957C72.2182 42.1205 69.3565 46.5085 69.68 58.9971C69.6763 58.9971 69.6707 58.9971 69.667 58.9971C69.6183 58.9541 69.5678 58.913 69.5192 58.8718C69.4968 58.8531 69.4762 58.8363 69.4537 58.8194C69.4275 58.797 69.3995 58.7746 69.3733 58.754C69.3452 58.7315 69.3191 58.7128 69.291 58.6923C69.2704 58.6773 69.2499 58.6605 69.2293 58.6455C69.1975 58.6212 69.1657 58.5987 69.1339 58.5763C69.1189 58.5651 69.1021 58.5539 69.0871 58.5426C69.0516 58.5183 69.0179 58.4959 68.9843 58.4734C68.9712 58.4641 68.9581 58.4566 68.945 58.4472C68.9076 58.4229 68.872 58.4005 68.8365 58.378C68.8253 58.3724 68.8159 58.3649 68.8047 58.3575C68.7654 58.3331 68.7261 58.3107 68.6869 58.2883C68.6794 58.2845 68.6719 58.2789 68.6644 58.2752C68.6233 58.2527 68.584 58.2303 68.5447 58.2097C68.5391 58.206 68.5335 58.2041 68.5279 58.2003C68.4867 58.1779 68.4456 58.1573 68.4026 58.1386C68.3988 58.1386 68.3951 58.1349 68.3913 58.133C68.3483 58.1124 68.3053 58.0937 68.2623 58.075C68.2623 58.075 68.2585 58.075 68.2567 58.0732C68.2137 58.0545 68.1688 58.0357 68.1257 58.0189C68.1257 58.0189 68.1257 58.0189 68.1239 58.0189C68.079 58.0021 68.036 57.9852 67.993 57.9703C67.8171 57.9104 67.6469 57.8674 67.4805 57.8412C62.7689 57.0818 61.5513 69.1403 71.2044 70.8293C71.2138 70.8293 71.2231 70.8312 71.2325 70.8312H71.6851C71.7543 70.8312 71.8123 70.8779 71.8273 70.9471C72.6016 74.5458 76.4378 80.4656 79.7372 82.7063H79.7334V88.4896C79.7334 88.5139 79.7391 88.5382 79.7503 88.5588L79.8251 88.6972C79.5932 90.36 78.729 91.645 77.1916 92.5259V92.5297Z" fill="white"/>
<path d="M71.2302 70.9076C66.6964 69.9126 65.4787 67.5895 64.4837 65.8201C63.4886 64.0507 63.599 59.6272 65.8117 58.2992C68.0243 56.9713 69.6815 59.0736 69.6815 59.0736" stroke="black" stroke-width="1.96392" stroke-linecap="round" stroke-linejoin="round"/>
<path d="M69.6837 59.0751C69.304 44.9554 72.9906 41.1473 72.9906 41.1473L74.9077 43.8743L77.1204 35.4688C77.1204 35.4688 80.1953 43.8743 91.4907 44.7515L90.591 41.5195C90.591 41.5195 99.8532 47.9219 109.682 46.7491C109.682 46.7491 110.524 50.4245 110.752 59.0751" stroke="black" stroke-width="1.70206" stroke-linecap="round" stroke-linejoin="round"/>
<path d="M74.3265 26.7814C74.3265 26.7814 71.6537 26.6711 68.3375 31.8689C65.0194 37.0668 63.3604 48.5678 67.2321 57.3045" stroke="black" stroke-width="1.96392" stroke-linecap="round" stroke-linejoin="round"/>
<path d="M88.9453 69.0273C89.7608 69.4987 90.6567 69.4744 91.4891 69.0273" stroke="black" stroke-width="1.70206" stroke-linecap="round" stroke-linejoin="round"/>
<path d="M85.7344 73.5625C85.7344 73.5625 90.0475 74.8905 94.6917 73.5625" stroke="black" stroke-width="1.70206" stroke-linecap="round" stroke-linejoin="round"/>
<path d="M71.2269 67.0391C71.2269 67.0391 71.1165 72.3473 75.2089 77.9884C79.3014 83.6276 83.0609 85.6196 90.3592 85.6196" stroke="black" stroke-width="1.96392" stroke-linecap="round" stroke-linejoin="round"/>
<path d="M109.203 67.0391C109.203 67.0391 109.313 72.3473 105.221 77.9884C101.128 83.6276 97.3686 85.6196 90.0703 85.6196" stroke="black" stroke-width="1.96392" stroke-linecap="round" stroke-linejoin="round"/>
<path d="M109.203 70.9076C113.737 69.9126 114.955 67.5895 115.95 65.8201C116.945 64.0507 116.834 59.6272 114.622 58.2992C112.409 56.9713 110.752 59.0736 110.752 59.0736" stroke="black" stroke-width="1.96392" stroke-linecap="round" stroke-linejoin="round"/>
<path d="M74.3281 26.7817C74.3281 26.7817 79.4512 20.2708 90.7783 21.0676C103.344 21.9523 109.205 26.7817 112.097 31.8691C115.307 37.514 117.074 48.5681 113.203 57.3047" stroke="black" stroke-width="1.96392" stroke-linecap="round" stroke-linejoin="round"/>
<path d="M77.8516 51.6647C77.8516 51.6647 80.8367 50.78 84.1548 51.6647" stroke="black" stroke-width="1.70206" stroke-linecap="round" stroke-linejoin="round"/>
<path d="M102.584 51.6647C102.584 51.6647 99.5993 50.78 96.2812 51.6647" stroke="black" stroke-width="1.70206" stroke-linecap="round" stroke-linejoin="round"/>
<path d="M126.75 127.975V169.969" stroke="black" stroke-width="1.70206" stroke-linecap="round" stroke-linejoin="round"/>
<path d="M81.8319 60.7107C82.7358 60.7107 83.4685 59.978 83.4685 59.0741C83.4685 58.1702 82.7358 57.4375 81.8319 57.4375C80.928 57.4375 80.1953 58.1702 80.1953 59.0741C80.1953 59.978 80.928 60.7107 81.8319 60.7107Z" fill="black"/>
<path d="M98.6053 60.7107C99.5092 60.7107 100.242 59.978 100.242 59.0741C100.242 58.1702 99.5092 57.4375 98.6053 57.4375C97.7015 57.4375 96.9688 58.1702 96.9688 59.0741C96.9688 59.978 97.7015 60.7107 98.6053 60.7107Z" fill="black"/>
<path d="M79.8442 82.8535V88.547C79.6459 90.2846 78.7743 91.6201 77.1901 92.5291L77.0909 92.5833C77.0909 92.5833 58.0185 98.9726 48.6534 105.73C47.4601 106.591 46.4257 107.653 45.5803 108.86C44.3047 110.679 43.5042 112.789 43.2517 114.996C42.1818 124.328 39.3987 150.957 40.1169 169.999" stroke="black" stroke-width="1.96392" stroke-linecap="round" stroke-linejoin="round"/>
<path d="M100.742 82.8574V88.6781C100.94 90.4157 101.812 91.7512 103.396 92.6602C103.396 92.6602 122.413 98.9728 131.778 105.731C132.971 106.591 134.005 107.653 134.851 108.86C136.126 110.68 136.927 112.789 137.179 114.996C138.249 124.328 141.032 150.957 140.314 169.999" stroke="black" stroke-width="1.96392" stroke-linecap="round" stroke-linejoin="round"/>
<path d="M69.4609 98.9121C83.4066 112.164 97.2756 112.312 111.066 98.9121" stroke="black" stroke-width="1.70206" stroke-linecap="round" stroke-linejoin="round"/>
<path d="M70.7656 95.4297C83.1589 107.296 96.1413 109.029 109.679 95.4297" stroke="black" stroke-width="1.70206" stroke-linecap="round" stroke-linejoin="round"/>
<path d="M53.6797 127.543L57.0558 141.133" stroke="black" stroke-width="1.70206" stroke-linecap="round" stroke-linejoin="round"/>
<path d="M75.0622 148.145L74.1719 149.676L75.0622 148.145Z" fill="white"/>
<path d="M75.0625 148.145C75.0625 148.145 81.0496 146.155 82.849 144.679C82.849 144.679 96.4318 140.927 94.7428 137.863" stroke="black" stroke-width="1.70206" stroke-linecap="round" stroke-linejoin="round"/>
<path d="M81.8438 140.183L95.4827 136.644C95.4827 136.644 97.7552 135.98 97.7552 134.063C97.7552 132.412 96.575 132.441 96.575 132.441" stroke="black" stroke-width="1.70206" stroke-linecap="round" stroke-linejoin="round"/>
<path d="M81.141 136.251C81.141 136.251 97.1012 133.326 97.6323 131.467C98.1243 129.74 97.075 128.902 95.7489 128.977C94.4209 129.05 79.7812 132.808 79.7812 132.808" stroke="black" stroke-width="1.70206" stroke-linecap="round" stroke-linejoin="round"/>
<path d="M93.6427 128.577C93.6427 128.577 93.5978 127.255 91.8883 126.886C90.1787 126.518 80.3722 129.024 78.2344 129.613" stroke="black" stroke-width="1.70206" stroke-linecap="round" stroke-linejoin="round"/>
<path d="M78.2337 125.195C76.0397 126.134 73.2136 127.67 71.6106 129.823C68.7265 133.698 62.7057 140.98 62.7057 140.98C62.7057 140.98 60.7904 147.167 65.2513 150.107C69.714 153.046 73.4717 150.883 73.4717 150.883L75.0634 148.145" stroke="black" stroke-width="1.70206" stroke-linecap="round" stroke-linejoin="round"/>
<path d="M69.0156 167.214C73.3138 160.161 75.0626 153.107 75.0626 153.107" stroke="black" stroke-width="1.70206" stroke-linecap="round" stroke-linejoin="round"/>
<path d="M48.7032 155.062C48.6789 154.615 58.4461 142.141 62.5497 141.047" stroke="black" stroke-width="1.70206" stroke-linecap="round" stroke-linejoin="round"/>
<path d="M94.8884 129.119V114.335C94.8884 113.256 94.0056 112.371 92.9245 112.371H80.1983C79.1191 112.371 78.2344 113.256 78.2344 114.335V129.614" stroke="black" stroke-width="1.70206" stroke-linecap="round" stroke-linejoin="round"/>
<path d="M81.6094 145.47H92.9253C94.0045 145.47 94.8892 144.585 94.8892 143.506V136.799" stroke="black" stroke-width="1.70206" stroke-linecap="round" stroke-linejoin="round"/>
<path d="M82.403 117.747C83.1261 117.747 83.7123 117.161 83.7123 116.438C83.7123 115.715 83.1261 115.129 82.403 115.129C81.6799 115.129 81.0938 115.715 81.0938 116.438C81.0938 117.161 81.6799 117.747 82.403 117.747Z" fill="black"/>
</g>
</svg>
