<svg width="180" height="180" viewBox="0 0 180 180" fill="none" xmlns="http://www.w3.org/2000/svg">
<circle cx="90" cy="90" r="90" fill="#96D2E6"/>
<circle cx="89.9982" cy="90.0002" r="79.6154" fill="white"/>
<mask id="mask0_709_11843" style="mask-type:alpha" maskUnits="userSpaceOnUse" x="10" y="10" width="160" height="160">
<circle cx="89.9982" cy="90.0002" r="79.6154" fill="white"/>
</mask>
<g mask="url(#mask0_709_11843)">
<g clip-path="url(#clip0_709_11843)">
<path d="M52.5976 71.4554C51.8242 71.8767 50.851 71.9055 50.0273 71.4419L23.311 56.5091C22.0268 55.788 21.5703 54.1702 22.286 52.8889C23.0017 51.6075 24.6248 51.1481 25.9062 51.8638L52.6171 66.7995C53.8984 67.5152 54.3579 69.1384 53.6421 70.4197C53.3871 70.8721 53.0219 71.2243 52.5976 71.4554Z" fill="#3E3A39"/>
<path d="M46.3966 65.689L45.8176 66.7246C43.9897 69.9941 45.1583 74.1264 48.4278 75.9543L51.3264 77.5749C54.5959 79.4029 58.7282 78.2342 60.5561 74.9647L61.1351 73.9292C62.9631 70.6596 61.7945 66.5273 58.525 64.6994L55.6264 63.0788C52.3569 61.2509 48.2246 62.4195 46.3966 65.689Z" fill="white"/>
<path d="M59.1619 79.9363C56.4069 81.4372 52.9594 81.5394 50.0225 79.894L47.1245 78.2691C44.9302 77.0409 43.343 75.0223 42.6526 72.5917C41.9676 70.1582 42.2638 67.6081 43.4866 65.4167L44.066 64.3837C45.2942 62.1894 47.3045 60.5998 49.7433 59.9118C52.1768 59.2268 54.724 59.5176 56.9183 60.7458L59.8163 62.3707C64.3611 64.9092 65.9898 70.6729 63.4513 75.2177L62.8719 76.2507C61.9734 77.8614 60.6706 79.1005 59.1615 79.9226L59.1619 79.9363ZM50.3248 65.3895C49.6534 65.7552 49.0953 66.3031 48.7142 66.9842L48.1348 68.0172C47.6018 68.9692 47.4714 70.0849 47.7715 71.1472C48.0716 72.2094 48.7623 73.0937 49.7197 73.6238L52.6176 75.2487C54.5996 76.3557 57.1171 75.6459 58.2241 73.6638L58.8036 72.6308C59.9106 70.6488 59.2007 68.1313 57.2187 67.0243L54.3208 65.3994C53.3688 64.8664 52.2531 64.736 51.1908 65.0361C50.8818 65.1209 50.5933 65.2432 50.3248 65.3895Z" fill="#3E3A39"/>
<path d="M136.072 105.926L127.331 121.56L106.039 109.654L115.486 94.4094L136.072 105.926Z" fill="white"/>
<path d="M128.6 123.896C128.429 123.99 128.245 124.062 128.053 124.118C127.375 124.306 126.647 124.222 126.03 123.883L104.738 111.977C104.107 111.625 103.643 111.028 103.459 110.32C103.278 109.618 103.391 108.867 103.775 108.254L113.225 93.0141C113.973 91.8055 115.544 91.4027 116.783 92.0925L137.372 103.601C137.986 103.949 138.444 104.521 138.632 105.199C138.82 105.876 138.736 106.605 138.397 107.221L129.656 122.855C129.408 123.296 129.046 123.653 128.606 123.893L128.6 123.896ZM109.764 108.689L126.308 117.937L132.454 106.949L116.407 97.9733L109.764 108.689Z" fill="#3E3A39"/>
<path d="M113.763 89.6716L101.743 110.637L45.6493 79.2747L57.0011 58.9735L112.796 90.1709L113.763 89.6716Z" fill="white"/>
<path d="M58.9798 64.9506L51.7812 77.8262L103.598 106.797L110.797 93.9211L58.9798 64.9506Z" fill="#12ACDE"/>
<path d="M118.272 82.1248L97.7422 118.846L103.95 122.317L124.481 85.5958L118.272 82.1248Z" fill="white"/>
<path d="M140.363 98.247L123.047 129.219L130.018 133.116L147.334 102.145L140.363 98.247Z" fill="white"/>
<path d="M131.289 135.458C131.117 135.551 130.934 135.624 130.741 135.68C130.064 135.868 129.336 135.784 128.719 135.444L121.748 131.546C120.467 130.831 120.007 129.207 120.723 127.926L138.04 96.9577C138.388 96.3434 138.961 95.8854 139.638 95.6973C140.316 95.5093 141.044 95.5931 141.661 95.9327L148.631 99.8308C149.913 100.546 150.372 102.17 149.657 103.451L132.339 134.419C132.092 134.86 131.73 135.218 131.289 135.458ZM126.669 128.204L128.994 129.507L143.714 103.178L141.388 101.876L126.669 128.204Z" fill="#3E3A39"/>
<path d="M66.2777 80.1578C65.5044 80.5791 64.5311 80.6079 63.7075 80.1442C62.4261 79.4285 61.9667 77.8054 62.6824 76.524L68.3568 66.3707C69.0725 65.0894 70.6957 64.63 71.977 65.3457C73.2584 66.0614 73.7178 67.6845 73.0021 68.9659L67.3277 79.1192C67.0727 79.5715 66.7074 79.9237 66.2831 80.1548L66.2777 80.1578Z" fill="#3E3A39"/>
<path d="M79.1918 87.148C78.4184 87.5693 77.4452 87.5981 76.6215 87.1345C75.3402 86.4188 74.8807 84.7956 75.5964 83.5143L81.2709 73.361C81.9866 72.0796 83.6097 71.6202 84.8911 72.3359C86.1725 73.0516 86.6319 74.6748 85.9162 75.9561L80.2417 86.1094C79.9867 86.5617 79.6214 86.9139 79.1972 87.1451L79.1918 87.148Z" fill="#3E3A39"/>
<path d="M93.1449 94.6929C92.3716 95.1142 91.3983 95.143 90.5746 94.6794C89.2933 93.9637 88.8339 92.3405 89.5496 91.0592L95.224 80.9059C95.9397 79.6245 97.5629 79.1651 98.8442 79.8808C100.126 80.5965 100.585 82.2197 99.8693 83.501L94.1949 93.6543C93.9398 94.1066 93.5746 94.4589 93.1503 94.69L93.1449 94.6929Z" fill="#3E3A39"/>
<path d="M101.856 112.333C101.083 112.754 100.11 112.783 99.2862 112.319L44.343 81.5983C43.7287 81.2505 43.2706 80.6782 43.0826 80.0006C42.8945 79.3231 42.9784 78.5949 43.3179 77.9781L54.6697 57.6769C55.3854 56.3956 57.0086 55.9361 58.2899 56.6519L114.085 87.8492C115.366 88.565 115.825 90.1881 115.11 91.4695C114.394 92.7508 112.771 93.2102 111.489 92.4945L58.0174 62.5947L49.2608 78.2506L101.881 107.674C103.163 108.39 103.622 110.013 102.906 111.294C102.651 111.747 102.286 112.099 101.862 112.33L101.856 112.333Z" fill="#3E3A39"/>
<path d="M105.222 124.658C104.449 125.079 103.475 125.108 102.652 124.645L96.443 121.174C95.8287 120.826 95.3707 120.254 95.1826 119.576C94.9946 118.899 95.0784 118.171 95.418 117.554L115.948 80.8375C116.664 79.5561 118.287 79.0967 119.569 79.8124L125.777 83.283C126.392 83.6309 126.85 84.2032 127.038 84.8807C127.226 85.5583 127.142 86.2865 126.802 86.9033L106.272 123.62C106.017 124.072 105.652 124.424 105.227 124.655L105.222 124.658ZM101.355 117.829L102.919 118.705L120.854 86.6337L119.291 85.7582L101.355 117.829Z" fill="#3E3A39"/>
</g>
</g>
<defs>
<clipPath id="clip0_709_11843">
<rect width="90.1403" height="125.061" fill="white" transform="translate(21 53.123) rotate(-28.5808)"/>
</clipPath>
</defs>
</svg>
