<svg width="180" height="180" viewBox="0 0 180 180" fill="none" xmlns="http://www.w3.org/2000/svg">
<circle cx="90" cy="90" r="90" fill="#96D2E6"/>
<circle cx="89.9982" cy="90.0002" r="79.6154" fill="white"/>
<mask id="mask0_709_11706" style="mask-type:alpha" maskUnits="userSpaceOnUse" x="10" y="10" width="160" height="160">
<circle cx="89.9982" cy="90.0002" r="79.6154" fill="white"/>
</mask>
<g mask="url(#mask0_709_11706)">
</g>
<g clip-path="url(#clip0_709_11706)">
<path d="M56.2217 130.089L54.0156 131.654L59.5641 147.894L62.583 152.547L87.4639 148.305C92.9917 140.743 88.5007 126.354 88.5007 126.354L56.2217 130.093V130.089Z" fill="white"/>
<path d="M62.5846 154C62.1077 154 61.6432 153.768 61.3654 153.34L58.3465 148.687C58.2801 148.588 58.2304 148.48 58.1889 148.368L52.6405 132.127C52.4331 131.517 52.6488 130.845 53.1754 130.471L55.3815 128.906C55.5806 128.765 55.8128 128.678 56.0533 128.649L88.3322 124.914C89.0247 124.835 89.6758 125.258 89.8831 125.922C90.0739 126.537 94.5276 141.1 88.6308 149.165C88.1581 149.812 87.2499 149.953 86.603 149.48C85.9561 149.007 85.8151 148.098 86.2878 147.451C90.4554 141.748 88.3073 131.397 87.4282 127.944L56.7541 131.496L55.734 132.218L60.8719 147.26L63.7913 151.759C64.2267 152.431 64.0359 153.332 63.3642 153.768C63.1195 153.925 62.8458 154.004 62.5763 154.004L62.5846 154Z" fill="#202933"/>
<path d="M98.3976 131.705L93.8817 131.248L74.0433 76.6991C73.243 74.4952 70.7466 73.0342 68.4741 73.4327L44.3645 77.6869L41.2585 74.5699L37.8871 80.0568C37.3936 80.9159 37.29 82.0033 37.6964 83.1115L42.432 96.1356L48.6025 113.107L58.7125 140.902C59.5128 143.106 62.0092 144.567 64.2817 144.169L92.3972 139.209C93.6246 138.993 94.5328 138.275 94.9848 137.316L98.3935 131.705H98.3976Z" fill="white"/>
<path d="M63.5088 145.687C60.8589 145.687 58.2796 143.948 57.3549 141.399L36.3387 83.6087C35.8079 82.1435 35.9033 80.6452 36.6083 79.3794C36.6249 79.3503 36.6415 79.3212 36.658 79.2922L40.0294 73.8053C40.2616 73.4276 40.6556 73.1744 41.0951 73.1246C41.5389 73.0707 41.9784 73.2284 42.2894 73.5397L44.8646 76.1212L68.2278 71.9999C71.2094 71.4728 74.3652 73.3197 75.4101 76.2001L94.9376 129.894L98.5453 130.26C99.0429 130.309 99.4783 130.612 99.6981 131.057C99.9221 131.505 99.8972 132.032 99.6401 132.459L96.2645 138.013C95.5803 139.399 94.2658 140.358 92.6527 140.64L64.5372 145.6C64.1971 145.662 63.8529 145.691 63.5088 145.691V145.687ZM39.1544 80.7739C38.8559 81.2927 38.8268 81.9443 39.0673 82.6084L60.0835 140.403C60.6433 141.947 62.4555 143.014 64.0354 142.736L92.1509 137.776C92.8683 137.652 93.4074 137.266 93.6811 136.693C93.7018 136.647 93.7267 136.602 93.7516 136.56L95.966 132.92L93.7433 132.696C93.1876 132.642 92.7149 132.273 92.5241 131.746L72.6857 77.1962C72.1259 75.6523 70.3137 74.5856 68.7338 74.8637L44.6241 79.1179C44.1555 79.2009 43.6786 79.0473 43.3427 78.7153L41.5347 76.9015L39.1544 80.778V80.7739Z" fill="#202933"/>
<path d="M77.3734 71.2987C76.573 69.0948 74.0766 67.6338 71.8042 68.0323L43.6887 72.9921C41.4162 73.3947 40.2219 75.5072 41.0223 77.7111L47.3835 95.2052L51.9284 107.706L62.0384 135.502C62.8387 137.706 65.3351 139.167 67.6076 138.768L95.7231 133.809C97.9955 133.406 99.1898 131.293 98.3895 129.089L77.3734 71.2945V71.2987Z" fill="#0DACCC"/>
<path d="M67.1657 75.2259L52.6766 77.7826C51.6026 77.9735 50.4249 77.2804 50.0475 76.2386L48.5547 72.138L66.9334 68.8965L68.4263 72.9971C68.8037 74.0389 68.2397 75.035 67.1657 75.2259Z" fill="white"/>
<path d="M52.318 79.264C50.7505 79.264 49.2287 78.2388 48.6813 76.7364L47.1884 72.6357C47.0433 72.2331 47.0806 71.7849 47.2962 71.4113C47.5119 71.0378 47.8768 70.7805 48.2998 70.7058L66.6785 67.4643C67.3752 67.3398 68.0553 67.734 68.2958 68.3981L69.7886 72.4988C70.1162 73.4036 70.0457 74.3789 69.5896 75.1675C69.1376 75.9478 68.3455 76.4915 67.4166 76.6534L52.9276 79.21C52.7244 79.2474 52.5212 79.264 52.318 79.264ZM50.51 73.2666L51.4099 75.7403C51.5467 76.1221 52.0402 76.4168 52.4259 76.3504L66.9149 73.7937C66.9978 73.7812 67.0559 73.748 67.0766 73.7148C67.0973 73.6816 67.1015 73.6028 67.06 73.4907L65.986 70.5356L50.51 73.2666Z" fill="#202933"/>
<path d="M80.7993 137.895C80.1068 137.895 79.4972 137.401 79.3728 136.696C79.2318 135.907 79.7626 135.152 80.5505 135.015L95.4666 132.384C96.126 132.267 96.6443 131.927 96.9346 131.429C97.2332 130.91 97.2622 130.259 97.0217 129.59L76.0056 71.7953C75.4457 70.2514 73.6336 69.1847 72.0536 69.4628L43.9381 74.4226C43.2788 74.5388 42.7604 74.8791 42.4702 75.3772C42.1716 75.896 42.1426 76.5476 42.3831 77.2158L48.7443 94.71C49.018 95.4653 48.6282 96.2954 47.8776 96.5735C47.1229 96.8474 46.2935 96.4573 46.0157 95.7061L39.6545 78.2119C39.1195 76.7468 39.2315 75.1821 39.9572 73.9287C40.6829 72.6752 41.9145 71.8368 43.4322 71.5671L71.5477 66.6073C74.5293 66.0802 77.685 67.9271 78.73 70.8075L99.7462 128.602C100.281 130.068 100.169 131.632 99.4434 132.886C98.7177 134.139 97.4861 134.978 95.9684 135.247L81.0522 137.879C80.9652 137.895 80.8822 137.899 80.7993 137.899V137.895Z" fill="#202933"/>
<path d="M58.1769 119.949C58.1769 119.949 57.2895 112.354 53.238 106.518C49.0373 100.463 43.634 99.5744 42.0374 102.048C39.9184 105.327 43.8662 108.137 45.8401 112.424C49.6096 120.63 50.5592 135.106 52.1723 138.838C55.3363 146.163 62.585 152.542 62.585 152.542L75.577 143.125C75.577 143.125 74.7974 135.123 70.1405 129.3C66.2176 124.398 58.1769 119.945 58.1769 119.945V119.949Z" fill="white"/>
<path d="M62.5835 154C62.2434 154 61.8992 153.88 61.6255 153.639C61.3187 153.369 54.0949 146.953 50.8396 139.42C50.1388 137.801 49.6122 134.713 48.9487 130.803C47.9659 125.038 46.7384 117.858 44.524 113.035C43.9476 111.778 43.168 110.636 42.4174 109.532C40.7463 107.083 38.8553 104.307 40.825 101.26C41.6212 100.032 42.9855 99.3387 44.665 99.3096C47.941 99.2515 51.669 101.7 54.4349 105.689C57.939 110.74 59.1789 116.924 59.5148 119.041C61.5385 120.224 67.8292 124.092 71.2752 128.396C76.1477 134.485 76.9895 142.644 77.0227 142.989C77.1015 143.786 76.5168 144.5 75.7206 144.574C74.9244 144.653 74.2112 144.068 74.1365 143.271C74.1241 143.13 73.3155 135.589 69.011 130.214C65.3162 125.599 57.5575 121.265 57.4787 121.224C57.0682 120.996 56.7945 120.585 56.7406 120.124C56.7323 120.054 55.8366 112.807 52.0505 107.353C49.3924 103.518 46.4274 102.194 44.7106 102.219C44.2254 102.227 43.5827 102.344 43.2592 102.842C42.4174 104.145 43.0187 105.261 44.8143 107.901C45.5939 109.047 46.4813 110.346 47.1614 111.823C49.5375 116.995 50.7982 124.382 51.81 130.318C52.4196 133.887 52.9462 136.971 53.5061 138.27C56.5001 145.197 63.475 151.402 63.5455 151.46C64.1468 151.991 64.2049 152.908 63.6741 153.51C63.3879 153.838 62.9857 154.004 62.5835 154.004V154Z" fill="#202933"/>
<path d="M130.755 99.4838C128.533 97.4792 123.32 96.1469 123.32 96.1469C123.32 96.1469 119.77 93.3495 117.871 92.316C115.972 91.2826 110.336 91.1622 110.336 91.1622C110.336 91.1622 96.9173 85.0569 93.3137 85.0527C91.6301 85.0527 87.4874 85.6629 82.9591 87.3106C77.7963 89.1907 73.7075 89.2364 73.2638 92.5069C72.874 95.3915 77.846 96.6034 81.122 96.4499C84.3939 96.2963 92.6046 94.5116 92.6046 94.5116L100.396 99.1518C100.396 99.1518 97.5144 103.767 97.2325 105.444C96.9463 107.117 98.348 110.831 98.348 110.831L96.9671 111.047C96.9671 111.047 88.0389 107.067 85.5965 110.86C83.8216 113.62 87.7901 115.928 90.0792 117.43C92.3682 118.933 94.7236 120.012 99.563 124.017C101.238 125.403 104.332 127.342 109.573 129.463C115.109 131.7 120.936 131.538 124.556 133.912L142.553 115.961C138.07 111.387 132.431 100.986 130.764 99.4838H130.755Z" fill="white"/>
<path d="M124.547 135.364C124.273 135.364 124 135.285 123.755 135.127C122.005 133.982 119.563 133.484 116.734 132.907C114.354 132.421 111.655 131.873 109.025 130.811C103.307 128.499 100.222 126.453 98.6335 125.141C95.0672 122.19 92.9399 120.899 91.0614 119.762C90.4476 119.389 89.8671 119.036 89.2824 118.654L88.8345 118.363C86.4211 116.799 81.93 113.889 84.3767 110.088C86.8606 106.228 93.4375 108.149 96.2947 109.22C95.9339 107.917 95.6146 106.319 95.8012 105.211C96.0334 103.849 97.4516 101.268 98.3971 99.6616L92.351 96.059C90.4144 96.4699 84.0781 97.7731 81.1919 97.906C78.3969 98.0388 74.586 97.3 72.8236 95.3742C72.0233 94.4984 71.6791 93.4401 71.8325 92.3195C72.2845 88.97 75.2827 88.1151 78.7536 87.1189C79.8815 86.7952 81.1546 86.43 82.4691 85.9527C87.2007 84.2302 91.5465 83.6035 93.3172 83.6035C96.9457 83.6035 108.387 88.6878 110.672 89.7213C112.14 89.7669 116.631 89.9869 118.571 91.0411C120.284 91.975 123.137 94.1622 123.983 94.8222C125.244 95.1667 129.552 96.445 131.729 98.4082C132.505 99.1096 133.583 100.766 135.582 103.874C137.999 107.635 141.006 112.316 143.581 114.948C144.141 115.52 144.132 116.442 143.56 117.002C142.988 117.562 142.067 117.554 141.508 116.981C138.721 114.138 135.627 109.32 133.139 105.443C131.75 103.277 130.311 101.04 129.784 100.566C128.184 99.122 124.319 97.906 122.963 97.5573C122.768 97.5075 122.581 97.4162 122.424 97.2917C122.391 97.2626 118.949 94.5565 117.178 93.5936C116.083 93.0001 112.5 92.6639 110.307 92.6183C110.112 92.6141 109.917 92.5685 109.739 92.4896C104.659 90.1778 95.7099 86.513 93.3172 86.513C91.8119 86.513 87.8061 87.1023 83.4602 88.6837C82.0503 89.1983 80.7233 89.576 79.5498 89.9122C76.1784 90.8751 74.8887 91.369 74.7104 92.7096C74.6855 92.9005 74.698 93.1163 74.9675 93.411C75.8757 94.403 78.6084 95.1169 81.0592 95.0048C84.1735 94.8595 92.2183 93.1163 92.3013 93.0997C92.662 93.0209 93.0352 93.0831 93.3504 93.2699L101.142 97.9101C101.478 98.1093 101.719 98.4372 101.81 98.8149C101.901 99.1926 101.839 99.5952 101.632 99.9272C100.5 101.745 98.8284 104.733 98.6666 105.692C98.5174 106.568 99.2016 108.971 99.7075 110.324C99.8609 110.735 99.8236 111.192 99.6038 111.569C99.384 111.947 99.0067 112.204 98.5754 112.275L97.1945 112.491C96.9167 112.532 96.6347 112.495 96.3776 112.383C93.8356 111.254 88.1503 109.585 86.8191 111.656C86.0852 112.798 87.5822 114.084 90.4144 115.923L90.8747 116.226C91.418 116.583 91.9778 116.919 92.5667 117.28C94.4327 118.413 96.7549 119.82 100.483 122.908C101.652 123.875 104.456 125.838 110.112 128.125C112.492 129.088 114.943 129.586 117.311 130.068C120.301 130.678 123.129 131.251 125.343 132.703C126.015 133.143 126.202 134.044 125.762 134.716C125.484 135.144 125.02 135.372 124.547 135.372V135.364Z" fill="#202933"/>
<path d="M105.554 115.89C105.438 115.89 105.322 115.877 105.206 115.848C105.11 115.823 102.751 115.226 96.3688 112.374C95.6349 112.046 95.3073 111.187 95.6349 110.457C95.9625 109.726 96.8208 109.394 97.5507 109.722C100.665 111.117 102.78 111.947 104.103 112.428V108.328C104.103 107.527 104.754 106.875 105.554 106.875C106.354 106.875 107.005 107.527 107.005 108.328V114.437C107.005 114.885 106.802 115.305 106.45 115.583C106.193 115.786 105.878 115.89 105.554 115.89Z" fill="#202933"/>
<path d="M104.685 104.367C104.345 104.367 104.005 104.247 103.727 104.006L99.4393 100.246C98.838 99.7188 98.7758 98.7974 99.3066 98.1956C99.8333 97.5938 100.754 97.5316 101.355 98.0628L105.643 101.823C106.244 102.35 106.306 103.272 105.776 103.873C105.49 104.201 105.087 104.367 104.685 104.367Z" fill="#202933"/>
<path d="M127.601 32.4367C116.848 23.3805 100.792 24.7584 91.7432 35.5247C83.4869 45.3446 83.914 59.5765 92.2159 68.8735L90.2255 76.888L97.7727 73.5552C108.347 80.1544 122.43 78.1498 130.686 68.3298C139.739 57.5677 138.358 41.4972 127.605 32.4367H127.601Z" fill="white"/>
<path d="M111.149 78.8222C106.517 78.8222 101.861 77.6393 97.6722 75.1906L90.8134 78.2162C90.3075 78.4404 89.7186 78.3573 89.2915 78.0004C88.8685 77.6435 88.686 77.0749 88.8187 76.5395L90.6268 69.2596C82.2792 59.3442 82.2377 44.5769 90.635 34.5909C95.2629 29.0874 101.753 25.7173 108.914 25.0988C116.072 24.4846 123.043 26.6926 128.541 31.3245C134.04 35.9564 137.407 42.4518 138.021 49.6197C138.635 56.7833 136.428 63.7602 131.801 69.2637C126.547 75.5101 118.887 78.8181 111.149 78.8181V78.8222ZM97.7759 72.1026C98.0454 72.1026 98.3108 72.1773 98.5431 72.3226C108.595 78.5981 121.935 76.4772 129.578 67.396C133.704 62.486 135.678 56.2645 135.126 49.8728C134.579 43.4812 131.573 37.683 126.671 33.5533C121.765 29.4236 115.549 27.448 109.163 28C102.777 28.5479 96.9838 31.5569 92.8577 36.4628C85.2193 45.5481 85.41 59.0661 93.3015 67.9107C93.6208 68.2676 93.7452 68.7615 93.6291 69.2305L92.3518 74.3688L97.1912 72.2313C97.3778 72.1483 97.5768 72.1068 97.7759 72.1068V72.1026Z" fill="#202933"/>
<path d="M108.807 61.8015C108.778 61.8015 108.745 61.8015 108.716 61.8015C107.364 61.7766 106.083 61.2038 105.162 60.2118L100.207 54.8785C98.3366 52.8656 98.4486 49.7112 100.464 47.8394C102.475 45.9675 105.627 46.0796 107.497 48.0967L108.936 49.649L115.065 43.5146C117.01 41.568 120.157 41.568 122.102 43.5146C124.047 45.4612 124.047 48.6114 122.102 50.5579L112.324 60.3447C111.391 61.2785 110.122 61.8015 108.807 61.8015Z" fill="#202933"/>
<path d="M108.811 58.6884C108.811 58.6884 108.791 58.6884 108.778 58.6884C108.272 58.6801 107.791 58.4643 107.447 58.0907L102.492 52.7574C101.791 52.002 101.832 50.8192 102.587 50.1177C103.342 49.4163 104.523 49.4578 105.224 50.2132L108.861 54.1271L117.271 45.71C118.001 44.9795 119.183 44.9795 119.908 45.71C120.638 46.4404 120.638 47.6233 119.908 48.3497L110.13 58.1364C109.782 58.485 109.305 58.6843 108.811 58.6843V58.6884Z" fill="#0DACCC"/>
</g>
<defs>
<clipPath id="clip0_709_11706">
<rect width="108" height="129" fill="white" transform="translate(36 25)"/>
</clipPath>
</defs>
</svg>
