<svg width="180" height="180" viewBox="0 0 180 180" fill="none" xmlns="http://www.w3.org/2000/svg">
<circle cx="90" cy="90" r="90" fill="#96D2E6"/>
<circle cx="89.9982" cy="90.0002" r="79.6154" fill="white"/>
<mask id="mask0_709_11800" style="mask-type:alpha" maskUnits="userSpaceOnUse" x="10" y="10" width="160" height="160">
<circle cx="89.9982" cy="90.0002" r="79.6154" fill="white"/>
</mask>
<g mask="url(#mask0_709_11800)">
</g>
<g clip-path="url(#clip0_709_11800)">
<path d="M60.6276 119.778C60.6148 118.716 60.6021 117.654 60.5894 116.599C58.5031 115.449 56.4422 114.235 54.375 113.059V126.579C55.3355 127.132 56.2959 127.679 57.2564 128.232C58.4268 128.899 59.5908 129.567 60.7611 130.234C60.7611 130.094 60.7611 129.955 60.7611 129.815C60.7166 126.471 60.6785 123.128 60.6339 119.784L60.6276 119.778Z" fill="white"/>
<path d="M97.5115 126.274C97.0726 126.548 96.3348 126.599 95.9086 126.274C95.3489 125.855 94.7955 125.442 94.2358 125.022C90.6483 122.333 87.0609 119.644 83.4734 116.949C83.2572 117.076 83.0028 117.159 82.7165 117.165C79.3454 117.248 75.9805 117.337 72.6094 117.42V137.011C72.8193 137.132 73.0228 137.246 73.2327 137.367C76.3177 139.134 79.4026 140.895 82.4812 142.662C83.4353 142.147 84.3957 141.638 85.3499 141.124C90.7374 138.238 96.1249 135.358 101.506 132.472C104.604 130.813 107.701 129.154 110.805 127.495V117.928C109.349 118.837 107.899 119.753 106.442 120.662C103.465 122.53 100.482 124.399 97.5051 126.268L97.5115 126.274Z" fill="white"/>
<path d="M143.409 90.829C141.049 90.9752 138.696 91.1214 136.336 91.2612C135.999 91.2803 135.655 91.3057 135.318 91.3248C134.491 91.3757 133.69 92.0177 133.728 92.914C133.766 93.734 134.428 94.5603 135.318 94.5031C137.678 94.3569 140.031 94.2107 142.391 94.0709C142.728 94.0518 143.072 94.0264 143.409 94.0073C144.236 93.9565 145.037 93.3144 144.999 92.4181C144.961 91.5981 144.299 90.7718 143.409 90.829Z" fill="#96D2E6"/>
<path d="M142.022 80.0035C142.734 79.5713 143.065 78.5606 142.594 77.8296C142.136 77.1176 141.176 76.7934 140.419 77.2575C137.664 78.9356 134.917 80.6138 132.162 82.292C131.768 82.5335 131.374 82.7751 130.979 83.0166C130.267 83.4489 129.936 84.4596 130.407 85.1906C130.865 85.9025 131.825 86.2267 132.582 85.7627C135.336 84.0845 138.084 82.4064 140.838 80.7282C141.233 80.4867 141.627 80.2451 142.022 80.0035Z" fill="#96D2E6"/>
<path d="M131.931 71.4721C132.408 70.792 132.077 69.6732 131.358 69.2982C130.544 68.8659 129.692 69.1393 129.183 69.8703C127.79 71.8472 126.403 73.8241 125.01 75.801C124.813 76.0807 124.616 76.3604 124.419 76.6401C123.942 77.3203 124.273 78.4391 124.991 78.8141C125.806 79.2463 126.658 78.973 127.167 78.242C128.56 76.2651 129.946 74.2881 131.339 72.3112C131.537 72.0315 131.734 71.7518 131.931 71.4721Z" fill="#96D2E6"/>
<path d="M63.7734 117.66C63.7989 119.478 63.818 121.296 63.8434 123.114C63.8816 126.051 63.9197 128.988 63.9515 131.925C65.7771 132.974 67.6026 134.022 69.4281 135.078V117.508C67.7807 117.552 66.1333 117.59 64.4858 117.635C64.2505 117.635 64.0088 117.654 63.7798 117.667L63.7734 117.66Z" fill="#96D2E6"/>
<path d="M76.8529 114.139C72.1842 111.545 67.509 108.951 62.8403 106.358C59.7172 104.623 56.5941 102.894 53.4773 101.158C52.8413 101.19 52.2052 101.222 51.5691 101.26C48.0326 101.444 44.4897 101.629 40.9531 101.807C45.4565 104.356 49.9662 106.905 54.4696 109.454C57.4273 111.125 60.3914 112.804 63.3491 114.475C64.0297 114.456 64.704 114.444 65.3846 114.425C69.2073 114.329 73.0301 114.234 76.8529 114.132V114.139Z" fill="white"/>
<path d="M102.556 92.1646C105.367 93.7283 108.179 95.2857 110.997 96.8494C111.098 96.6842 111.2 96.5252 111.302 96.36C113.623 92.6413 115.939 88.9227 118.26 85.204C117.599 84.8608 116.937 84.5112 116.27 84.1679C111.295 81.5744 106.328 78.9809 101.354 76.3937C98.644 74.9825 95.9407 73.5713 93.2311 72.1602C93.0466 72.389 92.8685 72.6178 92.6841 72.853C90.1462 76.0568 87.6082 79.2605 85.0703 82.4643C85.7255 82.8266 86.3806 83.1953 87.0358 83.5577C92.207 86.4309 97.3783 89.2977 102.55 92.1709L102.556 92.1646Z" fill="white"/>
<path d="M108.718 102.348C103.661 105.176 98.6047 108.012 93.5479 110.84C91.0736 112.226 88.5993 113.612 86.125 114.997C89.6743 117.661 93.2235 120.318 96.7665 122.981C97.5743 122.473 98.3757 121.971 99.1835 121.469C103.935 118.487 108.693 115.506 113.444 112.525C115.772 111.063 118.107 109.601 120.435 108.139C117.375 105.736 114.316 103.327 111.256 100.924C110.41 101.401 109.564 101.871 108.718 102.348Z" fill="white"/>
<path d="M114.014 99.0741C113.963 99.0359 113.912 98.9914 113.862 98.9533C113.811 98.8262 113.741 98.7054 113.658 98.5973C116.024 94.8024 118.397 91.0011 120.763 87.2062C121.138 86.6023 121.514 85.9984 121.895 85.3945C122.334 84.6889 122.073 83.6083 121.323 83.2205C118.206 81.5932 115.089 79.9723 111.972 78.345C106.998 75.7515 102.031 73.1579 97.0566 70.5708C95.9117 69.9733 94.7604 69.3757 93.6155 68.7782C93.0494 68.4794 92.1334 68.4667 91.6882 69.0261C88.7241 72.7702 85.76 76.5079 82.8023 80.252C82.5733 80.5444 82.3443 80.8304 82.1153 81.1228C82.0517 81.1483 81.9881 81.1673 81.9181 81.2055C78.5533 83.0044 75.1949 84.8034 71.8301 86.6023C66.4426 89.4882 61.0551 92.3678 55.6739 95.2537C54.4399 95.9148 53.2059 96.5759 51.9783 97.2306C51.6412 97.4086 51.3995 97.7392 51.2787 98.1079C46.7562 98.343 42.2274 98.5782 37.7049 98.8134C36.9416 98.8516 36.1847 98.8897 35.4214 98.9342C33.9012 99.0105 33.1888 101.083 34.62 101.896C40.1411 105.024 45.6685 108.145 51.1896 111.273V127.514C51.1896 128.067 51.4949 128.607 51.9783 128.887C55.3431 130.813 58.708 132.739 62.0728 134.665C67.4094 137.723 72.746 140.774 78.0826 143.831C79.2594 144.505 80.417 145.236 81.6192 145.853C82.8404 146.476 84.3416 145.3 85.4038 144.728C90.5369 141.975 95.6763 139.229 100.809 136.477C104.868 134.303 109.002 132.237 113.003 129.948C113.066 129.91 113.136 129.878 113.206 129.84C113.696 129.58 113.995 129.014 113.995 128.467V115.957C116.234 114.553 118.473 113.148 120.712 111.743C121.812 111.056 122.906 110.37 124.001 109.677C124.777 109.188 125.165 107.84 124.325 107.179C120.89 104.477 117.455 101.782 114.014 99.0804V99.0741ZM92.6868 72.8401C92.8713 72.6113 93.0494 72.3824 93.2338 72.1472C95.9435 73.5584 98.6468 74.9696 101.356 76.3808C106.331 78.9743 111.298 81.5678 116.272 84.155C116.934 84.4982 117.595 84.8478 118.263 85.1911C115.942 88.9098 113.626 92.6284 111.305 96.3471C111.203 96.5123 111.101 96.6712 110.999 96.8365C108.188 95.2728 105.376 93.7154 102.559 92.1517C97.3874 89.2785 92.2161 86.4116 87.0449 83.5384C86.3897 83.1761 85.7346 82.8074 85.0794 82.445C87.6173 79.2413 90.1552 76.0375 92.6932 72.8338L92.6868 72.8401ZM63.6629 94.5672C69.0505 91.6813 74.438 88.8017 79.8191 85.9158C80.6587 85.4645 81.492 85.0195 82.3316 84.5682C85.442 86.2972 88.5524 88.0198 91.6627 89.7488C96.2424 92.2915 100.822 94.8342 105.402 97.3768C106.241 97.8599 107.081 98.3367 107.921 98.8198C108.016 98.877 108.118 98.9342 108.213 98.9914C105.834 100.326 103.455 101.655 101.077 102.99C96.0198 105.818 90.9631 108.654 85.9063 111.482C84.7487 112.131 83.5846 112.779 82.427 113.434C82.3761 113.466 82.338 113.504 82.2934 113.535C79.4375 111.953 76.5815 110.363 73.7256 108.781L65.145 104.02C64.369 103.568 63.593 103.111 62.8106 102.659C62.6643 102.57 62.518 102.519 62.3781 102.488C60.9914 101.718 59.5985 100.943 58.2118 100.174C57.3913 99.7224 56.5771 99.2648 55.7566 98.8134C58.3899 97.4023 61.0233 95.9911 63.6629 94.5799V94.5672ZM57.2514 128.226C56.2909 127.673 55.3304 127.126 54.37 126.573V113.052C56.4435 114.228 58.4981 115.442 60.5844 116.593C60.5971 117.655 60.6098 118.716 60.6225 119.771C60.667 123.115 60.7052 126.459 60.7497 129.802C60.7497 129.942 60.7497 130.082 60.7497 130.222C59.5794 129.554 58.4154 128.887 57.245 128.219L57.2514 128.226ZM54.4654 109.454C49.962 106.905 45.4523 104.356 40.9489 101.807C44.4854 101.623 48.0283 101.439 51.5649 101.261C52.201 101.229 52.837 101.197 53.4731 101.159C56.5962 102.894 59.7193 104.623 62.836 106.359C67.5048 108.952 72.1799 111.546 76.8487 114.139C73.0259 114.235 69.2031 114.33 65.3803 114.432C64.6997 114.451 64.0255 114.464 63.3449 114.483C60.3872 112.811 57.4231 111.133 54.4654 109.461V109.454ZM69.4257 118.945V135.072C67.6002 134.023 65.7747 132.974 63.9492 131.919C63.911 128.982 63.8728 126.045 63.841 123.109C63.8156 121.291 63.7965 119.473 63.7711 117.655C64.0064 117.648 64.2418 117.629 64.4771 117.623C66.1245 117.578 67.7719 117.54 69.4194 117.496V118.939L69.4257 118.945ZM110.808 124.882V127.507C107.711 129.167 104.607 130.826 101.509 132.485C96.1216 135.371 90.7341 138.25 85.3529 141.136C84.3988 141.651 83.4384 142.16 82.4842 142.674C79.3993 140.907 76.3144 139.146 73.2358 137.379C73.0259 137.259 72.8223 137.144 72.6124 137.023V117.432C75.9836 117.349 79.3484 117.26 82.7196 117.178C83.0058 117.171 83.2603 117.089 83.4765 116.962C87.0639 119.651 90.6514 122.339 94.2388 125.035C94.7986 125.454 95.3519 125.867 95.9117 126.287C96.3442 126.611 97.0821 126.56 97.5146 126.287C100.491 124.418 103.475 122.549 106.451 120.68C107.908 119.771 109.358 118.856 110.815 117.947V124.888L110.808 124.882ZM113.454 112.525C108.703 115.506 103.945 118.487 99.1938 121.469C98.386 121.977 97.5845 122.479 96.7767 122.981C93.2275 120.318 89.6782 117.661 86.1353 114.998C88.6096 113.612 91.0839 112.226 93.5582 110.84C98.615 108.012 103.672 105.176 108.728 102.348C109.574 101.871 110.42 101.401 111.266 100.924C114.326 103.327 117.385 105.736 120.445 108.139C118.117 109.601 115.783 111.063 113.454 112.525Z" fill="#323232"/>
<path d="M86.721 63.7192C86.9182 64.463 87.0963 65.2067 87.3062 65.9441C87.8277 67.7875 89.0617 69.3131 90.7473 70.2157C94.1185 72.0147 98.3865 70.3937 99.8113 66.8594C100.842 64.3167 99.9194 61.8567 99.2643 59.3649C98.8318 57.7185 98.3992 56.0722 97.9667 54.4258C97.8331 54.4639 97.6995 54.4957 97.566 54.5338C93.4315 55.6208 89.2907 56.7078 85.1562 57.7885C85.6778 59.7654 86.193 61.7423 86.7146 63.7256L86.721 63.7192Z" fill="white"/>
<path d="M84.3597 54.7126C84.4933 54.6745 84.6269 54.6427 84.7605 54.6046C88.8949 53.5176 93.0294 52.4306 97.1702 51.3499C96.356 48.2479 95.5355 45.1395 94.7213 42.0374C93.8754 38.9799 91.0957 36.7805 87.8963 36.914C85.2312 37.022 82.8586 38.9036 82.0381 41.4208C81.4593 43.1944 81.7582 44.8217 82.2162 46.5507C82.9286 49.2713 83.6473 51.992 84.3597 54.7126Z" fill="#96D2E6"/>
<path d="M80.2727 51.7178C80.7434 53.5041 81.2141 55.2903 81.6784 57.0765C82.3081 59.4602 82.9315 61.8504 83.5612 64.2341C83.7774 65.0478 83.981 65.8678 84.2036 66.6814C84.8651 69.0842 86.3471 71.1438 88.4207 72.5295C92.5552 75.2883 98.2798 74.3539 101.333 70.4573C102.834 68.5439 103.642 66.0902 103.47 63.6556C103.387 62.4733 103.076 61.3609 102.777 60.2294C102.064 57.5087 101.346 54.7881 100.633 52.0674C99.6792 48.4441 98.7314 44.8209 97.7773 41.1976C96.8041 37.695 93.9991 34.8091 90.4116 33.9891C86.8814 33.1818 83.0587 34.415 80.7752 37.2564C78.7016 39.8372 78.0337 43.1427 78.8606 46.3401C79.3249 48.1327 79.802 49.9253 80.2727 51.7178ZM97.9681 54.4258C98.4007 56.0721 98.8332 57.7185 99.2657 59.3649C99.9209 61.8567 100.843 64.3167 99.8127 66.8594C98.3816 70.3937 94.1199 72.0147 90.7488 70.2157C89.0568 69.3131 87.8228 67.7938 87.3076 65.944C87.0977 65.2067 86.9196 64.4629 86.7224 63.7192C86.2009 61.7423 85.6856 59.7654 85.1641 57.7821C89.2985 56.6951 93.433 55.6081 97.5738 54.5275C97.7074 54.4893 97.8409 54.4576 97.9745 54.4194L97.9681 54.4258ZM82.0282 41.4137C82.8488 38.8964 85.2213 37.0149 87.8864 36.9068C91.0859 36.7797 93.8655 38.9727 94.7115 42.0303C95.5256 45.1323 96.3462 48.2407 97.1603 51.3428C93.0259 52.4298 88.8851 53.5168 84.7506 54.5974C84.617 54.6355 84.4835 54.6673 84.3499 54.7055C83.6375 51.9848 82.9187 49.2642 82.2063 46.5435C81.7484 44.8081 81.4494 43.1872 82.0282 41.4137Z" fill="#323232"/>
<path d="M125.124 70.4966C127.696 71.7868 130.924 71.232 132.973 69.2512C135.049 67.2446 135.702 64.0565 134.505 61.415C133.282 58.7208 130.502 57.1252 127.565 57.3298C124.647 57.5331 122.221 59.6963 121.449 62.4647C120.635 65.6888 122.146 69.0059 125.124 70.4966ZM125.578 61.913L131.57 63.5087C132.43 63.7378 132.881 64.6144 132.697 65.4535C132.512 66.2926 131.556 66.7945 130.751 66.5801L124.759 64.9844C123.898 64.7553 123.448 63.8786 123.632 63.0395C123.817 62.2004 124.773 61.6986 125.578 61.913Z" fill="white"/>
<path d="M107.592 83.8454C107.979 85.3564 108.74 86.5 109.956 87.5673C109.988 87.5955 110.026 87.6254 110.058 87.6536C110.07 87.6569 110.081 87.6663 110.09 87.6819C110.155 87.7322 110.229 87.7781 110.294 87.8284C110.456 87.9373 110.62 88.0401 110.789 88.1445C111.084 88.3217 111.396 88.4838 111.717 88.6152C111.723 88.6168 112.061 88.733 112.139 88.7605C112.321 88.8157 112.51 88.8726 112.696 88.9155C112.887 88.9663 113.076 88.9969 113.264 89.0337C113.282 89.0387 113.378 89.0509 113.415 89.0607C113.471 89.0693 113.524 89.0701 113.581 89.0787C115.157 89.2155 116.479 88.9229 117.804 88.1769C118.578 87.7185 119.153 87.24 119.783 86.4803C119.801 86.4651 119.804 86.4528 119.813 86.4422C119.817 86.4299 119.824 86.4254 119.835 86.4086C119.899 86.3201 119.963 86.2255 120.028 86.1309C120.15 85.9462 120.267 85.7537 120.378 85.5596C120.489 85.3654 120.588 85.168 120.68 84.969C120.685 84.9506 120.732 84.8511 120.754 84.7913C120.77 84.7298 120.822 84.6119 120.827 84.5935C121.393 82.9877 121.421 81.5278 120.883 79.9174C120.737 79.4772 120.679 79.3498 120.454 78.9346C120.292 78.6284 120.009 78.1845 119.86 77.9802C119.693 77.7649 119.332 77.3661 119.071 77.1123C118.778 76.8302 118.625 76.7107 118.415 76.5625C118.071 76.3197 117.714 76.106 117.342 75.9214C117.244 75.869 117.144 75.8228 117.045 75.7765C117.045 75.7765 116.997 75.7573 116.95 75.7381C116.907 75.7266 116.818 75.6898 116.818 75.6898C116.715 75.6558 116.608 75.6141 116.505 75.5801C116.11 75.4553 115.706 75.3673 115.298 75.2917C115.267 75.2835 115.255 75.2802 115.243 75.2769C115.154 75.2663 115.07 75.2573 114.979 75.2528C114.811 75.241 114.65 75.2308 114.478 75.2312C112.959 75.2017 111.628 75.6037 110.316 76.4979C110.084 76.6532 109.798 76.8863 109.496 77.1808C109.353 77.3204 109.217 77.4618 109.085 77.6108C109.055 77.6489 108.842 77.9016 108.827 77.9107C108.602 78.2125 108.399 78.5271 108.218 78.8604C108.126 79.0333 108.034 79.2061 107.954 79.3822C107.949 79.4006 107.899 79.5124 107.871 79.5706C107.857 79.6197 107.829 79.6779 107.829 79.6779C107.704 80.0722 107.573 80.465 107.491 80.8708C107.478 80.92 107.435 81.2046 107.423 81.2476C107.403 81.42 107.39 81.594 107.384 81.7636C107.342 82.6141 107.395 83.1284 107.583 83.8561L107.592 83.8454ZM111.98 78.1057C112.702 77.6465 113.737 77.9616 114.156 78.685C114.286 78.9106 114.413 79.1285 114.543 79.3541C115.449 80.9178 116.355 82.4814 117.261 84.0451C117.707 84.8153 117.41 85.756 116.68 86.2197C115.959 86.6789 114.924 86.3638 114.505 85.6403C114.374 85.4147 114.248 85.1969 114.117 84.9713C113.212 83.4076 112.306 81.8439 111.4 80.2803C110.954 79.5101 111.251 78.5694 111.98 78.1057Z" fill="white"/>
<path d="M122.415 72.5788C125.787 74.9638 130.569 74.9279 133.927 72.5525C137.417 70.0803 139.086 65.6033 137.893 61.4631C136.703 57.363 133.058 54.4973 128.832 54.1547C124.038 53.7664 119.662 57.0946 118.382 61.6423C117.335 65.7912 118.927 70.1103 122.421 72.5804L122.415 72.5788ZM127.563 57.3303C130.501 57.1257 133.28 58.7213 134.503 61.4155C135.7 64.057 135.047 67.2451 132.972 69.2517C130.923 71.2325 127.694 71.7873 125.123 70.4971C122.152 69.0019 120.635 65.6832 121.447 62.4652C122.223 59.7045 124.652 57.5353 127.563 57.3303Z" fill="#323232"/>
<path d="M124.757 64.9833L130.749 66.5792C131.554 66.7937 132.511 66.2917 132.696 65.4525C132.88 64.6133 132.429 63.7366 131.569 63.5074L125.577 61.9115C124.772 61.6971 123.815 62.199 123.631 63.0382C123.446 63.8774 123.897 64.7542 124.757 64.9833Z" fill="#323232"/>
<path d="M106.721 88.8387C109.845 92.4735 115.275 93.2417 119.392 90.9103C123.09 88.7175 124.989 84.5123 124.265 80.2929C123.568 76.219 120.113 72.8381 116.034 72.1924C111.848 71.525 107.54 73.4834 105.473 77.2357C103.409 80.9758 103.948 85.6133 106.715 88.837L106.721 88.8387ZM107.502 80.8553C107.586 80.4433 107.715 80.0567 107.84 79.6623C107.84 79.6623 107.863 79.6025 107.882 79.555C107.911 79.4969 107.954 79.3834 107.965 79.3666C108.045 79.1905 108.137 79.0177 108.229 78.8449C108.409 78.5176 108.613 78.197 108.838 77.8951C108.848 77.8845 109.06 77.6317 109.096 77.5953C109.228 77.4462 109.364 77.3049 109.507 77.1652C109.809 76.8707 110.094 76.6438 110.327 76.4824C111.645 75.5898 112.969 75.1923 114.49 75.2157C114.653 75.2198 114.823 75.2254 114.991 75.2373C115.074 75.2463 115.165 75.2508 115.254 75.2614C115.266 75.2647 115.279 75.2679 115.309 75.2761C115.717 75.3518 116.121 75.4397 116.516 75.5645C116.62 75.5924 116.728 75.6341 116.829 75.6742C116.829 75.6742 116.913 75.7033 116.961 75.7225C117.002 75.7401 117.056 75.761 117.056 75.761C117.155 75.8072 117.255 75.8535 117.353 75.9059C117.725 76.0905 118.089 76.3058 118.426 76.5469C118.637 76.6951 118.789 76.8146 119.082 77.0967C119.35 77.3522 119.712 77.7448 119.871 77.9647C120.022 78.1629 120.297 78.6112 120.465 78.9191C120.689 79.3404 120.748 79.4616 120.894 79.9018C121.432 81.5123 121.403 82.9783 120.838 84.5779C120.833 84.5963 120.788 84.7159 120.765 84.7757C120.737 84.8339 120.696 84.935 120.692 84.9535C120.599 85.1525 120.499 85.356 120.389 85.544C120.278 85.7382 120.161 85.9306 120.039 86.1154C119.975 86.21 119.911 86.2984 119.847 86.393C119.836 86.4098 119.828 86.4143 119.825 86.4266C119.821 86.4389 119.806 86.4479 119.795 86.4647C119.162 87.2306 118.589 87.7029 117.815 88.1613C116.496 88.909 115.168 89.2 113.592 89.0632C113.534 89.0607 113.483 89.0538 113.426 89.0452C113.389 89.0354 113.293 89.0231 113.275 89.0182C113.087 88.9814 112.894 88.9429 112.708 88.9C112.523 88.8509 112.333 88.8001 112.15 88.7449C112.07 88.7236 111.736 88.5951 111.728 88.5996C111.408 88.4682 111.102 88.3078 110.801 88.1289C110.629 88.0307 110.466 87.9279 110.306 87.8129C110.238 87.7687 110.167 87.7167 110.101 87.6663C110.084 87.6553 110.074 87.6459 110.069 87.6381C110.037 87.6098 109.999 87.5799 109.967 87.5517C108.75 86.4905 107.988 85.347 107.603 83.8299C107.416 83.1022 107.368 82.5895 107.405 81.7374C107.411 81.5678 107.424 81.3938 107.444 81.2214C107.455 81.1784 107.504 80.8954 107.511 80.8446L107.502 80.8553Z" fill="#323232"/>
<path d="M114.116 84.9702C114.246 85.1958 114.372 85.4136 114.503 85.6392C114.922 86.3627 115.951 86.6762 116.679 86.2186C117.408 85.7549 117.705 84.8142 117.259 84.044C116.353 82.4803 115.447 80.9167 114.542 79.353C114.411 79.1274 114.285 78.9095 114.154 78.6839C113.735 77.9604 112.706 77.647 111.979 78.1046C111.249 78.5683 110.952 79.509 111.398 80.2792C112.304 81.8428 113.21 83.4065 114.116 84.9702Z" fill="#323232"/>
<path d="M75.1264 96.1797L86.3079 93.3451C85.9381 92.6124 85.5745 91.8783 85.2063 91.1518C82.251 85.2507 79.2896 79.3512 76.3359 73.4562C75.3803 71.5539 74.431 69.6499 73.4754 67.7476C73.826 73.7777 74.1766 79.8079 74.5271 85.838C74.7264 89.2832 74.9272 92.7345 75.1264 96.1797Z" fill="white"/>
<path d="M64.0932 98.9775L71.9839 96.9772C71.9166 95.8596 71.857 94.7466 71.7896 93.6289C71.4126 87.1067 71.0293 80.5859 70.6522 74.0636C70.4827 71.1486 70.3131 68.2335 70.1436 65.3184L45.4974 71.5662C45.5335 72.1474 45.5634 72.7301 45.5995 73.3112C45.9765 79.8335 46.3598 86.3542 46.7369 92.8765C46.9361 96.3219 47.1369 99.7734 47.3362 103.219L64.0916 98.9713L64.0932 98.9775ZM54.0869 79.6796L56.4603 79.078L55.9641 77.1246C55.745 76.2619 56.2912 75.4413 57.114 75.1934C57.9368 74.9455 58.8414 75.536 59.0464 76.3432L59.5426 78.2966L61.916 77.695C62.779 77.4762 63.6001 78.0223 63.8484 78.8448C64.0967 79.6673 63.5061 80.5713 62.6985 80.776L60.3251 81.3777L60.8213 83.3311C61.0404 84.1938 60.4942 85.0143 59.6714 85.2623C58.8486 85.5102 57.944 84.9197 57.739 84.1124L57.2428 82.159L54.8694 82.7607C54.0064 82.9795 53.1853 82.4333 52.937 81.6108C52.6887 80.7883 53.2793 79.8843 54.0869 79.6796ZM48.7505 98.5052C48.6509 96.589 48.5514 94.6728 48.4564 92.7489C48.42 92.0629 49.0191 91.3994 49.6541 91.2385L68.2774 86.5175C69.3377 86.2487 70.2092 87.0706 70.2577 88.0881C70.3572 90.0043 70.4568 91.9205 70.5517 93.8444C70.5715 94.1804 70.4415 94.4954 70.2388 94.7567C70.0516 95.0271 69.7671 95.2501 69.3479 95.3564L50.7307 100.076C49.6704 100.345 48.7989 99.5226 48.7505 98.5052Z" fill="white"/>
<path d="M64.882 102.058L88.9981 95.9447C90.0399 95.6806 90.4507 94.5336 89.9892 93.6208C88.1292 89.9143 86.2769 86.2124 84.4169 82.5059C81.4613 76.6045 78.5011 70.7107 75.5455 64.8092C75.1322 63.9826 74.7173 63.1499 74.2978 62.3249L72.7452 56.212C72.5339 55.3802 71.645 54.8512 70.8127 55.0622L40.5936 62.7227C39.7614 62.9337 39.2324 63.822 39.4437 64.6539L41.0714 71.0625C41.2295 71.6849 41.7633 72.1333 42.3669 72.2361C42.5412 75.1959 42.7094 78.1572 42.8837 81.117C43.2608 87.6393 43.644 94.1601 44.0211 100.682C44.11 102.195 44.1972 103.701 44.286 105.213C44.3468 106.227 45.206 107.052 46.2663 106.784L64.8897 102.063L64.882 102.058ZM76.3315 73.4579C79.2871 79.3594 82.2472 85.2532 85.2028 91.1546C85.5726 91.8873 85.9363 92.6215 86.3045 93.3481L75.1218 96.1828C74.9226 92.7375 74.7218 89.2859 74.5225 85.8405C74.1719 79.81 73.8213 73.7794 73.4707 67.7489C74.4264 69.6514 75.3758 71.5554 76.3315 73.4579ZM42.9158 65.4069L70.0526 58.5278L70.8977 61.8553L43.7609 68.7345L42.9158 65.4069ZM47.3439 103.224C47.1447 99.7791 46.9439 96.3276 46.7446 92.8822C46.3675 86.3599 45.9843 79.8391 45.6072 73.3168C45.5711 72.7356 45.5412 72.1529 45.5052 71.5717L70.1514 65.324C70.321 68.239 70.4905 71.1541 70.6601 74.0692C71.0372 80.5915 71.4204 87.1123 71.7975 93.6346C71.8648 94.7522 71.9244 95.8652 71.9918 96.9829L47.3455 103.231L47.3439 103.224Z" fill="#323232"/>
<path d="M62.2488 64.0507L70.9047 61.8561L70.0595 58.5277L42.9141 65.4102L43.7593 68.7386L62.2426 64.0523L62.2488 64.0507Z" fill="white"/>
<path d="M54.8768 82.7615L57.2502 82.1598L57.7463 84.1132C57.9514 84.9204 58.8559 85.511 59.6788 85.2631C60.5016 85.0151 61.0478 84.1945 60.8287 83.3318L60.3325 81.3784L62.7059 80.7768C63.5135 80.5721 64.1041 79.6681 63.8558 78.8456C63.6075 78.0231 62.7864 77.4769 61.9234 77.6957L59.55 78.2974L59.0538 76.344C58.8488 75.5367 57.9442 74.9462 57.1214 75.1941C56.2986 75.4421 55.7524 76.2626 55.9715 77.1253L56.4676 79.0787L54.0943 79.6804C53.2867 79.8851 52.6961 80.7891 52.9444 81.6116C53.1926 82.4341 54.0138 82.9802 54.8768 82.7615Z" fill="#96D2E6"/>
<path d="M67.1928 90.077L51.6996 94.005C51.7413 94.8408 51.7844 95.6827 51.8276 96.5246L67.3146 92.5981C67.2714 91.7562 67.2298 90.9205 67.1866 90.0786L67.1928 90.077Z" fill="white"/>
<path d="M69.358 95.3536C69.771 95.2489 70.0572 95.032 70.249 94.7538C70.4532 94.4987 70.577 94.1852 70.5619 93.8414C70.4623 91.925 70.3628 90.0086 70.2678 88.0845C70.2132 87.0685 69.3478 86.2449 68.2874 86.5137L49.6568 91.2368C49.0218 91.3978 48.421 92.0552 48.459 92.7474C48.5585 94.6638 48.6581 96.5802 48.7531 98.5043C48.8077 99.5203 49.6731 100.344 50.7334 100.075L69.358 95.3536ZM51.8312 96.517C51.788 95.6752 51.7464 94.8396 51.7032 93.9978L67.1897 90.0718C67.2313 90.9074 67.2745 91.7492 67.3177 92.591L51.8312 96.517Z" fill="#323232"/>
</g>
<defs>
<clipPath id="clip0_709_11800">
<rect width="111" height="132" fill="white" transform="translate(34 24)"/>
</clipPath>
</defs>
</svg>
