<svg width="180" height="180" viewBox="0 0 180 180" fill="none" xmlns="http://www.w3.org/2000/svg">
<circle cx="90" cy="90" r="90" fill="#96D2E6"/>
<circle cx="89.9982" cy="90.0002" r="79.6154" fill="white"/>
<mask id="mask0_709_11744" style="mask-type:alpha" maskUnits="userSpaceOnUse" x="10" y="10" width="160" height="160">
<circle cx="89.9982" cy="90.0002" r="79.6154" fill="white"/>
</mask>
<g mask="url(#mask0_709_11744)">
</g>
<g clip-path="url(#clip0_709_11744)">
<path d="M82.1257 85.3494L59.2671 62.4382C52.5569 55.7126 51.7593 44.7639 58.0245 37.6211C64.8849 29.789 76.7969 29.4994 84.033 36.7522L86.5703 39.2953L88.6799 37.1809C95.3901 30.4552 106.314 29.6558 113.44 35.9354C121.254 42.8116 121.543 54.751 114.307 62.0038L91.0149 85.3494C88.5643 87.8057 84.5879 87.8057 82.1315 85.3494H82.1257Z" fill="#12ACDE"/>
<path d="M86.5611 89.7168C84.2145 89.7168 82.0009 88.8015 80.3421 87.1332L57.4835 64.222C49.6867 56.4072 49.0914 43.9929 56.1252 35.958C59.8878 31.6597 65.0895 29.1976 70.7652 29.0123C76.3657 28.8327 81.8448 31.0051 85.8039 34.9732L86.5669 35.7379L86.8963 35.4077C94.6931 27.593 107.079 26.9963 115.095 34.0522C119.378 37.8234 121.84 43.0371 122.025 48.7258C122.204 54.3334 120.037 59.8309 116.084 63.7933L92.7916 87.139C91.1328 88.8015 88.925 89.7226 86.5726 89.7226L86.5611 89.7168ZM71.4414 34.0406C71.268 34.0406 71.1004 34.0406 70.927 34.0464C66.6558 34.1854 62.743 36.0449 59.9052 39.2774C54.611 45.3195 55.108 54.7099 61.038 60.6535L83.8966 83.5647C84.6075 84.2772 85.5554 84.6711 86.5611 84.6711C87.5667 84.6711 88.5146 84.2772 89.2255 83.5647L112.518 60.219C115.54 57.1893 117.13 53.1632 116.991 48.8764C116.852 44.5954 114.997 40.6735 111.772 37.8292C105.744 32.5228 96.375 33.021 90.445 38.9646L88.3354 41.079C87.3529 42.0638 85.7635 42.0638 84.7809 41.079L82.2436 38.5359C79.3422 35.6278 75.5219 34.0406 71.4414 34.0406Z" fill="#3E3A39"/>
<path d="M41.5928 125.077L49.1815 123.038C51.3084 122.464 52.9788 120.877 53.7706 118.821C55.2329 115.009 58.9376 108.851 68.006 106.238L89.7434 98.9103C91.957 98.1746 97.7424 97.52 99.8347 98.5511C102.066 99.6518 102.54 103.608 97.3436 106.916L83.3973 114.858C82.7268 115.368 82.9175 116.422 83.7209 116.672L98.4938 121.213C101.014 121.989 103.73 121.868 106.169 120.866L129.508 111.313C131.403 110.351 133.715 110.23 135.536 111.325C136.778 112.072 137.749 113.352 137.437 115.553C137.183 117.344 136.027 118.879 134.495 119.829L105.198 136.663C101.077 139.032 96.4825 140.434 91.7431 140.77L56.3079 143.574L41.5234 148.487L41.6044 125.083L41.5928 125.077Z" fill="white"/>
<path d="M41.5142 151.001C40.9882 151.001 40.4738 150.838 40.0403 150.52C39.3815 150.045 39 149.28 39 148.475L39.0809 125.071C39.0809 123.936 39.8496 122.939 40.942 122.644L48.5249 120.605C49.8254 120.257 50.9062 119.249 51.4205 117.917C52.9522 113.926 57.0384 106.794 67.2511 103.834L88.9423 96.5235C90.9998 95.8399 97.7852 94.7334 100.941 96.2917C102.698 97.1607 103.819 98.8986 103.929 100.944C104.085 103.869 102.178 106.823 98.6926 109.042C98.6579 109.065 98.6232 109.088 98.5886 109.106L87.7574 115.275L99.2301 118.803C101.195 119.406 103.316 119.307 105.218 118.531L128.47 109.013C131.221 107.652 134.411 107.71 136.833 109.164C139.243 110.612 140.341 113.01 139.925 115.913C139.578 118.357 138.081 120.57 135.821 121.972C135.798 121.989 135.769 122.001 135.746 122.018L106.449 138.853C102.027 141.396 97.0049 142.931 91.9246 143.29L56.813 146.065L42.3175 150.879C42.0575 150.966 41.7916 151.006 41.5257 151.006L41.5142 151.001ZM44.1035 127.012L44.0399 144.987L55.5068 141.176C55.6975 141.112 55.8998 141.071 56.1021 141.054L91.5373 138.25C95.8894 137.943 100.172 136.634 103.941 134.467L133.197 117.656C134.157 117.048 134.81 116.127 134.943 115.183C135.081 114.192 134.793 113.804 134.238 113.468C133.261 112.883 131.885 112.906 130.643 113.543C130.579 113.572 130.521 113.601 130.452 113.63L107.114 123.183C104.143 124.399 100.82 124.55 97.7505 123.606L82.9776 119.064C81.7003 118.67 80.7582 117.61 80.527 116.289C80.2901 114.968 80.8102 113.647 81.8737 112.836C81.9604 112.767 82.0529 112.709 82.1511 112.651L96.0455 104.738C98.2244 103.336 98.9527 101.957 98.9122 101.193C98.9064 101.077 98.8718 100.862 98.7273 100.793C97.6407 100.254 92.7453 100.55 90.5432 101.285L68.8116 108.613C68.7769 108.625 68.7423 108.637 68.7076 108.648C60.957 110.884 57.5875 115.895 56.1252 119.713C55.0386 122.545 52.6921 124.695 49.8427 125.465L44.115 127.006L44.1035 127.012Z" fill="#3E3A39"/>
</g>
<defs>
<clipPath id="clip0_709_11744">
<rect width="101" height="122" fill="white" transform="translate(39 29)"/>
</clipPath>
</defs>
</svg>
