<svg width="180" height="180" viewBox="0 0 180 180" fill="none" xmlns="http://www.w3.org/2000/svg">
<circle cx="90" cy="90" r="90" fill="#96D2E6"/>
<circle cx="89.9982" cy="90.0002" r="79.6154" fill="white"/>
<mask id="mask0_709_11874" style="mask-type:alpha" maskUnits="userSpaceOnUse" x="10" y="10" width="160" height="160">
<circle cx="89.9982" cy="90.0002" r="79.6154" fill="white"/>
</mask>
<g mask="url(#mask0_709_11874)">
<g clip-path="url(#clip0_709_11874)">
<path d="M80.056 84.8862C80.056 84.8862 76.0767 88.4671 71.065 91.215C71.065 91.215 55.6917 99.2721 52.5029 105.314C52.5029 105.314 26.9786 123.728 26.6875 127.182L30.1675 151.351H137.487C137.487 151.351 136.327 117.688 129.365 106.754C129.365 106.754 116.078 93.603 108.771 91.2172L105.58 87.4764C105.58 87.4764 102.969 84.0243 80.056 84.8862Z" fill="white"/>
<path d="M120.728 122.536H106.188C105.588 122.536 105.102 122.054 105.102 121.458C105.102 120.863 105.588 120.381 106.188 120.381H120.728C121.328 120.381 121.814 120.863 121.814 121.458C121.814 122.054 121.328 122.536 120.728 122.536Z" fill="black"/>
<path d="M91.1232 74.2441H89.9431H79.9062L80.2018 88.1501L90.532 97.2268L100.862 88.1501L101.158 74.2441H91.1232Z" fill="white"/>
<path d="M101.807 73.6109C101.637 73.4376 101.399 73.3398 101.155 73.3398H79.9038C79.6597 73.3398 79.4223 73.4398 79.2521 73.6109C79.0819 73.7841 78.9879 74.0196 78.9923 74.2617L79.2879 88.1699C79.2924 88.421 79.4044 88.6609 79.5947 88.8275L89.0784 97.16L84.1227 100.743C83.7174 101.036 83.6278 101.603 83.9234 102.005C84.0936 102.238 84.3691 102.376 84.6602 102.376C84.855 102.376 85.0386 102.316 85.1954 102.203L90.5094 98.3573L95.4606 102.185C95.857 102.491 96.4303 102.42 96.7393 102.027C96.8893 101.836 96.9543 101.601 96.9252 101.361C96.896 101.121 96.7729 100.907 96.5803 100.759L91.9515 97.1822L101.462 88.8275C101.652 88.6609 101.764 88.421 101.769 88.1699L102.065 74.2617C102.069 74.0196 101.975 73.7819 101.805 73.6109H101.807ZM100.226 75.1481L99.9595 87.7368L90.5318 96.0204L81.1041 87.7368L80.8376 75.1481H100.228H100.226Z" fill="black"/>
<path d="M84.6688 102.592C84.3105 102.592 83.9679 102.421 83.7574 102.132C83.3901 101.635 83.5021 100.933 84.0037 100.569L88.74 97.1431L79.4578 88.9883C79.2227 88.7817 79.0838 88.4863 79.0771 88.1731L78.7815 74.2648C78.7748 73.9672 78.8913 73.6717 79.104 73.4585C79.3167 73.2452 79.6101 73.123 79.9102 73.123H101.162C101.462 73.123 101.757 73.2452 101.968 73.4585C102.178 73.6717 102.297 73.9672 102.29 74.2648L101.995 88.1731C101.988 88.4841 101.849 88.7817 101.614 88.9883L92.3006 97.172L96.7233 100.591C96.9607 100.773 97.1129 101.037 97.1488 101.335C97.1846 101.633 97.104 101.924 96.9181 102.161C96.5352 102.648 95.8253 102.734 95.3349 102.357L90.5113 98.6292L85.3294 102.379C85.1368 102.519 84.9062 102.594 84.6666 102.594L84.6688 102.592ZM79.9124 73.5562C79.7265 73.5562 79.5474 73.6317 79.4175 73.7628C79.2876 73.8939 79.216 74.076 79.2204 74.2582L79.516 88.1664C79.5205 88.3574 79.6056 88.5396 79.7489 88.6662L89.2326 96.9987C89.2819 97.0431 89.3088 97.1053 89.3065 97.1698C89.3043 97.2342 89.2707 97.2964 89.217 97.3341L84.2612 100.917C83.9522 101.142 83.885 101.573 84.109 101.879C84.3262 102.175 84.7808 102.246 85.0786 102.03L90.3949 98.1849C90.4732 98.1294 90.5807 98.1294 90.6569 98.1894L95.6081 102.017C95.9104 102.25 96.3471 102.195 96.5822 101.897C96.6964 101.753 96.7457 101.57 96.7233 101.388C96.7009 101.206 96.6069 101.044 96.4613 100.931L91.8325 97.3519C91.781 97.3142 91.7519 97.2542 91.7497 97.1898C91.7497 97.1253 91.7743 97.0631 91.8236 97.0209L101.334 88.6662C101.48 88.5396 101.565 88.3574 101.567 88.1664L101.863 74.2582C101.867 74.0738 101.795 73.8939 101.666 73.7628C101.536 73.6317 101.354 73.5562 101.171 73.5562H79.9191H79.9124ZM90.5382 96.2368C90.4867 96.2368 90.4352 96.219 90.3949 96.1835L80.9671 87.8998C80.9224 87.8599 80.8955 87.8021 80.8932 87.7421L80.6268 75.1534C80.6268 75.0957 80.6469 75.0401 80.6895 74.9979C80.7298 74.9557 80.7858 74.9335 80.844 74.9335H100.235C100.293 74.9335 100.349 74.9579 100.389 74.9979C100.429 75.0401 100.452 75.0957 100.452 75.1534L100.185 87.7421C100.185 87.8021 100.158 87.8599 100.111 87.8998L90.6837 96.1835C90.6434 96.219 90.5919 96.2368 90.5404 96.2368H90.5382ZM81.3254 87.6377L90.5382 95.7325L99.7509 87.6377L100.011 75.3622H81.0634L81.3232 87.6377H81.3254Z" fill="black"/>
<path d="M104.088 91.2827L103.694 89.4278C103.591 88.9413 103.107 88.6281 102.614 88.7303C102.124 88.8325 101.808 89.3123 101.911 89.801L102.252 91.4026L83.9292 141.764C83.759 142.233 84.0031 142.753 84.4756 142.921C84.5763 142.957 84.6794 142.975 84.7846 142.975C85.1675 142.975 85.5102 142.735 85.64 142.377L104.052 91.7736C104.11 91.6159 104.122 91.4448 104.088 91.2804V91.2827Z" fill="black"/>
<path d="M84.7922 143.193C84.6623 143.193 84.5324 143.171 84.4093 143.126C84.1271 143.024 83.9009 142.82 83.7711 142.549C83.6434 142.278 83.63 141.973 83.7308 141.694L102.033 91.3898L101.706 89.8482C101.578 89.2439 101.968 88.6486 102.577 88.522C103.186 88.3954 103.786 88.7841 103.914 89.3861L104.308 91.241C104.351 91.4453 104.335 91.6564 104.266 91.8519L85.8537 142.455C85.6924 142.898 85.267 143.195 84.7922 143.195V143.193ZM102.808 88.9285C102.761 88.9285 102.714 88.9329 102.667 88.944C102.293 89.0218 102.053 89.3883 102.132 89.7593L102.472 91.3609C102.481 91.4009 102.476 91.4409 102.463 91.4787L84.1406 141.84C84.0779 142.013 84.0868 142.2 84.1652 142.367C84.2436 142.533 84.3824 142.66 84.5571 142.722C84.9176 142.849 85.3185 142.655 85.4461 142.309L103.858 91.7052C103.903 91.5853 103.912 91.4542 103.885 91.3298L103.491 89.4772C103.421 89.1528 103.133 88.9307 102.81 88.9307L102.808 88.9285Z" fill="black"/>
<path d="M88.0551 121.846C88.1536 121.846 88.2521 121.83 88.3462 121.799C88.8209 121.639 89.0784 121.126 88.9194 120.655L79.3193 92.379L79.2252 89.68C79.2073 89.1824 78.7818 88.7914 78.2847 88.8092C78.0406 88.8181 77.8167 88.918 77.651 89.0957C77.4853 89.2712 77.3979 89.5023 77.4069 89.7444L77.5054 92.5745C77.5076 92.6611 77.5233 92.7477 77.5524 92.8321L87.1951 121.233C87.3205 121.602 87.6676 121.848 88.0573 121.848L88.0551 121.846Z" fill="black"/>
<path d="M88.0559 122.062C87.5722 122.062 87.1423 121.755 86.9877 121.3L77.345 92.8994C77.3092 92.7972 77.2913 92.6883 77.2868 92.5817L77.1883 89.7516C77.1771 89.4539 77.2846 89.1674 77.4906 88.9497C77.6966 88.732 77.9766 88.6054 78.2766 88.5965C78.5812 88.5854 78.8611 88.692 79.0828 88.8964C79.3045 89.1008 79.4321 89.3784 79.4433 89.6761L79.5351 92.3418L89.1241 120.587C89.3234 121.171 89.0054 121.807 88.4165 122.004C88.2978 122.044 88.1769 122.064 88.0559 122.064V122.062ZM78.3169 89.0252C78.3169 89.0252 78.3013 89.0252 78.2923 89.0252C78.1064 89.0319 77.9362 89.1074 77.8086 89.2429C77.6832 89.3762 77.616 89.5517 77.6227 89.7361L77.7213 92.5661C77.7213 92.6328 77.7347 92.6994 77.7571 92.7616L87.3998 121.162C87.5185 121.513 87.9193 121.715 88.2799 121.595C88.6426 121.473 88.8375 121.082 88.7165 120.725L79.1164 92.4484C79.1097 92.4284 79.1052 92.4084 79.1052 92.3862L79.0111 89.6872C79.0044 89.505 78.926 89.334 78.7894 89.2096C78.6596 89.0896 78.4938 89.023 78.3192 89.023L78.3169 89.0252Z" fill="black"/>
<path d="M57.8208 151.868C57.2363 151.868 56.7526 151.406 56.7369 150.822L55.9442 122.53L53.295 113.694C53.1249 113.123 53.4518 112.525 54.0251 112.354C54.6006 112.183 55.203 112.51 55.3754 113.078L58.0649 122.051C58.0918 122.139 58.1074 122.233 58.1097 122.328L58.9069 150.762C58.9226 151.358 58.4523 151.853 57.8521 151.868C57.841 151.868 57.832 151.868 57.8208 151.868Z" fill="black"/>
<path d="M48.96 113.953C48.8436 113.953 48.7227 113.933 48.6062 113.896C48.0396 113.702 47.7396 113.089 47.9344 112.527C49.5647 107.836 53.02 103.129 58.2041 98.5347C62.0357 95.1404 65.3522 93.1278 65.4932 93.0433C66.0061 92.7346 66.6734 92.8967 66.9847 93.4032C67.2959 93.9119 67.1325 94.5739 66.6219 94.8827C66.492 94.9604 53.5955 102.844 49.9879 113.229C49.8334 113.676 49.4124 113.956 48.9623 113.956L48.96 113.953Z" fill="black"/>
<path d="M123.336 151.869C123.336 151.869 123.316 151.869 123.305 151.869C122.705 151.853 122.235 151.358 122.25 150.762L123.048 122.328C123.05 122.235 123.066 122.142 123.092 122.051L125.782 113.078C125.952 112.508 126.557 112.183 127.132 112.354C127.708 112.523 128.035 113.123 127.862 113.694L125.213 122.531L124.42 150.822C124.405 151.407 123.921 151.869 123.336 151.869Z" fill="black"/>
<path d="M137.803 152.272C137.212 152.272 136.728 151.801 136.719 151.215C136.477 137.389 131.438 114.506 131.143 113.173C127.506 102.815 114.659 94.9619 114.529 94.8842C114.016 94.5754 113.855 93.9134 114.166 93.4047C114.477 92.896 115.143 92.7339 115.658 93.0448C116.215 93.3803 129.349 101.402 133.216 112.529C133.23 112.567 133.241 112.607 133.25 112.647C133.304 112.886 138.64 136.787 138.891 151.177C138.902 151.772 138.423 152.261 137.825 152.272C137.818 152.272 137.812 152.272 137.805 152.272H137.803Z" fill="black"/>
<path d="M70.8365 91.9805L65.8203 102.994L78.2152 106.922L69.0428 111.542L84.3622 129.327L81.7556 112.513L77.1918 96.6699L70.8365 91.9805Z" fill="white"/>
<path d="M110.151 91.9805L115.169 102.994L102.772 106.922L111.094 113.159L96.625 129.327L99.2316 112.513L103.795 96.6699L110.151 91.9805Z" fill="white"/>
<path d="M85.8522 130.11L70.2662 111.913L78.2137 106.919C78.5115 106.732 78.675 106.388 78.6302 106.041C78.5854 105.695 78.3391 105.402 78.0055 105.295L67.9552 102.105L71.7487 91.8155L76.4043 87.7815C76.5947 87.6304 76.7156 87.4172 76.7425 87.1772C76.7693 86.9373 76.7021 86.7019 76.5499 86.513C76.3976 86.3242 76.1826 86.2043 75.9408 86.1776C75.6989 86.151 75.4615 86.2176 75.2712 86.3687L70.461 90.5271C70.358 90.6093 70.2752 90.7093 70.2147 90.827L65.848 102.238C65.727 102.476 65.7181 102.752 65.8211 102.996C65.9241 103.24 66.1301 103.427 66.3832 103.507L75.5959 106.43L68.3874 110.96C68.1612 111.102 68.0089 111.335 67.9731 111.599C67.9373 111.864 68.0179 112.128 68.1948 112.326L84.4974 131.321C84.6698 131.512 84.9161 131.621 85.1759 131.621C85.3998 131.621 85.617 131.539 85.785 131.39C85.9664 131.228 86.0739 131.008 86.0851 130.766C86.0985 130.524 86.0157 130.293 85.8544 130.115L85.8522 130.11Z" fill="black"/>
<path d="M85.1749 131.832C84.8546 131.832 84.5501 131.696 84.3351 131.459L68.0281 112.461C67.8108 112.221 67.7101 111.895 67.7548 111.566C67.7996 111.24 67.9877 110.951 68.2677 110.775L75.0843 106.492L66.3149 103.709C65.9992 103.609 65.7461 103.378 65.6185 103.076C65.4909 102.774 65.5043 102.432 65.6521 102.138L70.0099 90.7471C70.095 90.5805 70.1958 90.4561 70.3234 90.3561L75.1268 86.2043C75.3687 86.0133 75.6643 85.9289 75.9644 85.9622C76.2644 85.9955 76.5309 86.1443 76.719 86.3776C76.9071 86.6108 76.9922 86.9041 76.9564 87.1995C76.9228 87.4972 76.7728 87.7615 76.5376 87.9481L71.9335 91.94L68.2363 101.967L78.0716 105.088C78.4859 105.222 78.7904 105.584 78.8464 106.013C78.9024 106.441 78.6986 106.87 78.3314 107.101L70.5944 111.962L86.0169 129.968C86.2162 130.188 86.3169 130.475 86.3013 130.772C86.2856 131.07 86.1535 131.346 85.9273 131.545C85.719 131.73 85.4525 131.832 85.1749 131.832ZM75.8345 86.3865C75.6777 86.3865 75.5277 86.4376 75.4045 86.5353L70.6011 90.6871C70.5137 90.756 70.451 90.8315 70.4063 90.9226L66.0507 102.312C65.9499 102.514 65.941 102.723 66.0193 102.909C66.0977 103.096 66.2545 103.238 66.4471 103.298L75.6598 106.221C75.7404 106.246 75.7986 106.317 75.8098 106.399C75.821 106.481 75.783 106.563 75.7113 106.608L68.5028 111.137C68.3304 111.246 68.2139 111.424 68.187 111.624C68.1579 111.826 68.2206 112.026 68.355 112.175L84.662 131.174C84.9017 131.439 85.363 131.468 85.6384 131.223C85.7772 131.101 85.8579 130.932 85.8668 130.748C85.8758 130.564 85.8153 130.388 85.6922 130.253C85.6922 130.253 85.6899 130.25 85.6877 130.248L70.1017 112.05C70.0614 112.004 70.0435 111.942 70.0524 111.879C70.0614 111.817 70.0972 111.764 70.151 111.73L78.0985 106.737C78.3246 106.595 78.45 106.332 78.4165 106.068C78.3829 105.804 78.1948 105.582 77.9395 105.499L67.8892 102.31C67.8332 102.292 67.7862 102.252 67.7616 102.198C67.7347 102.145 67.7325 102.085 67.7526 102.03L71.5461 91.7401C71.5595 91.7067 71.5797 91.6756 71.6066 91.6512L76.2622 87.6171C76.4145 87.4972 76.5063 87.3328 76.5287 87.1506C76.5488 86.9685 76.4973 86.7885 76.3831 86.6442C76.2667 86.4998 76.1032 86.4087 75.9196 86.3887C75.8927 86.3865 75.8658 86.3842 75.839 86.3842L75.8345 86.3865Z" fill="black"/>
<path d="M115.549 102.632L110.349 90.9936C110.327 90.9536 110.3 90.9158 110.271 90.8803L105.761 86.5263C105.608 86.3375 105.391 86.2198 105.149 86.1931C104.908 86.1665 104.67 86.2353 104.48 86.3864C104.088 86.6974 104.025 87.2683 104.339 87.657L108.802 91.951L113.375 102.512L102.276 105.43C101.94 105.519 101.681 105.795 101.616 106.135C101.551 106.472 101.69 106.826 101.967 107.03L109.724 112.737L91.3169 133.529C90.9832 133.9 91.0146 134.473 91.3885 134.804C91.5565 134.953 91.7715 135.035 91.9954 135.035C92.2552 135.035 92.5015 134.926 92.6739 134.733L111.747 113.203C111.917 113.014 112 112.761 111.973 112.51C111.946 112.259 111.814 112.026 111.61 111.877L104.572 106.699L114.991 103.96C115.262 103.889 115.491 103.691 115.598 103.433C115.706 103.176 115.688 102.876 115.547 102.636L115.549 102.632Z" fill="black"/>
<path d="M92.0032 135.248C91.7255 135.248 91.459 135.146 91.2508 134.963C90.7872 134.552 90.7469 133.844 91.1612 133.384L109.412 112.769L101.843 107.203C101.498 106.949 101.326 106.514 101.406 106.094C101.487 105.674 101.809 105.332 102.226 105.223L113.08 102.369L108.624 92.077L104.192 87.8141C103.787 87.3121 103.865 86.6057 104.351 86.2214C104.586 86.0348 104.884 85.9504 105.18 85.9837C105.48 86.017 105.748 86.1636 105.937 86.3969L110.429 90.7308C110.482 90.7952 110.516 90.8419 110.543 90.8908L115.747 102.538C115.915 102.835 115.938 103.2 115.805 103.515C115.671 103.835 115.389 104.079 115.053 104.168L105.07 106.792L111.748 111.703C112.003 111.89 112.166 112.176 112.198 112.489C112.229 112.8 112.128 113.114 111.916 113.349L92.8452 134.879C92.6302 135.119 92.3234 135.254 92.0032 135.254V135.248ZM105.054 86.4035C104.897 86.4035 104.747 86.4568 104.622 86.5546C104.324 86.7923 104.275 87.2254 104.515 87.5231L108.96 91.7971C108.98 91.8171 108.995 91.8415 109.009 91.866L113.582 102.429C113.606 102.487 113.604 102.551 113.577 102.609C113.55 102.664 113.499 102.706 113.438 102.722L102.34 105.641C102.085 105.708 101.886 105.919 101.836 106.176C101.787 106.434 101.892 106.703 102.105 106.858L109.862 112.565C109.911 112.601 109.943 112.656 109.949 112.716C109.956 112.776 109.936 112.836 109.896 112.88L91.4881 133.673C91.2329 133.957 91.2552 134.393 91.5419 134.646C91.8173 134.89 92.2764 134.863 92.5205 134.59L111.591 113.06C111.723 112.916 111.786 112.723 111.766 112.532C111.745 112.338 111.645 112.163 111.488 112.05L104.447 106.872C104.38 106.823 104.349 106.738 104.364 106.658C104.38 106.576 104.441 106.512 104.521 106.492L114.941 103.753C115.147 103.697 115.322 103.548 115.405 103.351C115.487 103.155 115.472 102.926 115.364 102.742C115.36 102.735 115.358 102.729 115.353 102.722L110.153 91.084C110.153 91.084 110.126 91.044 110.104 91.0174L105.612 86.6856C105.477 86.5235 105.312 86.4324 105.128 86.4124C105.101 86.4102 105.077 86.408 105.05 86.408L105.054 86.4035Z" fill="black"/>
<path d="M71.4056 59.4698C71.0518 59.5276 70.7114 59.7719 70.4225 60.1762C70.3486 60.2806 70.2815 60.3939 70.2188 60.5117C70.7069 60.3917 71.2018 60.3606 71.6228 60.3473L71.5467 59.4609C71.4974 59.4609 71.4504 59.4654 71.4079 59.472L71.4056 59.4698Z" fill="white"/>
<path d="M111.103 60.1767C111.088 60.1545 111.072 60.1389 111.056 60.1189C110.716 60.1189 110.335 60.1789 109.91 60.3078L109.708 62.6802C109.661 63.2334 109.153 63.6621 108.57 63.611C108.286 63.5888 108.029 63.4577 107.845 63.2445C107.668 63.0379 107.585 62.778 107.608 62.5114L107.939 58.6262C107.684 56.347 106.949 53.5991 106.024 51.4888C105.917 51.24 105.912 50.9667 106.015 50.7157C106.076 50.5713 106.168 50.4469 106.284 50.3448C106.374 50.267 106.472 50.1981 106.586 50.1537C106.68 50.1159 106.777 50.096 106.873 50.0848C106.32 49.1052 105.129 47.7835 105.129 47.7835C102.809 44.1737 99.9601 40.7994 96.516 38.9334C96.2876 39.0311 96.0659 39.1444 95.8531 39.2755C95.6023 39.4288 95.3605 39.6043 95.1388 39.8108C94.9439 39.993 94.6887 40.093 94.4222 40.093C94.1243 40.093 93.8399 39.9663 93.6406 39.7464C93.2868 39.3555 93.2779 38.7712 93.5936 38.3669C93.6272 38.3225 93.663 38.2803 93.7056 38.2403C93.831 38.1248 93.9586 38.016 94.0885 37.9115C91.7976 37.2207 89.2716 37.2185 86.5015 38.1981C86.4523 38.3181 86.4075 38.4469 86.3605 38.5691C86.2955 38.7379 86.2261 38.9023 86.1656 39.0778C86.0201 39.5087 85.617 39.7997 85.1624 39.7997C85.046 39.7997 84.9295 39.7797 84.8175 39.742C84.6339 39.6776 84.4816 39.5665 84.363 39.4265C84.3562 39.4199 84.3495 39.4132 84.3428 39.4043C82.1863 41.0615 79.7924 42.1078 79.7924 42.1078C76.1199 44.0493 74.9755 45.4621 74.2052 48.4832C73.6095 49.8472 73.2199 51.5887 72.6824 54.5099C72.819 54.5499 72.9444 54.6143 73.0519 54.7032C73.2714 54.8809 73.4169 55.1408 73.4326 55.4384L73.5871 58.5706L73.9253 62.5158C73.9477 62.7824 73.8648 63.0423 73.6879 63.2489C73.5043 63.4622 73.2468 63.5932 72.9624 63.6154C72.9332 63.6177 72.9041 63.6177 72.875 63.6177C72.3309 63.6177 71.8718 63.2067 71.827 62.6824L71.6277 60.3477C71.2089 60.3611 70.7118 60.3922 70.2236 60.5121C69.7287 61.4362 69.5652 62.778 69.8026 64.133C70.3333 67.1652 72.1629 69.9065 72.9153 69.7865C73.0586 69.7621 73.202 69.7065 73.3542 69.6154C73.6409 69.4422 73.9992 69.4089 74.3105 69.5333C74.624 69.6554 74.8613 69.9198 74.9397 70.2397C75.2532 71.497 75.9519 73.6762 77.4008 76.0509C77.7255 76.584 78.086 77.1238 78.4891 77.668C78.8205 78.1145 79.1788 78.5611 79.5685 79.0053C80.7822 80.387 82.2893 81.7399 84.1614 82.9239C84.3943 83.0705 84.6317 83.2171 84.8758 83.3593C85.1064 83.5015 90.463 86.7003 96.563 83.4104C96.6033 83.3882 96.6436 83.3704 96.6817 83.3482C98.9524 82.0264 100.719 80.4581 102.101 78.8543C102.455 78.4433 102.784 78.0301 103.089 77.617C103.449 77.1282 103.774 76.644 104.069 76.1642C105.563 73.745 106.277 71.517 106.598 70.2397C106.676 69.922 106.911 69.6577 107.227 69.5333C107.54 69.4111 107.896 69.4422 108.183 69.6154C108.335 69.7087 108.481 69.7643 108.624 69.7887C109.39 69.9153 111.206 67.1586 111.735 64.133C112.001 62.6047 111.762 61.0897 111.108 60.1789L111.103 60.1767ZM98.6165 57.2022C99.4182 57.1956 100.072 57.8353 100.079 58.6306C100.086 59.4259 99.4406 60.0767 98.6389 60.0812C97.8372 60.0878 97.1811 59.4481 97.1743 58.6528C97.1676 57.8575 97.8148 57.2089 98.6143 57.2022H98.6165ZM89.3567 69.882C89.5448 69.691 89.7979 69.5866 90.0666 69.5844L91.679 69.571C91.9477 69.571 92.2007 69.671 92.3933 69.8576C92.5837 70.0442 92.6911 70.2952 92.6934 70.5618C92.6956 70.8283 92.5926 71.0794 92.4045 71.2704C92.344 71.3304 92.2746 71.3792 92.203 71.4237C92.0507 71.5148 91.8783 71.5681 91.6946 71.5681L90.0823 71.5814C89.9457 71.5814 89.8158 71.557 89.6926 71.5081C89.6367 71.4859 89.5829 71.457 89.5314 71.4237C89.4732 71.3859 89.4172 71.3437 89.3657 71.2948C89.1753 71.1082 89.0679 70.8572 89.0656 70.5906C89.0634 70.3241 89.1664 70.0731 89.3545 69.882H89.3567ZM83.1223 57.3222C83.924 57.3155 84.5779 57.9553 84.5846 58.7506C84.5914 59.5458 83.9464 60.1967 83.1447 60.2011C82.343 60.2078 81.6892 59.568 81.6824 58.7728C81.6757 57.9775 82.3207 57.3289 83.1223 57.3222ZM96.4354 75.4689C94.505 76.4263 92.5859 76.7395 90.8997 76.7395C87.8004 76.7395 85.4916 75.6799 85.3438 75.611C84.8377 75.3733 84.6227 74.7736 84.8623 74.2715C85.1019 73.7695 85.7043 73.5562 86.2104 73.7917C86.2575 73.8139 90.9512 75.9398 95.5284 73.6695C96.03 73.4207 96.6391 73.6229 96.8877 74.1182C97.1385 74.6158 96.9347 75.2201 96.4354 75.4666V75.4689Z" fill="white"/>
<path d="M98.5078 83.4087H99.735C100.637 82.7423 101.45 82.0403 102.183 81.3206L102.147 80.332C101.123 81.4072 99.9209 82.4535 98.5078 83.4087Z" fill="black"/>
<path d="M82.0782 82.7368C81.1646 82.0482 80.345 81.324 79.6172 80.582L79.653 81.6239C80.0091 81.9615 80.383 82.2925 80.7772 82.6191L82.0782 82.7346V82.7368Z" fill="black"/>
<path d="M90.8181 86.613C93.1627 86.613 95.4401 86.011 97.5854 84.827C98.3558 84.3782 99.0724 83.9028 99.7397 83.4097H98.5125C98.0938 83.6918 97.6593 83.9673 97.2025 84.2316C90.3881 87.9969 84.3284 84.2316 84.3284 84.2316C83.52 83.7607 82.7743 83.2586 82.0823 82.7366L80.7812 82.6211C81.7173 83.3964 82.7586 84.1361 83.9276 84.8158C84.0507 84.8914 86.8611 86.6152 90.8203 86.6152L90.8181 86.613Z" fill="black"/>
<path d="M77.4688 78.0293L77.5135 79.2888C77.8472 79.7087 78.2055 80.1263 78.5907 80.5417L78.5504 79.4066C78.1607 78.949 77.8002 78.4891 77.471 78.0293H77.4688Z" fill="black"/>
<path d="M103.141 79.2173L103.179 80.2747C103.53 79.8815 103.859 79.4839 104.168 79.0885L104.126 77.9355C103.821 78.3621 103.494 78.7908 103.141 79.2173Z" fill="black"/>
<path d="M102.148 80.3314L102.184 81.3199C102.534 80.9756 102.865 80.6291 103.179 80.2781L103.14 79.2207C102.831 79.5939 102.5 79.9649 102.148 80.3336V80.3314Z" fill="black"/>
<path d="M78.5469 79.4062L78.5872 80.5414C78.9231 80.9057 79.2791 81.2678 79.6576 81.6232L79.6218 80.5814C79.2411 80.1926 78.885 79.7994 78.5491 79.4062H78.5469Z" fill="black"/>
<path d="M97.1953 83.4077H98.5121C99.9251 82.4525 101.128 81.4062 102.151 80.3311L102.115 79.3203C100.825 80.7731 99.2085 82.1859 97.1953 83.4077Z" fill="black"/>
<path d="M79.5781 79.502L79.6162 80.5816C80.3462 81.3235 81.1636 82.0477 82.0773 82.7363L83.4724 82.8607C81.9317 81.8233 80.6485 80.6771 79.5781 79.502Z" fill="black"/>
<path d="M97.2061 84.2311C97.6607 83.9667 98.0974 83.6913 98.5161 83.4091H97.1994C97.0807 83.4802 96.9643 83.5535 96.8433 83.6246C90.5283 87.1167 84.9434 83.7779 84.7105 83.6335C84.2828 83.3847 83.8752 83.127 83.4811 82.8627L82.0859 82.7383C82.7779 83.2603 83.5236 83.7623 84.332 84.2333C84.332 84.2333 90.3917 87.9986 97.2061 84.2333V84.2311Z" fill="black"/>
<path d="M77.4219 76.6897L77.4689 78.0292C77.8003 78.4868 78.1586 78.9489 78.5483 79.4065L78.508 78.2225C78.1094 77.7093 77.7488 77.1962 77.4219 76.6875V76.6897Z" fill="black"/>
<path d="M103.102 78.1213L103.142 79.2187C103.496 78.7922 103.823 78.3635 104.127 77.937L104.085 76.7285C103.787 77.1883 103.46 77.6548 103.102 78.1213Z" fill="black"/>
<path d="M102.119 79.3207L102.155 80.3314C102.507 79.9626 102.838 79.5917 103.147 79.2185L103.107 78.1211C102.8 78.5209 102.471 78.923 102.117 79.3207H102.119Z" fill="black"/>
<path d="M78.5022 78.2227L78.5425 79.4067C78.8785 79.8021 79.2345 80.193 79.6152 80.5818L79.5771 79.5022C79.192 79.0779 78.8314 78.6514 78.5 78.2227H78.5022Z" fill="black"/>
<path d="M100.272 83.4078C100.969 82.8747 101.611 82.3193 102.2 81.7529L102.193 81.5352C101.533 82.1771 100.807 82.8058 100.008 83.4078H100.272Z" fill="black"/>
<path d="M97.6667 84.9669C95.2146 86.322 92.8655 86.7752 90.821 86.7752C86.8439 86.7752 84.0223 85.0647 83.8476 84.9536C82.598 84.2272 81.4896 83.4297 80.5042 82.5967L80.2266 82.5723C81.2611 83.4653 82.4346 84.3161 83.7625 85.0891C83.8834 85.1646 86.7722 86.9351 90.821 86.9351C93.2216 86.9351 95.5505 86.3198 97.7473 85.1069C98.6632 84.5737 99.5008 84.0051 100.276 83.4097H100.011C99.2903 83.954 98.5087 84.476 97.6667 84.9669Z" fill="black"/>
<path d="M78.5983 80.7856C78.2154 80.3769 77.8593 79.9659 77.5234 79.5527L77.5324 79.8215C77.8683 80.228 78.2244 80.6323 78.6073 81.0322L78.5983 80.7878V80.7856Z" fill="black"/>
<path d="M103.188 80.5041L103.196 80.7352C103.546 80.3553 103.877 79.971 104.188 79.5867L104.18 79.3379C103.871 79.7266 103.539 80.1176 103.19 80.5041H103.188Z" fill="black"/>
<path d="M102.195 81.5346L102.202 81.7523C102.551 81.4169 102.883 81.077 103.199 80.7349L103.19 80.5039C102.876 80.8504 102.545 81.1948 102.195 81.5346Z" fill="black"/>
<path d="M79.6709 82.08L79.6619 81.8512C79.2857 81.5002 78.9297 81.1448 78.5938 80.7871L78.6027 81.0315C78.9408 81.3847 79.2969 81.7356 79.6709 82.08Z" fill="black"/>
<path d="M83.815 82.8933L84.1554 82.9244C82.2856 81.7382 80.7762 80.3876 79.5625 79.0059L79.5715 79.2547C80.7135 80.5342 82.1109 81.7804 83.815 82.8933Z" fill="black"/>
<path d="M96.6734 83.3457C96.6331 83.3679 96.5928 83.3857 96.5547 83.4079H96.8816C99.0449 82.1284 100.756 80.629 102.102 79.0873L102.093 78.8496C100.713 80.4535 98.9441 82.0218 96.6734 83.3435V83.3457Z" fill="black"/>
<path d="M84.8672 83.3571C84.6231 83.215 84.3858 83.0683 84.1529 82.9217L83.8125 82.8906C84.1283 83.0972 84.4485 83.2994 84.7844 83.4948C85.0352 83.6481 90.5149 86.9336 96.7515 83.486C96.7941 83.4615 96.8366 83.4349 96.8792 83.4082H96.5522C90.4522 86.7003 85.0934 83.4993 84.865 83.3571H84.8672Z" fill="black"/>
<path d="M103.089 77.8679C103.448 77.3925 103.775 76.9171 104.07 76.4484L104.059 76.1641C103.763 76.6417 103.439 77.1282 103.078 77.6169L103.087 77.8701L103.089 77.8679Z" fill="black"/>
<path d="M78.4957 77.9456L78.4868 77.668C78.0837 77.1237 77.7231 76.5817 77.3984 76.0508L77.4096 76.3751C77.7343 76.8927 78.0971 77.4192 78.4957 77.9456Z" fill="black"/>
<path d="M79.5637 79.0033C79.1741 78.559 78.8158 78.1125 78.4844 77.666L78.4933 77.9437C78.8248 78.3813 79.1831 78.8167 79.5705 79.2521L79.5615 79.0033H79.5637Z" fill="black"/>
<path d="M102.103 79.0863C102.457 78.682 102.786 78.2733 103.09 77.8646L103.081 77.6113C102.777 78.0245 102.448 78.4377 102.094 78.8487L102.103 79.0863Z" fill="black"/>
<path d="M80.7804 82.6202C80.3863 82.2936 80.0123 81.9627 79.6562 81.625L79.663 81.8516C79.9317 82.1026 80.2094 82.3514 80.4982 82.5958L80.7782 82.6202H80.7804Z" fill="black"/>
<path d="M100.011 83.4084C100.808 82.8064 101.534 82.18 102.197 81.5358L102.19 81.3203C101.458 82.04 100.647 82.742 99.7422 83.4084H100.013H100.011Z" fill="black"/>
<path d="M90.8134 86.7725C92.858 86.7725 95.207 86.3193 97.6591 84.9643C98.5034 84.4733 99.2827 83.9513 100.004 83.4071H99.7328C99.0655 83.9002 98.3489 84.3756 97.5785 84.8243C95.4332 86.0105 93.1558 86.6103 90.8112 86.6103C86.8542 86.6103 84.0416 84.8865 83.9184 84.811C82.7517 84.1312 81.7082 83.3915 80.7721 82.6162L80.4922 82.5918C81.4797 83.427 82.5882 84.2223 83.8356 84.9487C84.0102 85.0576 86.8341 86.7703 90.8089 86.7703L90.8134 86.7725Z" fill="black"/>
<path d="M77.5101 79.2893L77.519 79.5515C77.8549 79.9646 78.211 80.3778 78.5939 80.7843L78.5849 80.54C78.202 80.1246 77.8437 79.707 77.5078 79.2871L77.5101 79.2893Z" fill="black"/>
<path d="M103.18 80.2783L103.189 80.5049C103.54 80.1184 103.869 79.7296 104.178 79.3386L104.169 79.0898C103.86 79.4853 103.531 79.8829 103.18 80.2761V80.2783Z" fill="black"/>
<path d="M79.6631 81.8514L79.6564 81.6248C79.2801 81.2671 78.9241 80.9073 78.5859 80.543L78.5949 80.7873C78.9308 81.1472 79.2891 81.5004 79.6631 81.8514Z" fill="black"/>
<path d="M102.182 81.3192L102.189 81.5347C102.538 81.1948 102.869 80.8505 103.183 80.5039L103.174 80.2773C102.86 80.6283 102.529 80.9749 102.18 81.3192H102.182Z" fill="black"/>
<path d="M102.112 79.3211L102.103 79.0879C100.757 80.6273 99.046 82.129 96.8828 83.4085H97.1918C99.205 82.1868 100.82 80.7739 102.112 79.3211Z" fill="black"/>
<path d="M79.5703 79.2539L79.5793 79.5027C80.6497 80.6778 81.9328 81.8263 83.4735 82.8615L83.8139 82.8926C82.112 81.7796 80.7146 80.5334 79.5703 79.2539Z" fill="black"/>
<path d="M96.7638 83.4858C90.5249 86.9334 85.0475 83.6502 84.7966 83.4947C84.4607 83.2992 84.1383 83.0971 83.8248 82.8905L83.4844 82.8594C83.8785 83.1237 84.2861 83.3814 84.7138 83.6302C84.9489 83.7746 90.5317 87.1134 96.8467 83.6213C96.9676 83.5502 97.084 83.4769 97.2027 83.4058H96.8937C96.8511 83.4303 96.8086 83.4569 96.766 83.4836L96.7638 83.4858Z" fill="black"/>
<path d="M104.086 76.7294L104.075 76.4473C103.777 76.916 103.452 77.3914 103.094 77.8667L103.103 78.1222C103.459 77.6557 103.786 77.1914 104.086 76.7294Z" fill="black"/>
<path d="M78.5091 78.2235L78.5002 77.9436C78.0993 77.4171 77.7388 76.8906 77.4141 76.373L77.4253 76.6885C77.7522 77.195 78.1127 77.7081 78.5114 78.2235H78.5091Z" fill="black"/>
<path d="M102.108 79.3203C102.462 78.9226 102.791 78.5228 103.098 78.1207L103.089 77.8652C102.782 78.2718 102.455 78.6805 102.102 79.087L102.111 79.3203H102.108Z" fill="black"/>
<path d="M79.5861 79.5025L79.5771 79.2537C79.1897 78.8205 78.8314 78.3829 78.5 77.9453L78.509 78.2252C78.8404 78.6517 79.2009 79.0805 79.5861 79.5047V79.5025Z" fill="black"/>
<path d="M77.5165 79.5533L77.5075 79.2912L77.4628 78.0316L77.4157 76.6921L77.4045 76.3767L77.3933 76.0524C75.9445 73.6755 75.2458 71.4985 74.9323 70.2412C74.8539 69.9213 74.6165 69.6592 74.303 69.5348C73.9895 69.4126 73.6334 69.4437 73.3468 69.617C73.1968 69.7103 73.0512 69.7658 72.9079 69.788C72.1532 69.908 70.3259 67.1645 69.7952 64.1345C69.5578 62.7795 69.7213 61.4377 70.2162 60.5136C70.2789 60.3959 70.3461 60.2826 70.42 60.1782C70.7088 59.7739 71.0492 59.5295 71.403 59.4718C71.4456 59.4651 71.4926 59.4607 71.5419 59.4607L71.618 60.347L71.8173 62.6817C71.8621 63.206 72.3234 63.6169 72.8653 63.6169C72.8945 63.6169 72.9236 63.6169 72.9527 63.6147C73.2393 63.5925 73.4968 63.4614 73.6782 63.2482C73.8551 63.0416 73.938 62.7817 73.9156 62.5151L73.5775 58.5699L73.4229 55.4377C73.4073 55.1423 73.2617 54.8801 73.0422 54.7024C72.9348 54.6158 72.8094 54.5492 72.6728 54.5092C72.5608 54.4781 72.4443 54.4581 72.3212 54.467C72.0345 54.4803 71.7725 54.6003 71.5822 54.8091C71.3986 55.009 71.3045 55.2667 71.3179 55.5332L71.412 57.4214C71.2911 57.4281 71.1724 57.4414 71.0537 57.4592C70.2542 57.5903 69.5399 58.0012 68.9644 58.6521C68.8658 58.7654 68.7695 58.8809 68.6777 59.0075C67.6969 60.3759 67.3453 62.3663 67.7126 64.47C68.1963 67.2356 70.2946 72.1982 73.1856 71.8028C73.8126 73.8287 75.0734 76.861 77.521 79.8176L77.512 79.5489L77.5165 79.5533Z" fill="black"/>
<path d="M98.6342 60.0802C99.4359 60.0735 100.081 59.4248 100.074 58.6296C100.067 57.8343 99.4135 57.1946 98.6118 57.2012C97.8101 57.2079 97.1652 57.8565 97.1719 58.6518C97.1786 59.4471 97.8348 60.0868 98.6365 60.0802H98.6342Z" fill="black"/>
<path d="M83.1196 57.3223C82.318 57.329 81.673 57.9776 81.6797 58.7729C81.6865 59.5682 82.3404 60.2079 83.142 60.2013C83.9437 60.1946 84.5887 59.5437 84.582 58.7507C84.5752 57.9554 83.9213 57.3157 83.1196 57.3223Z" fill="black"/>
<path d="M92.217 70.0319C92.1453 69.963 92.0624 69.9075 91.9729 69.8719C91.8811 69.8342 91.7825 69.8164 91.6795 69.8164L90.0672 69.8297C89.8634 69.8297 89.673 69.9119 89.532 70.0541C89.3886 70.1985 89.3125 70.3873 89.3125 70.5895C89.3125 70.7916 89.3954 70.9804 89.5387 71.1204C89.6842 71.2625 89.8746 71.3381 90.0784 71.3358L91.6907 71.3225C91.8945 71.3225 92.0848 71.2403 92.2259 71.0982C92.3692 70.9538 92.4454 70.7649 92.4454 70.5628C92.4454 70.3607 92.3625 70.1718 92.2192 70.0319H92.217Z" fill="black"/>
<path d="M89.1857 70.59C89.1812 70.1057 89.5731 69.7103 90.0613 69.7081L91.6736 69.6947C92.1618 69.6903 92.5604 70.0791 92.5649 70.5633C92.5671 70.9832 92.2738 71.3341 91.8774 71.423H92.1976C92.2693 71.3808 92.3387 71.3319 92.3992 71.2697C92.5873 71.0787 92.6903 70.8277 92.6881 70.5611C92.6881 70.2945 92.5783 70.0435 92.388 69.8569C92.1954 69.6703 91.9424 69.5681 91.6736 69.5703L90.0613 69.5837C89.7926 69.5837 89.5395 69.6925 89.3514 69.8813C89.1633 70.0724 89.0603 70.3234 89.0625 70.59C89.0625 70.8565 89.1723 71.1076 89.3626 71.2942C89.4141 71.343 89.4679 71.3852 89.5283 71.423H89.8351C89.4656 71.3208 89.1902 70.9898 89.1857 70.59Z" fill="black"/>
<path d="M90.09 71.5815L91.7023 71.5682C91.8859 71.5682 92.0584 71.5149 92.2106 71.4238H91.8904C91.8299 71.4372 91.7672 71.446 91.7001 71.446L90.0877 71.4594C90.0026 71.4594 89.9242 71.446 89.8459 71.4238H89.5391C89.5906 71.4571 89.6443 71.486 89.7003 71.5082C89.8212 71.5571 89.9533 71.5838 90.09 71.5815Z" fill="black"/>
<path d="M92.5667 70.5639C92.5623 70.0797 92.1637 69.6909 91.6755 69.6954L90.0631 69.7087C89.5749 69.7131 89.1831 70.1085 89.1875 70.5906C89.1898 70.9904 89.4652 71.3214 89.837 71.4236H91.8815C92.2779 71.3347 92.5712 70.9838 92.569 70.5639H92.5667ZM91.6889 71.3236L90.0766 71.337C89.875 71.337 89.6824 71.2614 89.5369 71.1215C89.3913 70.9793 89.3107 70.7927 89.3107 70.5906C89.3107 70.3884 89.3868 70.1996 89.5302 70.0552C89.6735 69.9108 89.8616 69.8309 90.0654 69.8309L91.6777 69.8175C91.7807 69.8175 91.8793 69.8353 91.9711 69.8731C92.0606 69.9108 92.1435 69.9641 92.2152 70.033C92.3607 70.1752 92.4413 70.364 92.4413 70.5639C92.4413 70.7661 92.3652 70.9549 92.2219 71.0993C92.0786 71.2437 91.8905 71.3236 91.6867 71.3236H91.6889Z" fill="black"/>
<path d="M90.0856 71.4594L91.6979 71.446C91.7629 71.446 91.8256 71.4372 91.8883 71.4238H89.8438C89.9221 71.446 90.0005 71.4594 90.0856 71.4594Z" fill="black"/>
<path d="M80.3945 53.5759C80.5535 53.5759 80.717 53.5381 80.8692 53.4582C82.6316 52.5318 84.2932 53.2982 84.3783 53.3382C84.8777 53.5825 85.4823 53.3804 85.7331 52.885C85.984 52.3874 85.7802 51.7832 85.2808 51.5366C85.1733 51.4833 82.6361 50.2549 79.922 51.681C79.4271 51.9409 79.239 52.5496 79.501 53.0405C79.6824 53.3804 80.034 53.5759 80.3967 53.5759H80.3945Z" fill="black"/>
<path d="M85.345 75.6107C85.4928 75.6795 87.8016 76.7391 90.9009 76.7391C92.5871 76.7391 94.5063 76.4259 96.4366 75.4685C96.9382 75.2197 97.1398 74.6155 96.889 74.1201C96.6382 73.6225 96.029 73.4226 95.5297 73.6714C90.9524 75.9417 86.2587 73.8158 86.2117 73.7936C85.7056 73.5581 85.1032 73.7713 84.8636 74.2734C84.624 74.7754 84.8389 75.3752 85.345 75.6129V75.6107Z" fill="black"/>
<path d="M40.2473 117.116C39.8756 118.549 39.5106 128.956 31.8117 127.139C31.8117 127.139 27.6845 127.023 26.1125 122.143L24.0142 118.762L23.7656 111.851C23.7656 111.851 42.6166 109.799 40.2473 117.114V117.116Z" fill="white"/>
<path d="M53.9346 90.5432L30.2936 94.2685C29.5726 94.3818 29.0575 95.0194 29.1045 95.7413L29.1157 95.9035L34.2752 125.399L37.7149 128.325L61.5507 122.474L53.9324 90.541L53.9346 90.5432Z" fill="white"/>
<path d="M37.7202 129.151C37.5231 129.151 37.3305 129.082 37.1783 128.953L33.7386 126.028C33.593 125.903 33.4945 125.732 33.4609 125.543L28.3014 96.0477C28.2231 95.5989 28.5254 95.1724 28.9777 95.0947C29.4301 95.0169 29.86 95.3168 29.9384 95.7655L35.0486 124.968L37.9374 127.425L60.5595 121.872L53.3106 91.4827L31.9605 95.0125C31.5082 95.0858 31.0805 94.7837 31.0043 94.335C30.9282 93.8862 31.235 93.4619 31.6873 93.3864L53.8033 89.73C54.2355 89.6589 54.6475 89.9321 54.7483 90.3542L62.3666 122.287C62.4719 122.727 62.2009 123.169 61.7575 123.278L37.9217 129.129C37.8568 129.144 37.7896 129.153 37.7224 129.153L37.7202 129.151Z" fill="black"/>
<path d="M37.7168 129.353C37.4705 129.353 37.2309 129.264 37.045 129.107L33.6053 126.181C33.4239 126.025 33.3008 125.812 33.2605 125.577L28.101 96.0809C28.0047 95.5233 28.3809 94.9924 28.943 94.8969C29.2139 94.8502 29.4871 94.9102 29.7133 95.0679C29.9395 95.2256 30.0895 95.4611 30.1366 95.7299L35.2333 124.864L37.9878 127.205L60.3142 121.725L53.155 91.7114L31.9907 95.2101C31.4287 95.3034 30.8957 94.9235 30.8016 94.3682C30.7569 94.0972 30.8196 93.8262 30.9808 93.604C31.142 93.3819 31.3794 93.233 31.6526 93.1886L53.7686 89.5322C54.3015 89.4411 54.8188 89.7854 54.9442 90.3074L62.5625 122.24C62.6924 122.784 62.352 123.338 61.8056 123.471L37.9698 129.322C37.8892 129.342 37.8064 129.353 37.7213 129.353H37.7168ZM29.1176 95.2834C29.0818 95.2834 29.046 95.2856 29.0079 95.2923C28.6653 95.3523 28.4369 95.6744 28.4951 96.0142L33.6546 125.51C33.6792 125.652 33.7531 125.783 33.8651 125.877L37.3048 128.802C37.457 128.931 37.6698 128.984 37.8646 128.933L61.7026 123.082C62.0363 123 62.2423 122.664 62.1639 122.333L54.5456 90.4007C54.4695 90.0831 54.1515 89.8765 53.829 89.9276L31.7131 93.584C31.3704 93.6418 31.1398 93.9639 31.1958 94.3015C31.2518 94.6392 31.5765 94.8747 31.9191 94.8147L53.455 91.2538L60.7934 122.018L60.5986 122.065L37.8758 127.643L34.8527 125.072L34.8392 125.001L29.729 95.7965C29.6999 95.6322 29.6081 95.49 29.4715 95.3922C29.364 95.3167 29.2386 95.279 29.1109 95.279L29.1176 95.2834Z" fill="black"/>
<path d="M37.1645 111.711C37.964 111.751 39.0904 111.191 39.2382 110.838C39.2427 110.827 39.2471 110.818 39.2516 110.807C39.5763 110.038 39.48 109.161 38.9941 108.483L35.1245 106.284L32.6589 105.347C33.9667 104.636 34.2511 103.159 33.8279 102.352C33.389 101.519 32.6209 100.906 31.7251 100.606L27.1747 99.0803C24.1023 98.8692 24.1538 102.894 24.1538 102.894L23.9389 104.567L23.5067 105.673C23.0274 106.9 22.864 108.226 23.0342 109.53L23.3701 112.118L24.0307 118.942L28.7132 127.019C28.7132 127.019 28.805 127.699 31.5572 127.776L28.758 120.635L30.6726 118.913C39.9705 119.12 35.5858 115.636 35.5858 115.636C38.2708 115.472 38.8418 114.326 38.8418 114.326C39.9884 112.604 37.1668 111.713 37.1668 111.713L37.1645 111.711Z" fill="white"/>
<path d="M31.158 128.862C29.2837 128.497 28.2514 127.755 28.1976 127.715C28.0946 127.64 28.0095 127.542 27.949 127.431L23.2665 119.354C23.2105 119.252 23.177 119.141 23.1658 119.025L22.5074 112.214L22.1737 109.64C21.9856 108.196 22.167 106.717 22.6977 105.359L23.0919 104.351L23.2867 102.838C23.2889 102.383 23.3763 100.294 24.6885 99.0638C25.3559 98.4373 26.2382 98.1441 27.2436 98.213C27.3175 98.2174 27.3914 98.233 27.4631 98.2574L32.0135 99.7835C33.1556 100.166 34.0782 100.936 34.6111 101.952C35.0725 102.829 34.9874 104.057 34.2976 105.037L35.4464 105.473C35.489 105.488 35.5293 105.508 35.5696 105.53L39.4392 107.729C39.5489 107.792 39.643 107.878 39.7169 107.98C40.382 108.909 40.5119 110.091 40.0685 111.142C40.0685 111.142 40.0573 111.166 40.0573 111.168C39.9341 111.461 39.6497 111.732 39.2869 111.959C39.5422 112.21 39.7594 112.51 39.8826 112.861C40.0371 113.296 40.111 113.978 39.6004 114.767C39.437 115.053 38.8525 115.849 37.2334 116.262C37.4775 116.737 37.6074 117.299 37.3947 117.881C36.8953 119.243 34.9224 119.834 31.0125 119.781L29.3531 121.271C28.9948 121.593 28.4417 121.564 28.1192 121.211C27.7945 120.856 27.8214 120.307 28.1797 119.987L30.0943 118.266C30.2601 118.117 30.4773 118.037 30.7012 118.041C35.3053 118.143 35.7487 117.297 35.751 117.288C35.7958 117.168 35.4845 116.66 35.0456 116.306C34.7657 116.082 34.6537 115.707 34.7634 115.367C34.8731 115.027 35.1822 114.787 35.5405 114.765C37.4014 114.651 37.9836 114.027 38.0754 113.912C38.0889 113.876 38.0889 113.889 38.1202 113.841C38.2882 113.587 38.2501 113.476 38.2344 113.436C38.1113 113.085 37.3857 112.688 36.9065 112.532C36.49 112.397 36.2369 111.977 36.3153 111.548C36.3959 111.119 36.7811 110.817 37.2178 110.839C37.6253 110.859 38.2658 110.582 38.4763 110.411C38.6375 109.984 38.6017 109.518 38.3822 109.122L34.7589 107.061L32.3561 106.148C32.0381 106.028 31.8187 105.735 31.7963 105.397C31.7739 105.059 31.9508 104.739 32.2486 104.577C33.1556 104.084 33.2608 103.122 33.0615 102.745C32.7368 102.129 32.1658 101.656 31.4536 101.418L27.0175 99.9301C26.5517 99.9168 26.1822 100.043 25.8933 100.312C25.1789 100.979 25.0334 102.387 25.0356 102.873C25.0356 102.913 25.0356 102.953 25.0289 102.991L24.8139 104.664C24.805 104.733 24.7871 104.802 24.7624 104.868L24.3302 105.975C23.9047 107.063 23.7592 108.249 23.9092 109.407L24.2451 111.995C24.2451 111.995 24.2474 112.012 24.2474 112.023L24.8901 118.672L29.3822 126.398C29.7853 126.634 31.0326 127.256 32.9876 127.311C33.4713 127.325 33.8498 127.724 33.8363 128.202C33.8229 128.682 33.4198 129.057 32.9383 129.044C32.2822 129.026 31.6888 128.953 31.1625 128.851L31.158 128.862Z" fill="black"/>
<path d="M32.9553 129.255C32.9553 129.255 32.9351 129.255 32.9239 129.255C32.3081 129.237 31.699 129.17 31.1145 129.057C29.1775 128.679 28.116 127.906 28.0712 127.873C27.9458 127.782 27.8406 127.662 27.7644 127.524L23.0841 119.452C23.0125 119.321 22.9699 119.185 22.9565 119.043L22.2981 112.232L21.9645 109.664C21.7719 108.187 21.9577 106.672 22.5019 105.286L22.896 104.277L23.0797 102.811C23.0797 102.409 23.1625 100.21 24.542 98.917C25.2496 98.2528 26.1857 97.9374 27.2494 98.0129C27.3434 98.0196 27.433 98.0374 27.5203 98.0663L32.0707 99.5924C33.262 99.9922 34.225 100.796 34.7848 101.858C35.2573 102.758 35.1789 103.966 34.5967 104.939L35.5126 105.288C35.5641 105.308 35.6134 105.33 35.6626 105.357L39.5323 107.558C39.6689 107.636 39.7831 107.74 39.8749 107.867C40.5803 108.853 40.7191 110.108 40.2466 111.224C40.1279 111.506 39.904 111.766 39.5883 111.997C39.8055 112.248 39.9667 112.516 40.0675 112.799C40.2354 113.274 40.3205 114.02 39.7652 114.88C39.5883 115.191 39.0127 115.955 37.5101 116.397C37.7363 116.937 37.7587 117.461 37.5773 117.957C37.0466 119.407 35.0267 120.034 31.0809 119.989L29.482 121.427C29.0408 121.822 28.3601 121.786 27.9615 121.351C27.7689 121.14 27.6704 120.867 27.6838 120.582C27.6972 120.298 27.8226 120.036 28.0354 119.843L29.95 118.121C30.1561 117.937 30.4158 117.841 30.698 117.846C34.4288 117.93 35.3536 117.375 35.5328 117.228C35.4768 117.086 35.2506 116.742 34.9102 116.468C34.5676 116.193 34.4288 115.729 34.5631 115.313C34.6997 114.891 35.0759 114.6 35.5216 114.574C37.2212 114.469 37.79 113.934 37.8953 113.814L37.9289 113.763C38.014 113.638 38.0498 113.547 38.0364 113.512C37.949 113.263 37.3198 112.887 36.8383 112.732C36.3255 112.568 36.0142 112.046 36.1105 111.521C36.2091 110.995 36.6905 110.615 37.2235 110.648C37.5616 110.664 38.0879 110.442 38.3006 110.297C38.4126 109.96 38.3857 109.595 38.2245 109.28L34.6527 107.247L32.279 106.348C31.8893 106.201 31.6184 105.837 31.5892 105.424C31.5624 105.01 31.7796 104.615 32.1468 104.415C32.9844 103.96 33.009 103.1 32.8791 102.851C32.579 102.28 32.0483 101.845 31.3855 101.623L26.9784 100.143C26.5731 100.15 26.2708 100.245 26.0267 100.472C25.3705 101.085 25.2295 102.454 25.2339 102.884C25.2339 102.931 25.2317 102.982 25.225 103.029L25.01 104.704C24.9988 104.79 24.9764 104.875 24.9451 104.955L24.5106 106.061C24.0963 107.118 23.9553 108.269 24.1031 109.393L24.439 111.981L25.0817 118.621L29.5246 126.263C29.9859 126.522 31.1638 127.071 32.9888 127.122C33.2755 127.131 33.5442 127.249 33.7413 127.455C33.9383 127.662 34.0436 127.933 34.0346 128.22C34.019 128.797 33.5375 129.257 32.9597 129.257L32.9553 129.255ZM31.1929 128.664C31.755 128.773 32.3417 128.837 32.9373 128.853C32.9441 128.853 32.9508 128.853 32.9575 128.853C33.3203 128.853 33.6181 128.566 33.6293 128.204C33.6338 128.026 33.5688 127.858 33.4457 127.729C33.3225 127.6 33.1568 127.524 32.9754 127.52C30.9936 127.464 29.7261 126.842 29.2737 126.578L29.2267 126.551L24.6808 118.699L24.0381 112.05L23.7 109.44C23.5455 108.249 23.6955 107.03 24.1322 105.91L24.5666 104.802C24.5868 104.753 24.6002 104.699 24.6069 104.644L24.8219 102.971C24.8264 102.942 24.8264 102.911 24.8264 102.88C24.8264 102.86 24.8241 101.032 25.7467 100.17C26.0782 99.8611 26.4902 99.7212 27.0165 99.7323L27.0747 99.7434L31.5109 101.232C32.2745 101.487 32.8858 101.994 33.2352 102.656C33.4725 103.107 33.3763 104.193 32.3394 104.757C32.111 104.882 31.9744 105.128 31.9923 105.386C32.0102 105.643 32.1782 105.87 32.4223 105.963L34.8251 106.876L38.5246 108.978L38.5514 109.027C38.8022 109.473 38.8403 110.004 38.6589 110.482L38.6388 110.531L38.5962 110.564C38.3454 110.768 37.6646 111.064 37.1989 111.037C36.8764 111.03 36.5651 111.255 36.5046 111.581C36.4442 111.91 36.639 112.234 36.9592 112.339C37.3623 112.468 38.2469 112.89 38.4148 113.365C38.4529 113.472 38.4798 113.645 38.2782 113.947L38.2424 113.996C38.07 114.22 37.4317 114.845 35.5417 114.96C35.264 114.978 35.0289 115.158 34.9438 115.422C34.861 115.682 34.9483 115.973 35.161 116.144C35.5529 116.459 36.0321 117.07 35.9291 117.35C35.8933 117.45 35.4432 118.339 30.6845 118.234C30.5166 118.23 30.3464 118.292 30.2188 118.405L28.3041 120.127C28.1697 120.247 28.0936 120.411 28.0846 120.589C28.0757 120.767 28.1361 120.938 28.2571 121.069C28.5056 121.342 28.9311 121.364 29.2066 121.116L30.9242 119.572H31.0025C34.7624 119.623 36.7308 119.061 37.1921 117.806C37.3578 117.352 37.3063 116.862 37.0421 116.344L36.9279 116.122L37.172 116.06C38.7395 115.66 39.2859 114.887 39.4136 114.66C39.8883 113.927 39.8211 113.31 39.6801 112.921C39.5771 112.63 39.3934 112.352 39.1314 112.094L38.9523 111.917L39.1673 111.783C39.5166 111.566 39.7607 111.319 39.857 111.086C40.2869 110.073 40.1638 108.962 39.539 108.091C39.483 108.011 39.4091 107.947 39.3262 107.898L35.4566 105.697C35.4275 105.681 35.3962 105.666 35.3626 105.652L33.9719 105.124L34.1197 104.913C34.74 104.029 34.861 102.873 34.4198 102.034C33.9092 101.065 33.0269 100.33 31.9363 99.9633L27.386 98.4372C27.3322 98.4195 27.274 98.4083 27.2158 98.4039C26.2685 98.3373 25.44 98.6149 24.8152 99.1992C23.5566 100.381 23.4805 102.429 23.4783 102.827L23.2812 104.364L22.8736 105.419C22.3541 106.745 22.1772 108.191 22.3608 109.602L22.6945 112.177L23.3529 118.994C23.3618 119.083 23.3887 119.167 23.4312 119.247L28.1115 127.32C28.1608 127.411 28.228 127.487 28.3063 127.542C28.3175 127.551 29.3387 128.295 31.1862 128.655L31.1929 128.664Z" fill="black"/>
<path d="M26.2994 105.45C25.8717 105.368 25.5627 104.977 25.5962 104.535C25.6321 104.057 26.0508 103.699 26.5323 103.735C26.651 103.744 29.4726 103.957 33.5841 104.757C34.0588 104.848 34.3678 105.305 34.2738 105.774C34.182 106.245 33.7207 106.552 33.2482 106.458C29.2375 105.679 26.4315 105.465 26.4024 105.465C26.3666 105.463 26.333 105.459 26.2972 105.452L26.2994 105.45Z" fill="black"/>
<path d="M33.4173 106.676C33.3478 106.676 33.2784 106.669 33.2068 106.656C29.1826 105.874 26.4148 105.668 26.3857 105.665C26.3431 105.663 26.3006 105.657 26.258 105.648C25.725 105.543 25.3533 105.059 25.3936 104.521C25.4138 104.237 25.5459 103.977 25.7653 103.791C25.9826 103.604 26.258 103.511 26.5469 103.535C26.8514 103.56 29.626 103.782 33.6233 104.561C33.9054 104.615 34.1495 104.777 34.3108 105.012C34.472 105.248 34.528 105.532 34.4742 105.812C34.4182 106.092 34.257 106.334 34.0174 106.494C33.8383 106.614 33.6322 106.676 33.4195 106.676H33.4173ZM26.3341 105.252C26.361 105.257 26.3879 105.261 26.4148 105.263C26.4416 105.263 29.2767 105.481 33.2851 106.261C33.4598 106.294 33.6412 106.261 33.789 106.161C33.9368 106.061 34.0398 105.91 34.0734 105.736C34.107 105.561 34.0734 105.383 33.9726 105.237C33.8718 105.09 33.7196 104.988 33.5449 104.955C29.57 104.182 26.8178 103.959 26.5178 103.937C26.3364 103.919 26.164 103.982 26.0296 104.097C25.893 104.213 25.8124 104.375 25.7989 104.552C25.7743 104.888 26.005 105.19 26.3386 105.254L26.3341 105.252Z" fill="black"/>
<path d="M25.4469 110.316C25.0035 110.23 24.6945 109.819 24.7483 109.366C24.8042 108.89 25.2387 108.548 25.7179 108.604L31.4663 109.263C31.5089 109.268 31.5492 109.277 31.5918 109.288L38.0546 111.003C38.5203 111.127 38.798 111.602 38.6726 112.065C38.5472 112.527 38.0657 112.8 37.6022 112.678L31.2021 110.98L25.5164 110.327C25.494 110.325 25.4693 110.321 25.4469 110.316Z" fill="black"/>
<path d="M37.8257 112.907C37.7339 112.907 37.6421 112.895 37.5503 112.871L31.148 111.172L25.4913 110.523C25.4644 110.521 25.4353 110.516 25.4062 110.51C24.8598 110.403 24.4814 109.89 24.5463 109.339C24.5799 109.055 24.721 108.801 24.9472 108.624C25.1733 108.446 25.4555 108.368 25.7399 108.399L31.4883 109.059C31.5398 109.063 31.5913 109.075 31.6428 109.088L38.1056 110.803C38.3833 110.876 38.6162 111.054 38.7595 111.3C38.9029 111.547 38.9409 111.836 38.867 112.111C38.7394 112.587 38.3027 112.902 37.8257 112.902V112.907ZM25.6145 108.799C25.4644 108.799 25.3189 108.848 25.198 108.944C25.0569 109.055 24.9673 109.212 24.9472 109.39C24.9068 109.734 25.1442 110.054 25.4846 110.121L25.5361 110.128L31.2218 110.781L37.6511 112.484C38.0094 112.578 38.3789 112.367 38.4729 112.011C38.5199 111.84 38.4953 111.66 38.4057 111.505C38.3161 111.352 38.1706 111.24 37.9982 111.194L31.5354 109.479C31.504 109.47 31.4727 109.463 31.4413 109.461L25.6906 108.799C25.6638 108.797 25.6369 108.795 25.6122 108.795L25.6145 108.799Z" fill="black"/>
<path d="M25.682 115.619C25.2857 115.541 24.9834 115.199 24.9766 114.781C24.9699 114.301 25.3551 113.908 25.8366 113.902L29.6524 113.844C29.6972 113.844 29.7443 113.844 29.789 113.853L36.2922 114.775C36.7691 114.843 37.1028 115.281 37.0334 115.756C36.9662 116.23 36.5228 116.561 36.0436 116.492L29.6077 115.579L25.8612 115.636C25.7985 115.636 25.738 115.632 25.6776 115.621L25.682 115.619Z" fill="black"/>
<path d="M36.1719 116.701C36.1204 116.701 36.0689 116.696 36.0174 116.69L29.5815 115.779L25.8664 115.839C25.7925 115.839 25.7163 115.835 25.6424 115.819C25.1475 115.723 24.7825 115.288 24.7736 114.788C24.7691 114.504 24.8766 114.233 25.0781 114.029C25.2774 113.824 25.5462 113.709 25.835 113.704L29.6509 113.646C29.7046 113.646 29.7629 113.649 29.8189 113.658L36.322 114.579C36.9087 114.664 37.3185 115.206 37.2356 115.788C37.1953 116.07 37.0453 116.319 36.8169 116.49C36.6288 116.63 36.4048 116.703 36.1742 116.703L36.1719 116.701ZM29.6061 115.379L36.0734 116.292C36.2525 116.317 36.4272 116.272 36.5728 116.166C36.7161 116.059 36.8101 115.903 36.8348 115.726C36.8863 115.361 36.631 115.024 36.2637 114.97L29.7606 114.049C29.727 114.044 29.6912 114.04 29.6576 114.042L25.8395 114.1C25.6604 114.102 25.4924 114.175 25.367 114.302C25.2416 114.428 25.1744 114.597 25.1767 114.777C25.1811 115.09 25.4096 115.361 25.7186 115.421C25.7634 115.43 25.8126 115.432 25.8597 115.432L29.6061 115.375V115.379Z" fill="black"/>
<path d="M38.9577 98.8821C38.9689 98.9465 38.9533 99.0132 38.9018 99.0776C38.3979 99.7396 37.7037 100.459 37.108 100.995C36.9983 101.095 36.9804 101.152 36.9938 101.228C37.0073 101.301 37.0565 101.343 37.2178 101.41C37.9523 101.726 38.9891 102.263 39.7124 102.736C39.793 102.787 39.8311 102.858 39.8445 102.927C39.8557 102.996 39.84 103.065 39.8109 103.114C39.7729 103.181 39.7146 103.223 39.6452 103.234C39.5803 103.245 39.5131 103.229 39.4437 103.181C38.7092 102.674 37.7664 102.165 36.8953 101.766C36.6221 101.641 36.5191 101.517 36.4855 101.321C36.4497 101.108 36.5191 100.939 36.743 100.733C37.3409 100.197 38.0374 99.4375 38.5031 98.8088C38.5479 98.7533 38.6039 98.7155 38.6666 98.7044C38.7248 98.6955 38.7875 98.7044 38.8547 98.7377C38.9152 98.771 38.951 98.8244 38.9622 98.8843L38.9577 98.8821Z" fill="#0DACCB"/>
<path d="M39.6057 103.42C39.5116 103.42 39.4198 103.389 39.3347 103.329C38.6719 102.873 37.7537 102.362 36.8154 101.929C36.4952 101.785 36.3452 101.616 36.3004 101.347C36.2533 101.07 36.3519 100.836 36.6161 100.592C37.214 100.054 37.897 99.3103 38.3539 98.6949C38.4345 98.595 38.5308 98.5372 38.6383 98.5194C38.7368 98.5039 38.8376 98.5194 38.9406 98.5705C39.057 98.635 39.1287 98.7349 39.1488 98.8526C39.169 98.9704 39.1354 99.0903 39.057 99.1925C38.5868 99.8101 37.9082 100.536 37.2409 101.134C37.2073 101.165 37.1916 101.183 37.1872 101.192C37.1984 101.192 37.2275 101.21 37.2969 101.238C38.1098 101.585 39.1466 102.138 39.8229 102.582C39.9371 102.656 40.0132 102.769 40.0356 102.898C40.0535 103.007 40.0312 103.12 39.9752 103.211C39.9125 103.32 39.8072 103.395 39.6818 103.418C39.6594 103.422 39.6348 103.424 39.6124 103.424L39.6057 103.42ZM38.7054 98.8815C38.7054 98.8815 38.6987 98.8815 38.6943 98.8815C38.6786 98.8837 38.6629 98.8971 38.645 98.9193C38.1792 99.5479 37.4783 100.314 36.8647 100.865C36.6699 101.045 36.643 101.156 36.6654 101.285C36.6833 101.389 36.7169 101.478 36.9699 101.592C37.9418 102.038 38.8555 102.547 39.5475 103.024C39.5743 103.042 39.5945 103.051 39.6124 103.049C39.6169 103.049 39.6325 103.044 39.6482 103.02C39.6594 103.002 39.6639 102.98 39.6617 102.958C39.6572 102.931 39.6415 102.909 39.6124 102.891C38.9518 102.458 37.9373 101.918 37.1446 101.578C36.9879 101.514 36.8423 101.438 36.8109 101.258C36.7796 101.074 36.8759 100.959 36.9834 100.859C37.635 100.274 38.2956 99.5679 38.7547 98.9659C38.7793 98.9348 38.7749 98.9193 38.7749 98.9148C38.7749 98.9148 38.7659 98.9015 38.7614 98.8993C38.7502 98.8949 38.7278 98.886 38.7054 98.886V98.8815Z" fill="#0DACCB"/>
<path d="M44.0043 100.659C43.9438 101.143 43.6415 101.352 43.2205 101.421C42.6652 101.514 42.2039 101.203 42.1143 100.672C42.0202 100.115 42.3987 99.6482 43.0078 99.5482C43.2698 99.5038 43.5027 99.5526 43.6863 99.6859C43.6483 99.4949 43.6035 99.2261 43.5609 98.9751C42.7771 99.1217 41.9643 99.2883 41.1962 99.466C41.1917 99.466 41.1805 99.4682 41.1738 99.4705C41.0506 99.4904 40.9677 99.4171 40.9409 99.2972C40.9409 99.2927 40.9409 99.2861 40.9409 99.2861C40.9229 99.175 40.9767 99.0773 41.0999 99.0528C41.8478 98.884 42.6764 98.7196 43.487 98.5686C43.4557 98.382 43.4198 98.1976 43.393 98.0376C43.3728 97.9199 43.431 97.8355 43.5632 97.8133C43.7177 97.7866 43.7983 97.8399 43.8229 97.9777C43.8476 98.1265 43.8767 98.302 43.9103 98.493C44.1991 98.4397 44.4813 98.3886 44.7545 98.342C44.9471 98.3109 45.1397 98.2776 45.3233 98.2531C45.4689 98.2287 45.554 98.2864 45.5786 98.4286C45.5786 98.4331 45.5786 98.4397 45.5808 98.4442C45.6032 98.5708 45.5383 98.6419 45.4151 98.6619C45.0994 98.7085 44.7657 98.7596 44.4186 98.8151C44.273 98.8396 44.1297 98.864 43.9797 98.8929C44.0401 99.2483 44.1028 99.626 44.1655 99.9925C44.3089 100.192 44.3962 100.412 44.4387 100.663C44.5552 101.354 44.3313 101.85 43.814 102.241C43.5945 102.407 43.3213 102.552 43.01 102.663C42.9944 102.671 42.9787 102.674 42.9585 102.676C42.851 102.694 42.757 102.649 42.7144 102.536C42.7055 102.516 42.701 102.494 42.6988 102.478C42.6808 102.367 42.7301 102.276 42.8331 102.238C43.7625 101.905 44.1566 101.381 44.0513 100.754L44.0334 100.654L44.0066 100.659H44.0043ZM43.0951 99.8992C42.7324 99.9592 42.4927 100.244 42.5487 100.579C42.6092 100.934 42.8869 101.079 43.2228 101.023C43.5967 100.961 43.8095 100.659 43.7468 100.281C43.6975 99.9947 43.4355 99.8414 43.0929 99.8992H43.0951Z" fill="#0DACCB"/>
<path d="M42.8995 102.868C42.7293 102.868 42.586 102.768 42.5255 102.601C42.5121 102.572 42.5053 102.532 42.5009 102.512C42.4673 102.312 42.5658 102.139 42.7539 102.068C43.1055 101.941 43.4862 101.746 43.6989 101.453C43.5713 101.526 43.419 101.577 43.2399 101.606C42.5815 101.715 42.0261 101.335 41.9186 100.704C41.8649 100.382 41.9433 100.071 42.1403 99.8243C42.3307 99.5844 42.6263 99.4222 42.9666 99.3644C43.1301 99.3378 43.2846 99.34 43.428 99.3733C43.4168 99.3134 43.4078 99.2534 43.3966 99.1912C42.6554 99.3311 41.9097 99.4888 41.2267 99.6443C41.2222 99.6443 41.1976 99.6488 41.1931 99.651C40.9803 99.6865 40.7967 99.5555 40.7497 99.3333C40.7094 99.0979 40.8348 98.9135 41.052 98.8691C41.6768 98.7291 42.4225 98.5758 43.2622 98.4181C43.2555 98.3826 43.2488 98.3493 43.2421 98.3137C43.2264 98.2271 43.2107 98.1449 43.1973 98.0671C43.1592 97.8428 43.2891 97.6673 43.522 97.6295C43.7795 97.5873 43.9542 97.7051 43.9968 97.9472L44.0527 98.276C44.2767 98.2337 44.4984 98.1938 44.7134 98.1582C44.9082 98.1271 45.1008 98.0938 45.2866 98.0694C45.5285 98.0294 45.7099 98.1538 45.7524 98.3981C45.7793 98.5581 45.7323 98.6536 45.6875 98.7091C45.6472 98.758 45.571 98.8224 45.4344 98.8469C45.1164 98.8935 44.785 98.9446 44.4379 99.0001C44.3528 99.0135 44.2677 99.029 44.1826 99.0423L44.3304 99.922C44.4737 100.131 44.5656 100.364 44.6103 100.633C44.7335 101.366 44.5051 101.939 43.9139 102.388C43.681 102.565 43.3988 102.714 43.0697 102.834C43.0338 102.85 43.0002 102.856 42.9756 102.861C42.9487 102.865 42.9241 102.868 42.8995 102.868ZM44.0259 100.471C44.1154 100.471 44.1938 100.535 44.2095 100.626L44.2274 100.726C44.2991 101.15 44.2207 101.937 42.8883 102.414C42.8748 102.419 42.8681 102.421 42.8726 102.45C42.8726 102.454 42.8771 102.472 42.8793 102.477C42.886 102.497 42.8883 102.501 42.9151 102.497C43.2309 102.386 43.4839 102.252 43.6877 102.097C44.1737 101.73 44.3439 101.297 44.2431 100.697C44.205 100.471 44.1266 100.275 44.0035 100.104C43.9878 100.082 43.9766 100.055 43.9721 100.026L43.7863 98.929C43.7706 98.8313 43.8355 98.738 43.9318 98.718C44.0819 98.6869 44.2296 98.6625 44.3774 98.638C44.7268 98.5803 45.0605 98.5314 45.3784 98.4825C45.3829 98.4825 45.3852 98.4825 45.3874 98.4825C45.3874 98.4759 45.3874 98.467 45.3874 98.467C45.3852 98.4514 45.3807 98.4403 45.3784 98.4359C45.374 98.4359 45.3628 98.4359 45.3449 98.4403C45.159 98.467 44.9686 98.4981 44.7761 98.5292C44.5051 98.5736 44.2229 98.6269 43.9363 98.6803C43.887 98.6891 43.8355 98.6803 43.7952 98.6492C43.7549 98.6203 43.7258 98.5781 43.7191 98.527L43.6317 98.0116C43.6317 98.0116 43.6295 97.9983 43.6273 97.9938C43.6205 97.9938 43.6071 97.9961 43.587 98.0005C43.5668 98.0049 43.5601 98.0094 43.5601 98.0094C43.5825 98.0894 43.5981 98.1693 43.6138 98.2537C43.6317 98.347 43.6497 98.4448 43.6653 98.5425C43.681 98.6425 43.6161 98.7358 43.5153 98.7558C42.6039 98.9246 41.8022 99.0868 41.1348 99.2378L41.1192 99.2623C41.1237 99.2867 41.1326 99.2956 41.1326 99.2956L41.1617 99.2889C41.894 99.1201 42.7136 98.9513 43.5198 98.8002C43.569 98.7913 43.6205 98.8002 43.6609 98.8313C43.7012 98.8602 43.7303 98.9046 43.7392 98.9535C43.7818 99.2023 43.8266 99.4711 43.8624 99.6599C43.8781 99.7354 43.8445 99.811 43.7795 99.8509C43.7594 99.8643 43.737 99.8731 43.7146 99.8754C43.8266 99.9709 43.9005 100.104 43.9273 100.257C43.9408 100.337 43.943 100.415 43.9363 100.491C43.9453 100.486 43.9564 100.484 43.9676 100.482L43.9945 100.477C43.9945 100.477 44.0147 100.475 44.0259 100.475V100.471ZM42.83 99.7843C42.6688 99.842 42.5322 99.9353 42.4382 100.055C42.306 100.22 42.2568 100.424 42.2926 100.644C42.3643 101.07 42.7315 101.317 43.1839 101.242C43.3832 101.208 43.531 101.146 43.634 101.046C43.5287 101.126 43.3988 101.182 43.251 101.208C42.792 101.284 42.4337 101.044 42.362 100.611C42.3262 100.397 42.3799 100.189 42.5165 100.022C42.5994 99.9198 42.7069 99.8398 42.8345 99.7843H42.83ZM43.2264 100.073C43.1928 100.073 43.157 100.075 43.1212 100.082C42.989 100.104 42.8771 100.164 42.8054 100.253C42.736 100.337 42.7114 100.44 42.7293 100.548C42.7808 100.862 43.0405 100.866 43.1883 100.842C43.4593 100.797 43.6049 100.588 43.5601 100.313C43.5466 100.226 43.5019 100.162 43.4324 100.122C43.3787 100.091 43.307 100.073 43.2264 100.073Z" fill="#0DACCB"/>
<path d="M47.8356 99.403C47.858 98.9742 47.905 98.6766 47.9812 98.4411C48.1894 97.7902 48.6037 97.4037 49.0919 97.3237C49.8309 97.2016 50.543 97.6458 50.749 98.8654C50.9035 99.7895 50.7132 100.476 50.2138 100.973C49.8846 101.3 49.3651 101.584 48.8142 101.747C48.7985 101.749 48.7873 101.751 48.7761 101.753C48.6575 101.773 48.5522 101.724 48.5097 101.611C48.5007 101.591 48.4962 101.569 48.494 101.553C48.4738 101.436 48.5365 101.344 48.6619 101.307C49.1859 101.149 49.6293 100.907 49.9048 100.616C50.2832 100.216 50.4109 99.6651 50.2855 98.9276C50.1377 98.0523 49.6585 97.6614 49.13 97.7502C48.7022 97.8213 48.3731 98.1923 48.2096 98.781C48.0775 99.2452 48.0416 99.7739 48.1088 100.178C48.1357 100.332 48.0819 100.44 47.9341 100.474C47.9297 100.474 47.9229 100.474 47.9229 100.474C47.8043 100.494 47.7035 100.44 47.6453 100.292C47.5602 100.049 47.4706 99.7051 47.4124 99.3652C47.3116 98.7699 47.3206 98.0435 47.381 97.3837C47.3967 97.2504 47.4616 97.1793 47.5646 97.1616C47.587 97.1571 47.6027 97.1549 47.6184 97.1571C47.7326 97.1549 47.802 97.2082 47.8199 97.3037C47.8244 97.3304 47.8244 97.3637 47.8199 97.397C47.7707 97.8902 47.7438 98.4833 47.7729 98.8454C47.7863 99.0187 47.7975 99.2186 47.8065 99.403H47.8401H47.8356Z" fill="#0DACCB"/>
<path d="M48.7233 101.939C48.5464 101.939 48.3941 101.837 48.3336 101.67C48.3202 101.641 48.3135 101.603 48.3112 101.583C48.2754 101.37 48.3918 101.19 48.6091 101.126C49.1084 100.975 49.5205 100.748 49.7691 100.486C50.1072 100.128 50.2147 99.6264 50.1027 98.9533C49.984 98.2447 49.6213 97.8515 49.1622 97.927C48.8106 97.9848 48.5374 98.3047 48.3896 98.8245C48.2664 99.2599 48.2306 99.7641 48.2933 100.142C48.3359 100.397 48.2149 100.593 47.9776 100.648C47.9731 100.648 47.9552 100.653 47.9507 100.653C47.7379 100.688 47.5588 100.577 47.4715 100.353C47.3729 100.071 47.2834 99.713 47.2274 99.3887C47.1109 98.6979 47.1445 97.9048 47.1938 97.3606C47.2184 97.1429 47.3416 97.0052 47.5319 96.9741C47.5566 96.9696 47.5879 96.9652 47.626 96.9674C47.823 96.9674 47.9708 97.0851 48.0022 97.2695C48.0089 97.3161 48.0089 97.3695 48.0022 97.4206C47.982 97.616 47.9686 97.8137 47.9596 98.0048C48.2105 97.5227 48.5979 97.2117 49.0614 97.134C49.4981 97.0629 49.9169 97.1718 50.2416 97.4428C50.5954 97.7404 50.8283 98.2069 50.9335 98.8289C51.0948 99.7864 50.8977 100.548 50.3468 101.097C49.9975 101.444 49.46 101.741 48.8688 101.917C48.8621 101.917 48.842 101.923 48.8352 101.923L48.8084 101.928C48.7815 101.932 48.7546 101.934 48.7277 101.934L48.7233 101.939ZM48.7434 101.568L48.7994 101.746L48.7681 101.563C49.2831 101.412 49.7758 101.141 50.0781 100.842C50.5461 100.375 50.7051 99.7397 50.5618 98.8956C50.4722 98.3691 50.2774 97.967 49.9975 97.7316C49.7556 97.5294 49.4533 97.4517 49.1196 97.505C48.8733 97.545 48.6538 97.6805 48.4769 97.8915C48.6516 97.7138 48.8599 97.6027 49.0972 97.5627C49.7735 97.4494 50.3132 97.9715 50.4677 98.8933C50.6021 99.6886 50.461 100.291 50.04 100.739C49.7467 101.048 49.2764 101.312 48.7166 101.481C48.674 101.495 48.6762 101.503 48.6785 101.519C48.6785 101.523 48.683 101.541 48.6852 101.543C48.6897 101.555 48.6964 101.572 48.7434 101.566V101.568ZM47.5879 97.3406C47.5879 97.3406 47.57 97.3606 47.5655 97.405C47.5185 97.9226 47.4849 98.6823 47.5946 99.3332C47.6461 99.6375 47.7312 99.973 47.8208 100.231C47.8477 100.299 47.8723 100.295 47.8925 100.291C47.9261 100.284 47.9373 100.28 47.9261 100.206C47.8947 100.015 47.8835 99.7997 47.8925 99.5798C47.8745 99.5842 47.8566 99.5886 47.8365 99.5886H47.8029C47.7044 99.5886 47.6215 99.5109 47.617 99.4132C47.6081 99.231 47.5969 99.0311 47.5834 98.86C47.5521 98.4468 47.5902 97.8049 47.6305 97.3806C47.6327 97.3628 47.6327 97.3517 47.6327 97.345C47.6305 97.345 47.6237 97.345 47.6193 97.345C47.6081 97.345 47.5969 97.345 47.5857 97.345L47.5879 97.3406Z" fill="#0DACCB"/>
<path d="M42.517 121.8C41.5227 121.8 40.618 121.125 40.3784 120.125L39.6886 117.246C39.6103 116.918 39.814 116.587 40.1477 116.507C40.4791 116.429 40.8128 116.631 40.8934 116.962L41.5831 119.841C41.7063 120.35 42.2236 120.667 42.7364 120.547L54.6095 117.784C55.1201 117.664 55.4426 117.155 55.3261 116.647L53.0576 106.664C52.9434 106.157 52.4508 105.84 51.938 105.937L41.4174 107.974C41.0815 108.041 40.7568 107.823 40.6919 107.49C40.6269 107.157 40.8441 106.835 41.1801 106.77L51.7006 104.733C52.8762 104.504 54.0026 105.235 54.2647 106.393L56.5331 116.376C56.7974 117.537 56.0606 118.704 54.8917 118.977L43.0186 121.74C42.8506 121.78 42.6827 121.798 42.517 121.798V121.8Z" fill="#0DACCB"/>
<path d="M42.018 112.272C41.8008 112.272 41.6082 112.121 41.5634 111.901C41.5142 111.652 41.6777 111.41 41.9285 111.359L52.1265 109.349C52.3773 109.3 52.6214 109.462 52.6729 109.711C52.7222 109.959 52.5587 110.202 52.3079 110.253L42.1099 112.263C42.0785 112.27 42.0494 112.272 42.018 112.272Z" fill="#0DACCB"/>
<path d="M42.6751 116.498C42.4601 116.498 42.2675 116.349 42.2205 116.131C42.169 115.882 42.3302 115.638 42.5811 115.587L52.8194 113.474C53.0725 113.423 53.3166 113.583 53.3681 113.832C53.4196 114.081 53.2583 114.325 53.0075 114.376L42.7692 116.489C42.7378 116.495 42.7065 116.498 42.6751 116.498Z" fill="#0DACCB"/>
<path d="M30.4856 153C29.9459 153 29.4778 152.602 29.4107 152.056L26.8444 131.692C26.7705 131.101 27.1915 130.564 27.7871 130.49C28.3783 130.419 28.9247 130.835 28.9986 131.426L31.5649 151.789C31.6388 152.38 31.2178 152.918 30.6222 152.991C30.5774 152.995 30.5303 153 30.4856 153Z" fill="black"/>
<path d="M51.1407 152.152C50.6368 152.152 50.1845 151.803 50.0792 151.292L45.6789 130.2C45.5579 129.618 45.9341 129.049 46.5209 128.927C47.1098 128.807 47.6831 129.18 47.804 129.762L52.2044 150.854C52.3253 151.436 51.9491 152.005 51.3624 152.127C51.2885 152.143 51.2146 152.149 51.1407 152.149V152.152Z" fill="black"/>
<path d="M112.325 40.2518C109.978 35.5335 106.102 32.6901 104.012 31.4239C103.799 31.2951 103.665 31.0774 103.647 30.8286C103.627 30.582 103.723 30.351 103.909 30.191L103.95 30.1555C104.323 29.8289 104.467 29.3291 104.321 28.8537C104.176 28.3717 103.777 28.034 103.278 27.9741C101.034 27.7031 98.0801 26.7056 97.7509 26.5946C97.7129 26.5812 97.6748 26.5701 97.6367 26.5613C89.6444 24.5864 84.5656 28.274 82.2523 30.6464C82.1426 30.7597 82.0037 30.8352 81.8492 30.8641C78.7611 31.455 73.1 33.2632 69.891 38.739C69.7343 39.0056 69.591 39.281 69.4499 39.5587C67.009 44.3592 66.8522 50.7701 68.9706 58.6517C69.5462 58.0008 70.2605 57.5898 71.06 57.4588C71.1787 57.4388 71.2973 57.4277 71.4183 57.421L71.3242 55.5328C71.3108 55.2663 71.4048 55.0086 71.5885 54.8087C71.7788 54.5998 72.0408 54.4799 72.3274 54.4666C72.4506 54.4599 72.5671 54.4777 72.679 54.5088C73.2187 51.5876 73.6061 49.846 74.2018 48.4821C74.9744 45.461 80.6691 41.3447 84.3416 39.4054C84.3416 39.4054 81.8582 41.2048 83.8803 39.7475C86.2272 41.8667 90.1976 44.8679 93.8903 44.8967C94.0941 44.8967 94.2508 44.7124 94.2262 44.5102L93.6372 39.7431C93.6372 39.7431 101.345 47.2959 107.96 50.6946C108.818 52.6517 109.534 55.153 109.893 57.4144C110.083 57.4077 110.273 57.4255 110.462 57.4566C111.254 57.5854 111.964 57.9919 112.537 58.6339C113.496 54.2489 114.253 49.7261 114.266 49.5306L114.271 49.4639C114.396 45.8253 113.577 42.7686 112.322 40.2496L112.325 40.2518Z" fill="#0DACCB"/>
<path d="M93.89 45.975C93.834 45.975 93.778 45.9706 93.7198 45.9617C83.4008 44.3489 80.4919 35.0435 80.3732 34.6481C80.203 34.0772 80.5299 33.4796 81.1032 33.3085C81.6765 33.1397 82.2811 33.4618 82.4535 34.0305C82.5588 34.3726 85.1161 42.4363 94.0579 43.8358C94.6491 43.9291 95.0544 44.48 94.9604 45.0664C94.8753 45.5974 94.414 45.975 93.89 45.975Z" fill="black"/>
<path d="M112.839 59.0101C112.745 58.8768 112.642 58.7546 112.538 58.6391C111.965 57.9971 111.255 57.5906 110.463 57.4617C110.274 57.4329 110.084 57.4129 109.894 57.4195C109.538 55.1559 108.819 52.6546 107.961 50.6998C107.775 50.2755 107.323 50.0378 106.871 50.0889C106.774 50.1 106.678 50.1178 106.584 50.1577C106.47 50.2044 106.369 50.271 106.282 50.3488C106.165 50.451 106.073 50.5754 106.013 50.7198C105.91 50.9708 105.914 51.244 106.022 51.4928C106.947 53.6054 107.679 56.351 107.937 58.6302L107.605 62.5154C107.583 62.782 107.666 63.0419 107.843 63.2485C108.026 63.4617 108.284 63.5928 108.568 63.615C109.15 63.6661 109.659 63.2352 109.706 62.6843L109.907 60.3118C110.333 60.183 110.713 60.123 111.054 60.123C111.069 60.143 111.085 60.1585 111.101 60.1807C111.755 61.0915 111.994 62.6065 111.728 64.1348C111.197 67.1582 109.383 69.9172 108.617 69.7905C108.472 69.7661 108.328 69.7106 108.176 69.6173C107.89 69.444 107.534 69.4129 107.22 69.5351C106.906 69.6572 106.671 69.9216 106.591 70.2415C106.273 71.521 105.556 73.7469 104.062 76.166L104.074 76.4503L104.085 76.7324L104.127 77.9409L104.17 79.0938L104.179 79.3426L104.188 79.5914C106.512 76.7058 107.724 73.7824 108.335 71.8098C108.443 71.8253 108.548 71.8276 108.658 71.832C111.544 71.832 113.403 66.7805 113.808 64.4769C114.175 62.3733 113.824 60.3829 112.843 59.0145L112.839 59.0101Z" fill="black"/>
<path d="M88.4585 60.8949C88.2592 60.8949 88.0599 60.8238 87.9009 60.6772C87.5695 60.3729 87.5538 59.8553 87.8583 59.5265C87.9479 59.431 90.0999 57.194 94.2965 59.3577C94.6974 59.5643 94.8519 60.053 94.6436 60.4506C94.4353 60.8482 93.9427 61.0037 93.5418 60.7949C90.5075 59.2288 89.1079 60.5772 89.0497 60.635C88.8907 60.806 88.6735 60.8927 88.4563 60.8927L88.4585 60.8949Z" fill="black"/>
<path d="M85.9346 64.9872H80.1571C78.0588 64.9872 76.2807 63.3612 76.1105 61.2864L75.9694 59.5492L73.1994 59.4715C72.7492 59.4582 72.3932 59.085 72.4066 58.6385C72.4201 58.1897 72.8007 57.8388 73.2464 57.8499L76.7487 57.9476C77.1653 57.9587 77.5056 58.2808 77.5392 58.6918L77.7408 61.1531C77.8416 62.3926 78.903 63.3634 80.1571 63.3634H85.9346C87.0386 63.3634 87.9344 62.4726 87.9344 61.3797C87.9344 61.3575 87.9344 61.3353 87.9366 61.3108L88.1605 58.6896C88.1986 58.2431 88.5927 57.9121 89.0428 57.9498C89.493 57.9876 89.8266 58.3786 89.7886 58.8251L89.5691 61.4152C89.5489 63.3856 87.9276 64.985 85.9346 64.985V64.9872Z" fill="black"/>
<path d="M102.033 64.9867H96.2553C94.2645 64.9867 92.641 63.3895 92.6209 61.4169L92.4014 58.8268C92.3633 58.3803 92.697 57.9893 93.1471 57.9515C93.5972 57.9138 93.9913 58.2448 94.0294 58.6913L94.2534 61.3125C94.2534 61.3347 94.2556 61.3569 94.2556 61.3814C94.2556 62.4765 95.1536 63.3651 96.2553 63.3651H102.033C103.287 63.3651 104.348 62.3943 104.449 61.1548L104.651 58.6935C104.684 58.2803 105.025 57.9604 105.441 57.9493L108.944 57.8516C108.944 57.8516 108.959 57.8516 108.968 57.8516C109.409 57.8516 109.772 58.2003 109.783 58.6402C109.797 59.0867 109.441 59.4599 108.991 59.4732L106.221 59.5509L106.077 61.2881C105.907 63.3629 104.131 64.9889 102.033 64.9889V64.9867Z" fill="black"/>
</g>
</g>
<defs>
<clipPath id="clip0_709_11874">
<rect width="117" height="127" fill="white" transform="translate(21.8906 26)"/>
</clipPath>
</defs>
</svg>
